{"glyphs":{"0":{"ha":869,"x_min":81,"x_max":789,"o":"m 81 683 q 174 919 81 833 q 435 1006 267 1006 q 696 919 603 1006 q 789 683 789 833 l 789 303 q 696 67 789 153 q 435 -19 603 -19 q 174 67 267 -19 q 81 303 81 153 l 81 683 m 688 683 q 622 852 688 792 q 435 913 556 913 q 247 852 314 913 q 181 683 181 792 l 181 303 q 247 134 181 194 q 435 74 314 74 q 622 134 556 74 q 688 303 688 194 l 688 683 z "},"1":{"ha":617,"x_min":39,"x_max":494,"o":"m 467 986 q 488 980 482 986 q 494 958 494 974 l 494 28 q 488 6 494 13 q 467 0 482 0 l 422 0 q 399 6 406 0 q 393 28 393 13 l 393 864 l 100 701 q 60 711 74 686 l 39 749 q 51 785 26 771 l 390 975 q 429 986 408 986 l 467 986 z "},"2":{"ha":819,"x_min":69,"x_max":750,"o":"m 75 781 q 432 1006 171 1006 q 662 919 574 1006 q 750 708 750 833 q 727 576 750 632 q 651 477 704 519 q 542 407 597 435 q 388 340 486 379 q 308 309 335 321 q 245 274 282 297 q 192 219 208 250 q 175 149 175 189 l 175 94 l 714 94 q 735 88 729 94 q 742 67 742 82 l 742 28 q 735 6 742 13 q 714 0 729 0 l 99 0 q 69 28 69 0 l 69 129 q 87 227 69 183 q 128 299 104 271 q 195 356 151 328 q 271 398 239 383 q 358 433 303 413 q 549 522 501 489 q 644 704 644 589 q 585 852 644 792 q 429 913 525 913 q 269 872 331 913 q 169 746 208 831 q 156 727 163 731 q 135 729 150 724 l 92 746 q 75 781 64 756 z "},"3":{"ha":832,"x_min":67,"x_max":765,"o":"m 735 731 q 610 513 735 567 q 765 272 765 457 q 681 58 765 135 q 428 -19 597 -19 q 189 41 274 -19 q 67 222 104 101 q 83 258 58 249 l 126 274 q 163 256 153 283 q 250 117 192 161 q 428 74 308 74 q 603 126 546 74 q 661 274 661 178 q 613 409 661 360 q 475 458 565 458 l 274 458 q 246 485 246 458 l 246 522 q 252 544 246 538 q 274 550 258 550 l 463 550 q 590 598 546 550 q 635 721 635 646 q 582 863 635 814 q 425 913 529 913 q 256 871 311 913 q 171 735 200 829 q 135 718 163 711 l 92 733 q 75 768 67 743 q 194 947 113 889 q 428 1006 276 1006 q 656 933 578 1006 q 735 731 735 861 z "},"4":{"ha":847,"x_min":35,"x_max":808,"o":"m 781 358 q 802 352 796 358 q 808 331 808 346 l 808 296 q 802 274 808 281 q 781 268 796 268 l 653 268 l 653 28 q 647 6 653 13 q 625 0 640 0 l 585 0 q 563 6 569 0 q 557 28 557 13 l 557 268 l 63 268 q 41 274 47 268 q 35 296 35 281 l 35 325 q 44 358 35 346 l 542 978 q 581 997 557 997 l 624 997 q 647 991 640 997 q 653 969 653 985 l 653 358 l 781 358 m 557 858 l 154 358 l 557 358 l 557 858 z "},"5":{"ha":813,"x_min":58,"x_max":756,"o":"m 690 986 q 712 980 706 986 q 718 958 718 974 l 718 919 q 712 898 718 904 q 690 892 706 892 l 233 892 l 204 596 l 433 596 q 673 511 590 596 q 756 294 756 426 q 665 70 756 161 q 419 -21 574 -21 q 58 199 139 -21 q 74 233 49 224 l 119 250 q 154 232 143 260 q 419 74 213 74 q 586 135 524 74 q 649 294 649 197 q 591 445 649 388 q 428 503 533 503 l 128 503 q 97 536 93 503 l 139 943 q 151 977 140 968 q 186 986 161 986 l 690 986 z "},"6":{"ha":863,"x_min":79,"x_max":796,"o":"m 179 540 q 451 583 314 583 q 711 508 626 583 q 796 282 796 433 q 701 60 796 140 q 438 -19 606 -19 q 172 73 264 -19 q 79 331 79 165 l 79 656 q 171 915 79 825 q 438 1006 263 1006 q 782 793 700 1006 q 764 758 790 768 l 722 743 q 701 742 707 738 q 688 761 694 746 q 438 913 625 913 q 245 847 311 913 q 179 656 179 782 l 179 540 m 179 331 q 245 140 179 207 q 438 74 311 74 q 628 128 561 74 q 696 282 696 182 q 635 438 696 388 q 444 489 575 489 q 179 442 288 489 l 179 331 z "},"7":{"ha":721,"x_min":38,"x_max":703,"o":"m 676 986 q 703 958 703 986 l 703 931 q 696 892 703 913 l 311 25 q 295 4 304 8 q 260 0 286 0 l 215 0 q 201 28 190 0 l 588 892 l 64 892 q 43 898 49 892 q 38 919 38 904 l 38 958 q 43 980 38 974 q 64 986 49 986 l 676 986 z "},"8":{"ha":856,"x_min":67,"x_max":789,"o":"m 96 747 q 184 938 96 871 q 426 1006 272 1006 q 675 942 590 1006 q 760 754 760 878 q 565 507 760 581 q 730 413 671 469 q 789 250 789 357 q 701 52 789 124 q 426 -19 614 -19 q 67 235 67 -19 q 292 501 67 419 q 148 595 200 539 q 96 747 96 651 m 661 746 q 601 874 661 831 q 428 918 542 918 q 258 874 318 918 q 197 746 197 829 q 215 665 197 699 q 270 610 232 632 q 342 576 308 588 q 433 549 375 564 l 465 539 q 517 556 497 549 q 576 588 536 564 q 639 651 617 611 q 661 746 661 692 m 683 249 q 676 309 683 282 q 647 356 668 336 q 609 390 625 376 q 553 417 593 403 q 494 436 513 431 q 424 456 475 442 q 388 465 400 463 q 168 244 168 407 q 428 68 168 68 q 683 249 683 68 z "},"9":{"ha":863,"x_min":67,"x_max":783,"o":"m 682 446 q 411 403 553 403 q 151 478 236 403 q 67 704 67 553 q 162 926 67 846 q 425 1006 257 1006 q 691 913 599 1006 q 783 656 783 821 l 783 331 q 692 71 783 161 q 425 -19 600 -19 q 81 193 163 -19 q 99 228 72 218 l 140 243 q 162 244 156 249 q 175 225 168 240 q 425 74 238 74 q 617 139 551 74 q 682 331 682 204 l 682 446 m 682 656 q 617 846 682 779 q 425 913 551 913 q 234 858 301 913 q 167 704 167 804 q 227 548 167 599 q 418 497 288 497 q 682 544 581 497 l 682 656 z "}," ":{"ha":328,"x_min":0,"x_max":0,"o":""},"!":{"ha":288,"x_min":85,"x_max":203,"o":"m 168 1028 q 193 1003 193 1028 l 181 258 q 156 233 181 233 l 131 233 q 106 258 107 233 l 94 1003 q 119 1028 94 1028 l 168 1028 m 147 111 q 191 99 179 111 q 203 56 203 88 l 203 47 q 190 4 203 17 q 147 -8 178 -8 l 139 -8 q 96 3 107 -8 q 85 47 85 15 l 85 56 q 96 99 85 88 q 139 111 107 111 l 147 111 z "},"\"":{"ha":410,"x_min":89,"x_max":329,"o":"m 163 681 q 157 663 161 667 q 138 658 153 658 l 113 658 q 93 663 97 658 q 89 681 89 667 l 89 964 q 94 982 89 978 q 113 986 99 986 l 151 986 q 172 982 167 986 q 175 964 176 978 l 163 681 m 315 681 q 310 663 314 667 q 292 658 306 658 l 265 658 q 247 663 251 658 q 243 681 243 667 l 243 964 q 247 982 243 978 q 265 986 251 986 l 306 986 q 325 981 319 986 q 329 964 331 976 l 315 681 z "},"#":{"ha":944,"x_min":49,"x_max":896,"o":"m 876 667 q 896 661 892 667 q 896 642 900 656 l 885 603 q 851 581 878 581 l 706 581 l 638 351 l 783 351 q 803 346 799 351 q 803 326 807 340 l 790 288 q 758 265 783 265 l 613 265 l 540 25 q 508 0 531 0 l 467 0 q 449 25 440 0 l 519 265 l 301 265 l 229 25 q 199 0 224 0 l 157 0 q 139 25 131 0 l 210 265 l 67 265 q 49 290 42 265 l 60 328 q 94 351 67 351 l 236 351 l 304 581 l 161 581 q 142 586 146 581 q 142 606 138 592 l 154 643 q 188 667 160 667 l 329 667 l 394 883 q 426 908 403 908 l 468 908 q 486 883 494 908 l 421 667 l 639 667 l 704 883 q 736 908 713 908 l 778 908 q 796 883 804 908 l 732 667 l 876 667 m 396 581 l 328 351 l 546 351 l 614 581 l 396 581 z "},"$":{"ha":819,"x_min":58,"x_max":757,"o":"m 428 1088 q 453 1063 453 1088 l 453 975 q 628 914 563 965 q 742 763 693 863 q 726 724 757 736 l 688 706 q 650 719 663 696 q 552 843 607 804 q 397 882 497 882 q 175 704 175 882 q 190 638 175 665 q 224 594 204 610 q 282 568 244 579 q 347 553 319 557 q 424 544 375 549 q 520 533 483 539 q 607 510 557 526 q 686 467 657 493 q 736 395 715 442 q 757 286 757 349 q 680 94 757 164 q 453 14 603 24 l 453 -76 q 428 -101 453 -101 l 385 -101 q 360 -76 360 -101 l 360 13 q 58 244 142 31 q 76 283 47 272 l 115 297 q 153 281 142 307 q 248 147 190 190 q 407 104 306 104 q 656 283 656 104 q 640 353 656 324 q 606 398 625 382 q 548 425 588 414 q 483 440 508 436 q 406 449 457 443 q 309 460 347 454 q 222 484 271 467 q 143 526 172 501 q 93 597 114 551 q 72 703 72 642 q 144 895 72 825 q 360 975 217 965 l 360 1063 q 385 1088 360 1088 l 428 1088 z "},"%":{"ha":1128,"x_min":50,"x_max":1078,"o":"m 50 803 q 107 953 50 899 q 269 1007 164 1007 q 433 953 376 1007 q 490 803 490 899 l 490 701 q 433 552 490 606 q 269 499 376 499 q 107 552 164 499 q 50 701 50 606 l 50 803 m 946 986 q 958 960 978 986 l 271 25 q 251 4 260 8 q 217 0 242 0 l 185 0 q 165 8 169 0 q 169 28 161 17 l 858 963 q 878 982 869 978 q 908 986 886 986 l 946 986 m 411 800 q 374 897 411 863 q 269 931 338 931 q 166 897 203 931 q 129 800 129 863 l 129 706 q 166 609 129 643 q 269 575 203 575 q 374 609 338 575 q 411 706 411 643 l 411 800 m 638 283 q 694 433 638 379 q 857 488 751 488 q 1021 433 964 488 q 1078 283 1078 379 l 1078 181 q 1021 33 1078 86 q 857 -21 964 -21 q 694 33 751 -21 q 638 181 638 86 l 638 283 m 997 279 q 961 376 997 342 q 857 411 925 411 q 753 376 789 411 q 717 279 717 342 l 717 186 q 753 89 717 124 q 857 54 789 54 q 961 89 925 54 q 997 186 997 124 l 997 279 z "},"&":{"ha":918,"x_min":58,"x_max":896,"o":"m 147 768 q 216 935 147 865 q 399 1006 285 1006 q 574 938 504 1006 q 644 774 644 869 q 592 622 644 679 q 424 513 540 564 l 411 507 l 660 264 l 756 357 q 789 357 772 374 l 821 324 q 819 294 835 310 l 721 199 l 896 25 q 885 0 921 0 l 826 0 q 788 15 801 0 l 660 140 q 485 13 556 44 q 332 -19 415 -19 q 137 58 215 -19 q 58 251 58 135 q 115 420 58 356 q 269 532 171 485 q 147 768 147 654 m 557 774 q 511 878 557 833 q 399 924 465 924 q 281 877 325 924 q 236 767 236 831 q 253 693 236 729 q 291 633 271 657 q 350 571 311 610 l 385 589 q 516 665 475 628 q 557 774 557 701 m 331 468 q 198 378 242 428 q 154 250 154 329 q 207 121 154 172 q 336 69 260 69 q 457 98 401 69 q 599 206 513 126 l 331 468 z "},"'":{"ha":256,"x_min":89,"x_max":175,"o":"m 163 681 q 157 663 161 667 q 138 658 153 658 l 113 658 q 93 663 97 658 q 89 681 89 667 l 89 964 q 94 982 89 978 q 113 986 99 986 l 151 986 q 172 982 167 986 q 175 964 176 978 l 163 681 z "},"(":{"ha":356,"x_min":83,"x_max":329,"o":"m 83 849 q 131 1049 83 974 q 278 1168 179 1124 q 311 1154 299 1178 l 329 1118 q 315 1085 338 1099 q 209 998 243 1050 q 175 854 175 946 l 175 132 q 209 -12 175 40 q 315 -99 243 -64 q 329 -132 339 -112 l 311 -168 q 278 -182 299 -192 q 131 -62 179 -137 q 83 138 83 13 l 83 849 z "},")":{"ha":356,"x_min":26,"x_max":272,"o":"m 44 1154 q 78 1168 57 1178 q 224 1049 176 1124 q 272 849 272 974 l 272 138 q 224 -62 272 13 q 78 -182 176 -137 q 44 -168 57 -192 l 26 -132 q 40 -99 18 -112 q 147 -12 113 -64 q 181 132 181 40 l 181 854 q 147 998 181 946 q 40 1085 113 1050 q 26 1118 18 1099 l 44 1154 z "},"*":{"ha":526,"x_min":79,"x_max":450,"o":"m 278 935 q 293 918 297 935 l 282 772 l 418 826 q 442 818 433 835 l 450 790 q 438 769 454 774 l 294 736 l 389 622 q 388 600 403 611 l 363 583 q 340 588 349 571 l 264 711 l 186 589 q 163 582 179 572 l 139 600 q 136 624 124 611 l 232 736 l 92 771 q 79 790 72 772 l 88 819 q 110 828 96 835 l 244 772 l 235 918 q 249 935 231 935 l 278 935 z "},"+":{"ha":788,"x_min":65,"x_max":721,"o":"m 694 499 q 721 471 721 499 l 721 438 q 715 417 721 422 q 694 411 710 411 l 438 411 l 438 154 q 431 133 438 139 q 410 126 425 126 l 376 126 q 355 133 361 126 q 349 154 349 139 l 349 411 l 93 411 q 72 417 78 411 q 65 438 65 422 l 65 471 q 72 492 65 486 q 93 499 78 499 l 349 499 l 349 754 q 355 776 349 769 q 376 782 361 782 l 410 782 q 431 776 425 782 q 438 754 438 769 l 438 499 l 694 499 z "},",":{"ha":251,"x_min":33,"x_max":178,"o":"m 99 -143 q 68 -168 92 -168 l 50 -168 q 33 -149 29 -168 l 81 82 q 90 106 82 100 q 115 113 97 113 l 151 113 q 178 82 190 113 l 99 -143 z "},"-":{"ha":586,"x_min":86,"x_max":500,"o":"m 472 414 q 494 408 488 414 q 500 386 500 401 l 500 351 q 494 330 500 336 q 472 324 488 324 l 113 324 q 86 351 86 324 l 86 386 q 113 414 86 414 l 472 414 z "},".":{"ha":258,"x_min":69,"x_max":188,"o":"m 133 111 q 176 99 165 111 q 188 56 188 88 l 188 47 q 176 3 188 15 q 133 -8 164 -8 l 125 -8 q 81 3 93 -8 q 69 47 69 15 l 69 56 q 81 99 69 88 q 125 111 93 111 l 133 111 z "},"/":{"ha":567,"x_min":46,"x_max":522,"o":"m 142 -60 q 108 -83 132 -83 l 63 -83 q 46 -60 38 -83 l 425 964 q 460 986 433 986 l 506 986 q 522 964 531 986 l 142 -60 z "},":":{"ha":290,"x_min":86,"x_max":204,"o":"m 149 675 q 192 663 181 675 q 204 621 204 651 l 204 611 q 192 569 204 581 q 149 557 181 557 l 140 557 q 97 569 108 557 q 86 611 86 581 l 86 621 q 97 664 86 653 q 140 675 108 675 l 149 675 m 149 111 q 192 99 181 111 q 204 56 204 88 l 204 47 q 192 4 204 17 q 149 -8 181 -8 l 140 -8 q 97 3 108 -8 q 86 47 86 15 l 86 56 q 97 99 86 88 q 140 111 108 111 l 149 111 z "},";":{"ha":329,"x_min":74,"x_max":238,"o":"m 182 675 q 226 663 214 675 q 238 621 238 651 l 238 611 q 226 569 238 581 q 182 557 214 557 l 174 557 q 131 569 142 557 q 119 611 119 581 l 119 621 q 131 664 119 653 q 174 675 142 675 l 182 675 m 140 -143 q 108 -168 132 -168 l 92 -168 q 76 -164 79 -168 q 74 -149 72 -160 l 121 82 q 131 106 124 100 q 157 113 139 113 l 193 113 q 219 82 229 113 l 140 -143 z "},"<":{"ha":690,"x_min":50,"x_max":606,"o":"m 575 774 q 606 753 606 789 l 606 717 q 601 688 606 696 q 578 671 596 679 l 169 457 l 169 453 l 578 238 q 601 222 596 229 q 606 192 606 214 l 606 153 q 575 132 606 117 l 72 404 q 50 440 50 417 l 50 465 q 72 501 50 489 l 575 774 z "},"=":{"ha":831,"x_min":88,"x_max":743,"o":"m 715 636 q 743 610 743 636 l 743 574 q 737 552 743 558 q 715 546 731 546 l 114 546 q 88 574 88 546 l 88 610 q 114 636 88 636 l 715 636 m 715 363 q 737 356 731 363 q 743 335 743 350 l 743 299 q 737 277 743 283 q 715 271 731 271 l 114 271 q 88 299 88 271 l 88 335 q 114 363 88 363 l 715 363 z "},">":{"ha":690,"x_min":85,"x_max":640,"o":"m 85 753 q 115 774 85 790 l 617 501 q 640 467 640 489 l 640 440 q 617 404 640 417 l 115 133 q 85 153 85 117 l 85 189 q 90 219 85 211 q 111 235 94 226 l 521 450 l 521 454 l 113 668 q 90 684 94 676 q 85 714 85 692 l 85 753 z "},"?":{"ha":775,"x_min":44,"x_max":728,"o":"m 44 799 q 397 1028 135 1028 q 639 946 550 1028 q 728 742 728 864 q 712 626 728 676 q 662 538 696 575 q 604 482 628 500 q 535 435 581 464 q 519 425 524 428 q 427 345 458 385 q 396 242 396 306 q 390 221 396 226 q 369 215 385 215 l 338 215 q 317 221 322 215 q 311 242 311 226 q 350 389 311 336 q 463 490 389 442 q 526 534 507 519 q 574 579 544 549 q 617 649 604 610 q 629 738 629 688 q 567 881 629 825 q 394 938 504 938 q 136 767 204 938 q 123 748 129 751 q 101 750 117 744 l 61 763 q 44 799 35 772 m 358 111 q 401 99 390 111 q 413 56 413 88 l 413 47 q 401 3 413 15 q 358 -8 389 -8 l 350 -8 q 306 3 318 -8 q 294 47 294 15 l 294 56 q 306 99 294 88 q 350 111 318 111 l 358 111 z "},"@":{"ha":1251,"x_min":67,"x_max":1179,"o":"m 67 456 q 213 858 67 710 q 622 1006 360 1006 q 1035 857 890 1006 q 1179 456 1179 708 l 1179 356 q 1110 139 1179 215 q 939 63 1040 63 q 877 76 899 63 q 840 119 856 89 q 586 69 721 69 q 406 129 465 69 q 346 299 346 189 l 346 511 q 406 681 346 621 q 586 740 465 740 q 833 699 735 740 q 871 674 861 688 q 881 633 881 661 l 881 189 q 939 133 881 133 q 1056 188 1008 133 q 1104 354 1104 243 l 1104 456 q 979 809 1104 679 q 622 939 854 939 q 269 810 396 939 q 142 456 142 682 l 142 354 q 267 6 142 128 q 622 -115 393 -115 q 921 -78 743 -115 q 936 -87 936 -74 l 936 -125 q 921 -146 936 -142 q 622 -183 790 -183 q 212 -42 357 -183 q 67 356 67 99 l 67 456 m 776 640 q 596 667 700 667 q 426 508 426 667 l 426 300 q 596 144 426 144 q 800 188 714 144 l 800 607 q 776 640 800 629 z "},"A":{"ha":890,"x_min":17,"x_max":874,"o":"m 874 26 q 854 0 885 0 l 814 0 q 764 25 771 0 l 660 289 l 225 289 l 121 25 q 107 5 117 10 q 72 0 97 0 l 35 0 q 17 26 6 0 l 389 967 q 424 990 397 990 l 465 990 q 501 968 493 990 l 874 26 m 465 799 q 446 894 446 854 l 439 894 q 422 799 439 850 l 254 372 l 632 372 l 465 799 z "},"B":{"ha":893,"x_min":108,"x_max":831,"o":"m 528 986 q 726 921 656 986 q 796 733 796 856 q 665 511 796 568 l 665 508 q 831 265 831 465 q 753 69 831 139 q 543 0 675 0 l 136 0 q 115 6 121 0 q 108 28 108 13 l 108 958 q 115 980 108 974 q 136 986 121 986 l 528 986 m 693 721 q 515 892 693 892 l 208 892 l 208 547 l 515 547 q 647 591 601 547 q 693 721 693 635 m 677 140 q 701 163 677 140 q 725 275 725 186 q 677 410 725 364 q 539 457 629 457 l 208 457 l 208 94 l 539 94 q 677 140 629 94 z "},"C":{"ha":883,"x_min":79,"x_max":832,"o":"m 79 657 q 177 913 79 821 q 460 1006 275 1006 q 703 947 615 1006 q 829 768 792 888 q 831 745 835 753 q 813 732 828 738 l 769 717 q 733 733 743 710 q 641 869 704 826 q 460 913 578 913 q 252 846 324 913 q 181 658 181 779 l 181 328 q 253 141 181 208 q 460 74 325 74 q 643 118 579 74 q 736 257 707 163 q 772 275 747 282 l 815 258 q 832 224 840 249 q 706 42 794 103 q 460 -19 617 -19 q 178 73 278 -19 q 79 329 79 165 l 79 657 z "},"D":{"ha":907,"x_min":108,"x_max":832,"o":"m 429 986 q 726 888 621 986 q 832 619 832 790 l 832 367 q 726 98 832 196 q 429 0 621 0 l 136 0 q 115 6 121 0 q 108 28 108 13 l 108 958 q 115 980 108 974 q 136 986 121 986 l 429 986 m 731 619 q 653 821 731 750 q 429 892 575 892 l 208 892 l 208 94 l 429 94 q 653 165 575 94 q 731 367 731 236 l 731 619 z "},"E":{"ha":796,"x_min":108,"x_max":743,"o":"m 699 986 q 725 958 725 986 l 725 919 q 699 892 725 892 l 208 892 l 208 547 l 636 547 q 663 519 663 547 l 663 481 q 636 453 663 453 l 208 453 l 208 94 l 717 94 q 743 67 743 94 l 743 28 q 717 0 743 0 l 136 0 q 115 6 121 0 q 108 28 108 13 l 108 958 q 115 980 108 974 q 136 986 121 986 l 699 986 z "},"F":{"ha":771,"x_min":108,"x_max":725,"o":"m 699 986 q 725 958 725 986 l 725 919 q 699 892 725 892 l 208 892 l 208 532 l 631 532 q 651 526 646 532 q 657 506 657 521 l 657 467 q 631 439 657 439 l 208 439 l 208 28 q 203 6 208 13 q 182 0 197 0 l 136 0 q 115 6 121 0 q 108 28 108 13 l 108 958 q 115 980 108 974 q 136 986 121 986 l 699 986 z "},"G":{"ha":910,"x_min":79,"x_max":842,"o":"m 814 511 q 835 505 829 511 q 842 483 842 499 l 842 313 q 742 70 842 160 q 461 -19 643 -19 q 178 74 276 -19 q 79 331 79 167 l 79 657 q 177 913 79 821 q 460 1006 275 1006 q 703 947 615 1006 q 829 768 792 888 q 831 745 835 753 q 813 732 828 738 l 769 717 q 733 733 743 710 q 641 869 704 826 q 460 913 578 913 q 251 846 322 913 q 179 658 179 779 l 179 331 q 252 141 179 208 q 461 74 325 74 q 669 138 596 74 q 743 313 743 203 l 743 417 l 475 417 q 453 423 460 417 q 447 444 447 429 l 447 483 q 453 505 447 499 q 475 511 460 511 l 814 511 z "},"H":{"ha":946,"x_min":108,"x_max":838,"o":"m 811 986 q 838 958 838 986 l 838 28 q 811 0 838 0 l 765 0 q 744 6 750 0 q 738 28 738 13 l 738 453 l 208 453 l 208 28 q 203 6 208 13 q 182 0 197 0 l 136 0 q 115 6 121 0 q 108 28 108 13 l 108 958 q 115 980 108 974 q 136 986 121 986 l 182 986 q 203 980 197 986 q 208 958 208 974 l 208 547 l 738 547 l 738 958 q 744 980 738 974 q 765 986 750 986 l 811 986 z "},"I":{"ha":317,"x_min":108,"x_max":208,"o":"m 108 958 q 115 980 108 974 q 136 986 121 986 l 182 986 q 203 980 197 986 q 208 958 208 974 l 208 28 q 203 6 208 13 q 182 0 197 0 l 136 0 q 115 6 121 0 q 108 28 108 13 l 108 958 z "},"J":{"ha":792,"x_min":28,"x_max":692,"o":"m 664 986 q 692 960 692 986 l 692 310 q 604 67 692 154 q 356 -21 517 -21 q 28 239 90 -21 q 44 275 18 265 l 89 290 q 124 272 114 300 q 201 124 146 174 q 356 74 256 74 q 530 135 469 74 q 590 308 590 197 l 590 960 q 596 981 590 975 q 617 986 601 986 l 664 986 z "},"K":{"ha":846,"x_min":108,"x_max":818,"o":"m 818 28 q 803 0 833 0 l 758 0 q 722 5 732 0 q 703 25 711 10 l 549 333 q 473 427 515 400 q 350 454 431 454 l 208 454 l 208 28 q 203 6 208 13 q 182 0 197 0 l 136 0 q 115 6 121 0 q 108 28 108 13 l 108 958 q 115 980 108 974 q 136 986 121 986 l 182 986 q 203 980 197 986 q 208 958 208 974 l 208 546 l 342 546 l 372 546 l 683 963 q 739 986 701 986 l 789 986 q 808 978 804 986 q 803 960 811 969 l 474 526 q 642 371 578 497 l 818 28 z "},"L":{"ha":724,"x_min":108,"x_max":706,"o":"m 182 986 q 203 980 197 986 q 208 958 208 974 l 208 94 l 679 94 q 706 67 706 94 l 706 28 q 679 0 706 0 l 136 0 q 115 6 121 0 q 108 28 108 13 l 108 958 q 115 980 108 974 q 136 986 121 986 l 182 986 z "},"M":{"ha":1111,"x_min":108,"x_max":1004,"o":"m 976 986 q 998 980 992 986 q 1004 958 1004 974 l 1004 28 q 998 6 1004 13 q 976 0 992 0 l 935 0 q 913 6 919 0 q 907 28 907 13 l 908 594 q 925 840 908 722 l 919 840 q 813 624 875 735 l 601 251 q 569 231 592 231 l 542 231 q 508 251 519 231 l 294 628 q 193 842 243 715 l 188 842 q 203 593 203 715 l 203 28 q 197 6 203 13 q 175 0 190 0 l 136 0 q 115 6 121 0 q 108 28 108 13 l 108 958 q 115 980 108 974 q 136 986 121 986 l 172 986 q 211 964 199 986 l 556 354 l 897 963 q 913 982 906 978 q 936 986 919 986 l 976 986 z "},"N":{"ha":960,"x_min":108,"x_max":851,"o":"m 824 986 q 845 980 839 986 q 851 958 851 974 l 851 28 q 845 6 851 13 q 824 0 839 0 l 779 0 q 750 15 758 0 l 307 651 q 240 767 278 694 q 196 850 203 840 l 190 850 q 198 751 190 839 q 206 604 206 664 l 206 28 q 179 0 206 0 l 136 0 q 115 6 121 0 q 108 28 108 13 l 108 958 q 115 980 108 974 q 136 986 121 986 l 181 986 q 210 972 200 986 l 642 349 q 715 228 674 303 q 765 139 756 153 l 769 139 q 761 244 769 153 q 753 397 753 335 l 753 960 q 781 986 753 986 l 824 986 z "},"O":{"ha":921,"x_min":79,"x_max":842,"o":"m 79 657 q 178 913 79 821 q 461 1006 276 1006 q 743 913 644 1006 q 842 657 842 821 l 842 329 q 743 73 842 165 q 461 -19 644 -19 q 178 73 276 -19 q 79 329 79 165 l 79 657 m 742 657 q 669 846 742 779 q 461 913 597 913 q 252 846 325 913 q 179 657 179 779 l 179 329 q 252 140 179 207 q 461 74 325 74 q 669 140 597 74 q 742 329 742 207 l 742 657 z "},"P":{"ha":864,"x_min":108,"x_max":821,"o":"m 507 986 q 737 904 653 986 q 821 678 821 822 q 737 452 821 533 q 507 371 653 371 l 208 371 l 208 28 q 203 6 208 13 q 182 0 197 0 l 136 0 q 115 6 121 0 q 108 28 108 13 l 108 958 q 115 980 108 974 q 136 986 121 986 l 507 986 m 499 464 q 658 521 600 464 q 717 678 717 578 q 658 835 717 778 q 499 892 600 892 l 208 892 l 208 464 l 499 464 z "},"Q":{"ha":938,"x_min":79,"x_max":857,"o":"m 857 -21 q 854 -60 874 -42 l 824 -85 q 785 -82 803 -104 l 685 36 q 461 -19 600 -19 q 178 73 276 -19 q 79 329 79 165 l 79 657 q 178 913 79 821 q 461 1006 276 1006 q 743 913 644 1006 q 842 657 842 821 l 842 329 q 761 92 842 183 l 857 -21 m 179 329 q 252 140 179 207 q 461 74 325 74 q 669 140 597 74 q 742 329 742 207 l 742 657 q 669 846 742 779 q 461 913 597 913 q 252 846 325 913 q 179 657 179 779 l 179 329 z "},"R":{"ha":894,"x_min":108,"x_max":843,"o":"m 529 986 q 744 910 667 986 q 821 699 821 835 q 762 514 821 585 q 597 426 703 443 q 688 331 651 401 l 843 28 q 829 0 861 0 l 783 0 q 729 25 740 0 l 594 293 q 519 387 561 360 q 396 414 476 414 l 208 414 l 208 28 q 203 6 208 13 q 182 0 197 0 l 136 0 q 115 6 121 0 q 108 28 108 13 l 108 958 q 115 980 108 974 q 136 986 121 986 l 529 986 m 717 699 q 665 842 717 792 q 519 892 614 892 l 208 892 l 208 508 l 519 508 q 665 558 613 508 q 717 699 717 607 z "},"S":{"ha":869,"x_min":57,"x_max":811,"o":"m 72 721 q 167 928 72 851 q 431 1006 261 1006 q 657 954 572 1006 q 796 792 742 903 q 781 756 808 768 l 738 736 q 717 733 724 731 q 701 749 710 735 q 597 871 660 832 q 431 910 533 910 q 241 863 307 910 q 175 726 175 815 q 192 654 175 685 q 233 606 208 624 q 299 574 257 588 q 375 556 342 561 q 463 544 408 550 q 564 530 524 538 q 656 503 604 522 q 738 458 707 485 q 790 383 768 431 q 811 272 811 336 q 714 58 811 135 q 433 -19 617 -19 q 195 39 285 -19 q 57 219 106 97 q 74 257 49 246 l 117 272 q 153 256 140 281 q 433 75 229 75 q 710 269 710 75 q 694 341 710 311 q 656 389 678 371 q 594 419 633 407 q 522 437 554 432 q 439 447 490 442 q 333 461 374 454 q 238 487 293 468 q 150 533 182 506 q 95 608 118 560 q 72 721 72 656 z "},"T":{"ha":754,"x_min":18,"x_max":736,"o":"m 708 986 q 730 980 724 986 q 736 958 736 974 l 736 919 q 730 898 736 904 q 708 892 724 892 l 428 892 l 428 28 q 422 6 428 13 q 400 0 415 0 l 354 0 q 333 6 339 0 q 326 28 326 13 l 326 892 l 46 892 q 24 898 31 892 q 18 919 18 904 l 18 958 q 24 980 18 974 q 46 986 31 986 l 708 986 z "},"U":{"ha":947,"x_min":100,"x_max":847,"o":"m 201 335 q 270 142 201 211 q 474 74 339 74 q 677 142 608 74 q 746 335 746 211 l 746 958 q 752 980 746 974 q 774 986 758 986 l 819 986 q 841 980 835 986 q 847 958 847 974 l 847 336 q 751 74 847 169 q 474 -21 656 -21 q 196 74 292 -21 q 100 336 100 169 l 100 958 q 106 980 100 974 q 128 986 113 986 l 174 986 q 195 980 189 986 q 201 958 201 974 l 201 335 z "},"V":{"ha":864,"x_min":18,"x_max":847,"o":"m 829 986 q 847 960 856 986 l 489 24 q 453 0 479 0 l 411 0 q 375 22 385 0 l 18 960 q 36 986 7 986 l 76 986 q 126 961 118 986 l 399 232 q 418 167 407 207 q 432 121 429 126 l 436 121 q 449 167 439 126 q 468 232 460 207 l 740 961 q 789 986 747 986 l 829 986 z "},"W":{"ha":1224,"x_min":32,"x_max":1190,"o":"m 1172 986 q 1190 960 1199 986 l 943 24 q 907 0 936 0 l 864 0 q 828 22 833 0 l 643 694 q 615 831 628 753 l 610 831 q 582 696 603 774 l 394 24 q 360 0 388 0 l 315 0 q 281 22 286 0 l 32 960 q 50 986 26 986 l 106 986 q 131 981 124 986 q 143 961 139 976 l 313 290 q 327 207 318 265 q 338 142 336 149 l 343 142 q 372 290 363 257 l 557 946 q 594 971 564 971 l 638 971 q 675 946 668 971 l 857 289 q 888 142 867 256 l 893 142 q 918 288 908 242 l 1088 961 q 1098 981 1090 976 q 1124 986 1106 986 l 1172 986 z "},"X":{"ha":857,"x_min":19,"x_max":839,"o":"m 833 29 q 839 9 842 18 q 819 0 836 0 l 764 0 q 729 4 739 0 q 711 25 719 8 l 425 424 l 143 25 q 124 4 133 8 q 90 0 114 0 l 38 0 q 19 9 22 0 q 25 29 17 18 l 364 501 l 35 960 q 31 978 28 969 q 49 986 35 986 l 104 986 q 136 982 126 986 q 157 963 146 978 l 429 581 l 703 963 q 722 982 713 978 q 753 986 731 986 l 808 986 q 826 978 822 986 q 822 960 829 969 l 492 501 l 833 29 z "},"Y":{"ha":871,"x_min":18,"x_max":853,"o":"m 835 986 q 853 978 849 986 q 849 958 857 969 l 486 400 l 486 28 q 480 6 486 13 q 458 0 474 0 l 413 0 q 391 6 397 0 q 385 28 385 13 l 385 401 l 22 958 q 18 978 14 969 q 36 986 22 986 l 93 986 q 128 982 118 986 q 146 961 138 978 l 436 504 l 729 961 q 747 982 738 978 q 782 986 757 986 l 835 986 z "},"Z":{"ha":786,"x_min":46,"x_max":744,"o":"m 703 986 q 724 980 718 986 q 731 958 731 974 l 731 921 q 721 890 731 904 l 171 94 l 717 94 q 744 68 744 94 l 744 28 q 738 6 744 13 q 717 0 732 0 l 72 0 q 46 28 46 0 l 46 65 q 56 97 46 86 l 604 892 l 79 892 q 58 898 64 892 q 51 919 51 904 l 51 958 q 58 980 51 974 q 79 986 64 986 l 703 986 z "},"[":{"ha":378,"x_min":93,"x_max":356,"o":"m 332 1189 q 351 1184 347 1189 q 356 1164 356 1179 l 356 1129 q 351 1109 356 1114 q 332 1104 347 1104 l 183 1104 l 183 -118 l 332 -118 q 351 -123 347 -118 q 356 -142 356 -128 l 356 -178 q 351 -198 356 -193 q 332 -203 347 -203 l 118 -203 q 98 -198 103 -203 q 93 -178 93 -193 l 93 1164 q 98 1184 93 1179 q 118 1189 103 1189 l 332 1189 z "},"\\":{"ha":567,"x_min":44,"x_max":522,"o":"m 44 963 q 61 986 36 986 l 108 986 q 142 963 132 986 l 522 -60 q 506 -83 531 -83 l 458 -83 q 425 -60 435 -83 l 44 963 z "},"]":{"ha":378,"x_min":22,"x_max":285,"o":"m 260 1189 q 280 1184 275 1189 q 285 1164 285 1179 l 285 -178 q 280 -198 285 -193 q 260 -203 275 -203 l 47 -203 q 27 -198 32 -203 q 22 -178 22 -193 l 22 -142 q 27 -122 22 -126 q 47 -118 32 -118 l 194 -118 l 194 1104 l 47 1104 q 27 1109 32 1104 q 22 1129 22 1114 l 22 1164 q 27 1184 22 1179 q 47 1189 32 1189 l 260 1189 z "},"^":{"ha":822,"x_min":75,"x_max":746,"o":"m 422 1125 q 429 1124 426 1125 q 434 1124 432 1124 q 438 1122 436 1124 q 442 1120 440 1121 q 445 1117 443 1119 q 449 1113 447 1114 q 453 1108 450 1111 q 457 1103 456 1104 l 746 753 q 732 722 772 722 l 690 722 q 660 726 668 722 q 640 744 651 729 l 411 1029 l 406 1029 l 178 744 q 158 726 167 729 q 128 722 150 722 l 89 722 q 75 753 51 722 l 361 1103 q 396 1125 379 1125 l 422 1125 z "},"_":{"ha":703,"x_min":38,"x_max":665,"o":"m 638 0 q 659 -6 653 0 q 665 -28 665 -12 l 665 -62 q 659 -84 665 -78 q 638 -90 653 -90 l 64 -90 q 38 -62 38 -90 l 38 -28 q 64 0 38 0 l 638 0 z "},"`":{"ha":357,"x_min":25,"x_max":329,"o":"m 56 1006 q 101 1007 71 1025 l 326 868 q 329 840 343 858 l 315 824 q 283 822 306 813 l 39 951 q 27 958 31 954 q 26 967 24 963 q 35 981 28 972 l 56 1006 z "},"a":{"ha":711,"x_min":51,"x_max":632,"o":"m 75 589 q 354 735 153 735 q 570 660 508 735 q 632 460 632 586 l 632 96 q 622 44 632 60 q 582 17 611 29 q 351 -19 499 -19 q 115 33 179 -19 q 51 196 51 85 q 122 363 51 314 q 357 411 192 411 q 539 397 414 411 l 539 461 q 498 601 539 551 q 351 651 457 651 q 157 550 214 651 q 122 539 142 529 l 89 553 q 75 589 63 563 m 539 321 q 347 333 414 333 q 192 301 238 333 q 147 197 147 269 q 188 92 147 126 q 344 58 229 58 q 513 81 450 58 q 534 94 529 88 q 539 121 539 101 l 539 321 z "},"b":{"ha":746,"x_min":89,"x_max":676,"o":"m 158 1028 q 183 1003 183 1028 l 183 692 q 403 735 313 735 q 676 463 676 735 l 676 265 q 378 -19 676 -19 q 143 22 235 -19 q 99 51 110 38 q 89 99 89 65 l 89 1003 q 114 1028 89 1028 l 158 1028 m 583 460 q 390 649 583 649 q 183 604 290 649 l 183 129 q 188 106 183 113 q 208 93 192 100 q 371 65 276 65 q 583 267 583 65 l 583 460 z "},"c":{"ha":715,"x_min":68,"x_max":664,"o":"m 68 461 q 144 663 68 590 q 371 735 221 735 q 661 547 604 735 q 644 511 669 521 l 608 499 q 574 515 583 490 q 503 619 551 586 q 368 651 456 651 q 214 602 267 651 q 161 464 161 553 l 161 251 q 215 113 161 163 q 368 63 268 63 q 575 206 531 63 q 611 222 585 229 l 647 211 q 664 175 674 201 q 365 -19 600 -19 q 144 53 219 -19 q 68 254 68 125 l 68 461 z "},"d":{"ha":746,"x_min":69,"x_max":656,"o":"m 69 457 q 138 663 69 590 q 343 735 206 735 q 563 694 446 735 l 563 1003 q 588 1028 563 1028 l 631 1028 q 650 1022 644 1028 q 656 1003 656 1017 l 656 97 q 645 50 656 64 q 601 22 635 36 q 361 -19 503 -19 q 69 258 69 -19 l 69 457 m 563 607 q 360 649 456 649 q 163 454 163 649 l 163 260 q 369 65 163 65 q 536 92 463 65 q 558 105 553 99 q 563 128 563 111 l 563 607 z "},"e":{"ha":736,"x_min":65,"x_max":681,"o":"m 65 442 q 144 658 65 581 q 372 735 222 735 q 602 656 524 735 q 681 447 681 578 l 681 371 q 639 332 681 332 l 158 332 l 158 251 q 212 111 158 161 q 367 61 265 61 q 585 176 521 61 q 625 186 601 199 l 654 171 q 664 131 681 157 q 367 -19 581 -19 q 140 56 215 -19 q 65 261 65 131 l 65 442 m 588 453 q 533 601 588 547 q 372 654 478 654 q 213 601 268 654 q 158 453 158 547 l 158 404 l 588 404 l 588 453 z "},"f":{"ha":490,"x_min":11,"x_max":479,"o":"m 451 1028 q 472 1022 467 1028 q 476 1003 476 1017 l 476 967 q 451 940 476 940 q 295 900 338 940 q 253 749 253 860 l 253 714 l 454 714 q 474 708 469 714 q 479 689 479 703 l 479 653 q 454 628 479 628 l 253 628 l 253 25 q 247 6 253 11 q 228 0 242 0 l 185 0 q 160 25 160 0 l 160 628 l 36 628 q 11 653 11 628 l 11 689 q 17 708 11 703 q 36 714 22 714 l 160 714 l 160 749 q 225 961 160 897 q 440 1028 290 1025 l 451 1028 z "},"g":{"ha":744,"x_min":68,"x_max":656,"o":"m 68 450 q 368 735 68 735 q 603 693 503 735 q 646 665 636 678 q 656 617 656 651 l 656 -43 q 363 -343 656 -343 q 88 -194 168 -343 q 97 -153 69 -168 l 128 -137 q 168 -147 153 -124 q 360 -258 228 -258 q 563 -47 563 -258 l 563 39 q 343 -3 450 -3 q 68 268 68 -3 l 68 450 m 536 622 q 374 649 465 649 q 163 449 163 649 l 163 271 q 354 83 163 83 q 563 124 456 83 l 563 586 q 558 609 563 603 q 536 622 554 615 z "},"h":{"ha":765,"x_min":93,"x_max":681,"o":"m 161 1028 q 181 1022 175 1028 q 186 1003 186 1017 l 186 696 q 404 735 272 735 q 681 463 681 735 l 681 25 q 656 0 681 0 l 611 0 q 586 25 586 0 l 586 460 q 392 649 586 649 q 186 608 267 649 l 186 25 q 181 6 186 11 q 161 0 175 0 l 118 0 q 98 6 103 0 q 93 25 93 11 l 93 1003 q 98 1022 93 1017 q 118 1028 103 1028 l 161 1028 z "},"i":{"ha":278,"x_min":83,"x_max":194,"o":"m 143 969 q 183 958 172 969 q 194 918 194 947 l 194 908 q 183 868 194 879 q 143 857 172 857 l 135 857 q 94 868 106 857 q 83 908 83 879 l 83 918 q 94 958 83 947 q 135 969 106 969 l 143 969 m 161 714 q 186 689 186 714 l 186 25 q 161 0 186 0 l 117 0 q 92 25 92 0 l 92 689 q 117 714 92 714 l 161 714 z "},"j":{"ha":279,"x_min":-128,"x_max":196,"o":"m 143 969 q 185 958 174 969 q 196 918 196 947 l 196 908 q 185 868 196 879 q 143 857 174 857 l 136 857 q 94 868 106 857 q 83 908 83 879 l 83 918 q 94 958 83 947 q 136 969 106 969 l 143 969 m 161 714 q 181 708 175 714 q 186 689 186 703 l 186 -12 q 118 -242 186 -164 q -103 -319 50 -319 q -122 -314 -117 -319 q -128 -294 -128 -308 l -128 -258 q -103 -232 -128 -232 q 49 -177 6 -232 q 93 -11 93 -122 l 93 689 q 98 708 93 703 q 118 714 103 714 l 161 714 z "},"k":{"ha":704,"x_min":93,"x_max":676,"o":"m 671 29 q 676 7 679 14 q 656 0 672 0 l 614 0 q 585 4 593 0 q 571 22 578 8 l 465 239 q 413 303 444 283 q 331 324 382 324 l 186 324 l 186 26 q 181 6 186 11 q 160 0 175 0 l 119 0 q 99 6 104 0 q 93 26 93 11 l 93 1003 q 99 1023 93 1018 q 119 1028 104 1028 l 160 1028 q 181 1023 175 1028 q 186 1003 186 1018 l 186 410 l 319 410 l 332 410 l 556 694 q 574 711 565 708 q 604 714 582 714 l 643 714 q 660 685 681 714 l 425 392 q 546 279 500 372 l 671 29 z "},"l":{"ha":288,"x_min":97,"x_max":190,"o":"m 190 25 q 185 6 190 11 q 165 0 181 0 l 122 0 q 103 6 108 0 q 97 25 97 11 l 97 1003 q 103 1022 97 1017 q 122 1028 108 1028 l 165 1028 q 185 1022 181 1028 q 190 1003 190 1017 l 190 25 z "},"m":{"ha":1135,"x_min":89,"x_max":1049,"o":"m 543 675 q 794 735 675 735 q 1049 471 1049 735 l 1049 25 q 1044 6 1049 11 q 1024 0 1039 0 l 981 0 q 961 6 967 0 q 956 25 956 11 l 956 467 q 783 649 956 649 q 594 601 685 649 q 621 471 621 550 l 621 25 q 616 6 621 11 q 596 0 611 0 l 553 0 q 533 6 539 0 q 528 25 528 11 l 528 467 q 351 649 528 649 q 206 621 269 649 q 183 583 183 611 l 183 25 q 158 0 183 0 l 114 0 q 89 25 89 0 l 89 611 q 100 660 89 643 q 142 690 111 676 q 364 735 242 735 q 543 675 481 735 z "},"n":{"ha":763,"x_min":89,"x_max":676,"o":"m 142 688 q 400 735 257 735 q 676 463 676 735 l 676 25 q 651 0 676 0 l 608 0 q 589 6 594 0 q 583 25 583 11 l 583 460 q 389 649 583 649 q 204 618 290 649 q 183 583 183 608 l 183 25 q 158 0 183 0 l 114 0 q 89 25 89 0 l 89 611 q 99 658 89 643 q 142 688 110 674 z "},"o":{"ha":749,"x_min":69,"x_max":681,"o":"m 69 479 q 151 667 69 599 q 374 735 232 735 q 599 667 517 735 q 681 479 681 599 l 681 235 q 599 48 681 115 q 374 -19 517 -19 q 151 49 232 -19 q 69 235 69 117 l 69 479 m 586 479 q 529 604 586 558 q 374 650 472 650 q 219 604 276 650 q 163 479 163 558 l 163 235 q 220 110 163 156 q 374 65 278 65 q 529 110 472 65 q 586 235 586 156 l 586 479 z "},"p":{"ha":746,"x_min":89,"x_max":676,"o":"m 144 694 q 388 735 246 735 q 676 457 676 735 l 676 257 q 392 -19 676 -19 q 183 28 301 -19 l 183 -281 q 158 -306 183 -306 l 114 -306 q 89 -281 89 -306 l 89 617 q 100 666 89 651 q 144 694 111 681 m 583 454 q 376 649 583 649 q 210 622 283 649 q 188 608 192 615 q 183 585 183 601 l 183 114 q 385 65 285 65 q 583 260 583 65 l 583 454 z "},"q":{"ha":746,"x_min":69,"x_max":656,"o":"m 368 735 q 603 693 506 735 q 646 665 636 678 q 656 617 656 651 l 656 -281 q 650 -300 656 -294 q 631 -306 644 -306 l 588 -306 q 563 -281 563 -306 l 563 29 q 343 -19 443 -19 q 69 251 69 -19 l 69 450 q 368 735 69 735 m 163 253 q 356 65 163 65 q 563 114 457 65 l 563 585 q 558 608 563 601 q 535 622 553 615 q 374 649 464 649 q 163 449 163 649 l 163 253 z "},"r":{"ha":475,"x_min":89,"x_max":461,"o":"m 393 735 l 436 735 q 461 710 461 735 l 461 674 q 436 649 461 649 l 390 649 q 207 619 286 649 q 183 583 183 610 l 183 25 q 158 0 183 0 l 114 0 q 89 25 89 0 l 89 614 q 100 662 89 646 q 142 692 111 678 q 393 735 247 732 z "},"s":{"ha":689,"x_min":53,"x_max":638,"o":"m 64 526 q 134 679 64 624 q 338 735 204 735 q 621 583 554 735 q 608 547 635 558 l 574 532 q 539 544 551 522 q 470 624 515 597 q 339 650 425 650 q 157 529 157 650 q 168 474 157 497 q 194 439 179 451 q 241 418 210 426 q 297 406 272 410 q 367 399 321 403 q 474 383 431 393 q 557 351 517 372 q 617 290 597 329 q 638 193 638 251 q 565 37 638 93 q 353 -19 493 -19 q 53 153 119 -19 q 68 186 42 178 l 104 199 q 138 183 126 206 q 350 63 183 63 q 546 189 546 63 q 498 281 546 257 q 344 317 450 306 q 260 327 292 322 q 187 346 229 332 q 121 381 144 360 q 81 438 97 401 q 64 526 64 475 z "},"t":{"ha":499,"x_min":7,"x_max":483,"o":"m 232 881 q 252 875 247 881 q 257 856 257 869 l 257 714 l 458 714 q 483 689 483 714 l 483 653 q 458 628 483 628 l 257 628 l 257 267 q 298 108 257 146 q 456 69 339 69 q 481 43 481 69 l 481 6 q 475 -14 481 -8 q 456 -19 469 -19 q 228 38 293 -22 q 164 264 164 99 l 164 628 l 32 628 q 7 653 7 628 l 7 689 q 32 714 7 714 l 164 714 l 164 856 q 189 881 164 881 l 232 881 z "},"u":{"ha":763,"x_min":86,"x_max":674,"o":"m 649 714 q 674 689 674 714 l 674 103 q 663 56 674 71 q 621 26 653 40 q 361 -19 510 -19 q 86 251 86 -19 l 86 689 q 92 708 86 703 q 111 714 97 714 l 154 714 q 174 708 169 714 q 179 689 179 703 l 179 256 q 374 65 179 65 q 554 96 478 65 q 579 135 579 107 l 579 689 q 604 714 579 714 l 649 714 z "},"v":{"ha":700,"x_min":21,"x_max":679,"o":"m 657 714 q 679 708 675 714 q 676 686 683 703 l 399 19 q 364 -4 388 -4 l 338 -4 q 301 19 311 -4 l 24 685 q 21 708 17 703 q 44 714 25 714 l 76 714 q 106 709 99 714 q 119 689 114 704 l 310 231 q 333 159 319 203 q 349 110 346 115 l 353 110 q 368 159 356 117 q 390 229 381 201 l 579 689 q 593 709 585 704 q 624 714 601 714 l 657 714 z "},"w":{"ha":1015,"x_min":32,"x_max":983,"o":"m 961 714 q 983 708 979 714 q 982 685 988 701 l 776 18 q 743 -4 771 -4 l 714 -4 q 679 18 686 -4 l 536 472 q 519 543 528 501 q 508 590 510 585 l 504 590 q 493 542 501 583 q 476 472 485 500 l 333 18 q 300 -4 326 -4 l 271 -4 q 238 18 244 -4 l 33 685 q 32 708 28 701 q 54 714 36 714 l 86 714 q 117 709 108 714 q 129 689 126 704 l 256 258 q 273 177 263 231 q 286 114 283 124 l 290 114 q 305 176 293 122 q 325 260 317 231 l 458 674 q 469 694 463 689 q 499 699 476 699 l 519 699 q 547 694 540 699 q 560 674 554 689 l 692 264 q 713 178 701 232 q 728 114 725 124 l 732 114 q 744 175 735 122 q 764 261 754 228 l 889 689 q 901 710 893 706 q 933 714 910 714 l 961 714 z "},"x":{"ha":676,"x_min":29,"x_max":650,"o":"m 618 714 q 635 686 654 714 l 397 367 l 650 28 q 632 0 669 0 l 590 0 q 546 21 560 0 l 338 300 l 131 21 q 86 0 118 0 l 47 0 q 29 28 8 0 l 282 367 l 40 686 q 60 714 22 714 l 99 714 q 144 693 131 714 l 339 435 l 533 693 q 550 710 543 707 q 576 714 557 714 l 618 714 z "},"y":{"ha":765,"x_min":86,"x_max":674,"o":"m 649 714 q 674 689 674 714 l 674 -43 q 378 -343 674 -343 q 101 -194 182 -343 q 111 -153 85 -167 l 142 -137 q 182 -147 167 -124 q 376 -258 242 -258 q 579 -47 579 -258 l 579 35 q 361 -1 457 -1 q 86 269 86 -1 l 86 689 q 92 708 86 703 q 111 714 97 714 l 154 714 q 174 708 169 714 q 179 689 179 703 l 179 274 q 374 83 179 83 q 579 121 463 83 l 579 689 q 604 714 579 714 l 649 714 z "},"z":{"ha":632,"x_min":43,"x_max":590,"o":"m 565 85 q 590 60 590 85 l 590 25 q 565 0 590 0 l 68 0 q 48 6 53 0 q 43 25 43 11 l 43 60 q 51 88 43 76 l 464 629 l 72 629 q 49 654 49 629 l 49 689 q 53 708 49 703 q 72 714 58 714 l 558 714 q 578 708 572 714 q 583 689 583 703 l 583 654 q 574 625 583 638 l 161 85 l 565 85 z "},"{":{"ha":444,"x_min":8,"x_max":425,"o":"m 400 1189 q 425 1164 425 1189 l 425 1128 q 400 1103 425 1103 l 338 1103 q 247 1006 247 1103 l 247 660 q 153 492 247 532 q 247 322 247 457 l 247 -21 q 338 -118 247 -118 l 400 -118 q 425 -143 425 -118 l 425 -179 q 400 -204 425 -204 l 336 -204 q 198 -162 239 -204 q 157 -26 157 -119 l 157 310 q 43 443 157 443 l 29 443 q 8 468 8 443 l 8 514 q 29 539 8 539 l 43 539 q 157 672 157 539 l 157 1010 q 198 1146 157 1103 q 335 1189 239 1189 l 400 1189 z "},"|":{"ha":276,"x_min":93,"x_max":182,"o":"m 157 1189 q 177 1183 172 1189 q 182 1164 182 1178 l 182 -179 q 177 -199 182 -194 q 157 -204 172 -204 l 118 -204 q 93 -179 93 -204 l 93 1164 q 118 1189 93 1189 l 157 1189 z "},"}":{"ha":444,"x_min":19,"x_max":436,"o":"m 110 1189 q 247 1146 206 1189 q 288 1010 288 1103 l 288 672 q 401 539 288 539 l 415 539 q 436 514 436 539 l 436 468 q 415 443 436 443 l 401 443 q 288 310 288 443 l 288 -26 q 247 -162 288 -119 q 108 -204 206 -204 l 44 -204 q 19 -179 19 -204 l 19 -143 q 44 -118 19 -118 l 107 -118 q 197 -21 197 -118 l 197 322 q 292 492 197 457 q 197 660 197 532 l 197 1006 q 107 1103 197 1103 l 44 1103 q 19 1128 19 1103 l 19 1164 q 44 1189 19 1189 l 110 1189 z "},"~":{"ha":778,"x_min":96,"x_max":685,"o":"m 96 451 q 261 519 171 519 q 392 491 318 519 q 508 463 467 463 q 622 510 571 463 q 641 520 633 521 q 658 508 649 519 l 685 485 q 685 446 706 464 q 518 378 607 378 q 388 406 461 378 q 272 435 314 435 q 158 388 213 435 q 122 389 140 371 l 96 413 q 96 451 76 433 z "},"¡":{"ha":272,"x_min":78,"x_max":196,"o":"m 132 600 q 90 612 101 600 q 78 656 78 624 l 78 664 q 89 708 78 696 q 132 719 100 719 l 140 719 q 184 707 172 719 q 196 664 196 694 l 196 656 q 184 613 196 625 q 140 600 172 600 l 132 600 m 113 -317 q 88 -292 88 -317 l 99 453 q 124 478 100 478 l 149 478 q 174 453 174 478 l 186 -292 q 161 -317 186 -317 l 113 -317 z "},"¢":{"ha":742,"x_min":75,"x_max":672,"o":"m 656 211 q 672 175 682 201 q 424 -15 617 0 l 424 -92 q 399 -117 424 -117 l 354 -117 q 329 -92 329 -117 l 329 -17 q 140 64 206 -7 q 75 254 75 135 l 75 461 q 140 649 75 578 q 329 731 204 719 l 329 822 q 354 847 329 847 l 399 847 q 424 822 424 847 l 424 731 q 669 547 618 715 q 653 511 678 521 l 617 499 q 581 515 592 490 q 511 619 560 586 q 375 651 463 651 q 222 602 274 651 q 169 464 169 553 l 169 251 q 222 113 169 163 q 375 63 275 63 q 583 206 539 63 q 618 222 592 229 l 656 211 z "},"£":{"ha":882,"x_min":54,"x_max":810,"o":"m 192 740 q 268 931 192 856 q 492 1006 344 1006 q 692 954 615 1006 q 810 792 769 903 q 792 757 818 767 l 750 742 q 728 740 733 736 q 714 758 722 743 q 631 878 682 843 q 494 913 579 913 q 347 864 396 913 q 297 736 297 815 l 297 514 l 654 514 q 676 508 669 514 q 682 486 682 501 l 682 453 q 654 426 682 426 l 297 426 l 297 238 q 228 89 297 138 l 228 85 q 407 94 328 94 l 779 94 q 801 88 794 94 q 807 67 807 82 l 807 28 q 801 6 807 13 q 779 0 794 0 l 81 0 q 60 6 65 0 q 54 28 54 13 l 54 68 q 71 90 54 90 l 94 90 q 169 138 146 96 q 192 236 192 179 l 192 426 l 93 426 q 72 432 78 426 q 67 453 67 438 l 67 486 q 72 508 67 501 q 93 514 78 514 l 192 514 l 192 740 z "},"¤":{"ha":835,"x_min":90,"x_max":744,"o":"m 744 208 q 744 172 761 192 l 714 143 q 678 143 694 124 l 603 217 q 417 151 522 151 q 232 215 314 151 l 158 140 q 122 140 139 121 l 92 171 q 92 206 75 189 l 167 282 q 101 467 101 363 q 165 651 101 572 l 90 726 q 90 763 74 746 l 121 793 q 156 793 139 811 l 231 718 q 417 782 313 782 q 601 719 522 782 l 675 794 q 711 794 694 811 l 742 764 q 742 729 758 747 l 668 654 q 732 467 732 572 q 669 282 732 361 l 744 208 m 417 696 q 256 630 322 696 q 188 468 189 564 q 256 305 189 372 q 417 238 322 238 q 579 305 513 238 q 646 468 646 372 q 580 630 646 564 q 417 696 514 696 z "},"¥":{"ha":886,"x_min":40,"x_max":843,"o":"m 829 986 q 843 958 858 986 l 532 486 l 703 486 q 726 461 726 486 l 726 436 q 703 411 726 411 l 493 411 l 493 285 l 703 285 q 726 260 726 285 l 726 235 q 703 210 726 210 l 493 210 l 493 28 q 467 0 493 0 l 421 0 q 399 6 406 0 q 393 28 393 13 l 393 210 l 182 210 q 158 235 158 210 l 158 260 q 182 285 158 285 l 393 285 l 393 411 l 182 411 q 158 436 158 411 l 158 461 q 182 486 158 486 l 357 486 l 44 958 q 40 978 36 969 q 58 986 44 986 l 108 986 q 143 982 133 986 q 161 961 153 978 l 446 519 l 729 961 q 747 982 738 978 q 782 986 757 986 l 829 986 z "},"¦":{"ha":289,"x_min":100,"x_max":189,"o":"m 164 1189 q 189 1164 189 1189 l 189 624 q 164 599 189 599 l 125 599 q 106 603 111 599 q 100 624 100 608 l 100 1164 q 106 1183 100 1178 q 125 1189 111 1189 l 164 1189 m 164 388 q 189 363 189 388 l 189 -178 q 164 -203 189 -203 l 125 -203 q 106 -197 111 -203 q 100 -178 100 -192 l 100 363 q 106 383 100 378 q 125 388 111 388 l 164 388 z "},"§":{"ha":828,"x_min":71,"x_max":757,"o":"m 83 757 q 165 942 83 872 q 410 1013 247 1013 q 744 790 660 1013 q 729 751 757 764 l 690 733 q 651 749 664 722 q 410 917 589 917 q 186 757 186 917 q 201 692 186 719 q 234 650 215 665 q 290 624 253 635 q 353 608 328 613 q 428 599 379 604 q 520 585 483 592 q 604 561 557 578 q 679 520 651 544 q 727 454 707 496 q 747 357 747 413 q 624 154 747 232 q 757 -53 757 101 q 670 -238 757 -168 q 417 -308 583 -308 q 71 -78 150 -308 q 89 -42 61 -51 l 129 -28 q 165 -46 156 -17 q 417 -214 224 -214 q 597 -172 538 -214 q 657 -54 657 -129 q 642 10 657 -17 q 608 53 628 38 q 551 78 589 68 q 487 93 514 89 q 411 101 460 97 q 331 111 358 107 q 256 126 303 115 q 182 151 208 136 q 127 192 156 167 q 86 254 99 217 q 74 340 74 292 q 218 550 74 479 q 83 757 83 606 m 407 504 q 310 518 326 514 q 176 353 176 468 q 191 288 176 315 q 226 245 206 261 q 283 219 247 229 q 349 204 318 208 q 425 196 379 200 q 528 183 524 183 q 646 349 646 239 q 627 421 646 392 q 570 467 608 450 q 497 490 532 483 q 407 504 461 497 z "},"¨":{"ha":610,"x_min":117,"x_max":485,"o":"m 169 954 q 206 944 196 954 q 215 910 215 935 l 215 899 q 206 863 215 872 q 169 853 196 853 l 161 853 q 126 863 135 853 q 117 899 117 872 l 117 910 q 126 944 117 935 q 161 954 135 954 l 169 954 m 439 954 q 475 944 465 954 q 485 910 485 935 l 485 899 q 475 863 485 872 q 439 853 465 853 l 431 853 q 394 863 404 853 q 385 899 385 872 l 385 910 q 394 944 385 935 q 431 954 404 954 l 439 954 z "},"©":{"ha":1121,"x_min":63,"x_max":1058,"o":"m 63 488 q 207 842 63 697 q 563 986 351 986 q 915 842 771 986 q 1058 488 1058 697 q 915 133 1058 278 q 563 -11 771 -11 q 208 134 353 -11 q 63 488 63 279 m 992 488 q 867 795 992 671 q 563 919 743 919 q 255 795 379 919 q 131 488 131 671 q 255 181 131 306 q 563 56 379 56 q 867 181 743 56 q 992 488 992 306 m 342 563 q 397 708 342 656 q 557 760 453 760 q 765 624 724 760 q 754 597 772 603 l 729 589 q 704 601 710 581 q 656 675 689 653 q 557 697 622 697 q 408 563 408 697 l 408 403 q 446 303 408 339 q 557 268 483 268 q 655 292 619 268 q 706 369 690 317 q 733 382 713 389 l 754 374 q 768 347 775 367 q 557 206 722 206 q 398 258 454 206 q 342 403 342 311 l 342 563 z "},"ª":{"ha":511,"x_min":74,"x_max":431,"o":"m 89 850 q 257 931 144 931 q 391 886 351 931 q 431 758 431 842 l 431 585 q 422 540 431 554 q 386 514 413 526 q 251 493 340 493 q 114 524 154 493 q 74 615 74 554 q 115 711 74 679 q 254 743 156 743 q 357 738 324 743 l 357 764 q 334 842 357 817 q 256 868 311 868 q 147 813 189 868 q 121 808 136 803 l 100 819 q 89 850 75 832 m 357 682 q 250 689 311 689 q 169 671 192 689 q 146 618 146 653 q 247 551 146 551 q 335 564 307 551 q 357 597 357 572 l 357 682 z "},"«":{"ha":783,"x_min":54,"x_max":710,"o":"m 392 135 q 392 103 407 119 l 363 74 q 329 74 346 58 l 54 349 q 54 381 40 364 l 333 660 q 365 660 351 675 l 393 632 q 393 600 408 615 l 160 367 l 392 135 m 710 135 q 710 103 725 119 l 681 74 q 647 74 664 58 l 372 349 q 372 381 358 364 l 651 660 q 683 660 667 675 l 710 632 q 710 600 725 617 l 478 367 l 710 135 z "},"¬":{"ha":806,"x_min":88,"x_max":717,"o":"m 692 540 q 717 515 717 540 l 717 219 q 692 194 717 194 l 647 194 q 622 219 622 194 l 622 453 l 113 453 q 88 478 88 453 l 88 515 q 113 540 88 540 l 692 540 z "},"®":{"ha":668,"x_min":65,"x_max":604,"o":"m 145 526 q 105 566 145 526 q 65 717 65 606 q 145 907 65 828 q 336 986 225 986 q 525 907 446 986 q 604 717 604 828 q 526 526 604 606 q 336 447 447 447 q 145 526 225 447 m 177 876 q 144 844 177 876 q 111 717 111 811 q 177 556 111 622 q 338 490 243 490 q 494 557 429 490 q 560 717 560 624 q 494 876 560 810 q 338 942 429 942 q 177 876 243 942 m 364 857 q 435 833 410 857 q 461 765 461 808 q 399 681 461 696 l 451 592 q 442 576 461 576 l 422 576 q 404 586 410 576 l 353 676 l 268 676 l 268 586 q 257 576 268 576 l 238 576 q 226 586 226 576 l 226 843 q 242 857 226 857 l 364 857 m 268 714 l 363 714 q 418 765 418 714 q 363 817 418 817 l 268 817 l 268 714 z "},"¯":{"ha":489,"x_min":56,"x_max":431,"o":"m 407 939 q 426 934 421 939 q 431 915 431 929 l 431 894 q 426 876 431 881 q 407 871 421 871 l 79 871 q 60 876 65 871 q 56 894 56 881 l 56 915 q 61 934 56 929 q 79 939 67 939 l 407 939 z "},"°":{"ha":538,"x_min":58,"x_max":479,"o":"m 479 771 q 417 622 479 685 q 269 560 356 560 q 120 622 182 560 q 58 771 58 683 q 120 919 58 858 q 269 981 182 981 q 418 920 357 981 q 479 771 479 860 m 174 865 q 155 846 174 865 q 135 771 135 826 q 174 676 135 715 q 269 636 214 636 q 365 676 325 636 q 404 771 404 715 q 365 865 404 826 q 269 904 325 904 q 174 865 214 904 z "},"±":{"ha":886,"x_min":115,"x_max":771,"o":"m 743 590 q 765 584 758 590 q 771 563 771 578 l 771 536 q 765 515 771 521 q 743 508 758 508 l 486 508 l 486 353 q 480 331 486 338 q 458 325 474 325 l 428 325 q 406 331 413 325 q 400 353 400 338 l 400 508 l 143 508 q 122 515 128 508 q 115 536 115 521 l 115 563 q 122 584 115 578 q 143 590 128 590 l 400 590 l 400 751 q 406 773 400 767 q 428 779 413 779 l 458 779 q 480 773 474 779 q 486 751 486 767 l 486 590 l 743 590 m 743 251 q 765 245 758 251 q 771 224 771 239 l 771 197 q 765 176 771 182 q 743 169 758 169 l 143 169 q 122 176 128 169 q 115 197 115 182 l 115 224 q 122 245 115 239 q 143 251 128 251 l 743 251 z "},"²":{"ha":493,"x_min":51,"x_max":442,"o":"m 54 988 q 67 1017 63 1008 q 88 1053 71 1026 q 124 1095 106 1081 q 177 1123 143 1110 q 253 1136 211 1136 q 392 1090 343 1136 q 442 968 442 1043 q 402 860 442 896 q 279 796 363 824 l 197 769 q 128 683 128 743 l 128 649 l 411 649 q 436 624 436 649 l 436 599 q 411 575 436 575 l 78 575 q 51 601 51 575 l 51 656 q 77 763 51 722 q 163 825 103 803 l 243 857 q 261 864 247 858 q 279 871 275 869 q 295 877 283 872 q 311 885 307 882 q 324 893 315 888 q 337 903 333 899 q 346 915 340 908 q 353 929 351 922 q 358 945 356 936 q 360 965 360 954 q 332 1035 360 1008 q 251 1061 304 1061 q 202 1052 224 1061 q 167 1029 181 1043 q 147 1003 154 1015 q 136 978 140 990 l 131 964 q 117 944 124 947 q 96 946 111 942 l 72 953 q 54 988 44 964 z "},"³":{"ha":504,"x_min":47,"x_max":454,"o":"m 50 989 q 261 1136 94 1136 q 392 1094 344 1136 q 439 981 439 1051 q 372 860 439 894 q 454 721 454 822 q 405 606 454 649 q 260 564 356 564 q 122 600 172 564 q 47 710 71 636 q 61 744 39 736 l 86 753 q 121 735 111 760 q 168 659 138 682 q 260 636 199 636 q 346 661 317 636 q 375 729 375 686 q 353 793 375 768 q 292 818 331 818 l 208 818 q 189 823 193 818 q 185 843 185 828 l 185 864 q 189 886 185 882 q 210 890 193 890 l 286 890 q 344 913 324 890 q 364 972 364 936 q 337 1040 364 1015 q 261 1065 310 1065 q 125 967 153 1065 q 110 944 118 949 q 83 946 101 940 l 67 953 q 50 989 42 964 z "},"´":{"ha":357,"x_min":38,"x_max":342,"o":"m 264 1007 q 311 1006 296 1024 l 332 981 q 341 967 339 972 q 340 958 343 963 q 328 951 336 954 l 83 822 q 50 824 61 813 l 38 840 q 40 868 24 858 l 264 1007 z "},"µ":{"ha":761,"x_min":88,"x_max":675,"o":"m 650 714 q 675 689 675 714 l 675 103 q 664 55 675 71 q 622 25 653 39 q 383 -21 507 -21 q 181 75 236 -21 l 181 -281 q 175 -300 181 -294 q 156 -306 169 -306 l 113 -306 q 88 -281 88 -306 l 88 689 q 113 714 88 714 l 156 714 q 175 708 169 714 q 181 689 181 703 l 181 254 q 375 64 181 64 q 557 94 474 64 q 582 133 582 106 l 582 689 q 587 708 582 703 q 607 714 592 714 l 650 714 z "},"¶":{"ha":597,"x_min":61,"x_max":496,"o":"m 471 986 q 491 981 486 986 q 496 961 496 975 l 496 -99 q 491 -119 496 -114 q 471 -124 486 -124 l 433 -124 q 414 -119 419 -124 q 408 -99 408 -114 l 408 892 l 333 892 l 333 -99 q 308 -124 333 -124 l 271 -124 q 246 -99 246 -124 l 246 607 q 113 662 164 610 q 61 796 61 714 q 114 933 61 881 q 253 986 167 986 l 471 986 z "},"·":{"ha":294,"x_min":88,"x_max":206,"o":"m 151 439 q 194 427 182 439 q 206 383 206 415 l 206 374 q 194 331 206 342 q 151 319 183 319 l 143 319 q 99 331 111 319 q 88 374 88 343 l 88 383 q 99 426 88 414 q 143 439 111 439 l 151 439 z "},"¸":{"ha":349,"x_min":36,"x_max":329,"o":"m 176 -103 q 211 -99 192 -99 q 299 -129 267 -99 q 329 -210 332 -160 q 280 -309 325 -276 q 164 -342 235 -342 q 53 -315 97 -342 q 36 -287 36 -306 l 36 -261 q 50 -251 36 -243 q 153 -283 96 -283 q 224 -262 199 -283 q 249 -206 249 -242 q 165 -147 249 -147 q 119 -153 138 -147 q 103 -149 107 -154 q 104 -129 99 -143 l 154 0 l 213 0 l 176 -103 z "},"¹":{"ha":390,"x_min":28,"x_max":311,"o":"m 283 1125 q 305 1119 299 1125 q 311 1099 311 1114 l 311 603 q 305 581 311 588 q 283 575 299 575 l 258 575 q 237 581 243 575 q 231 603 231 588 l 231 1025 l 78 940 q 39 950 53 928 l 28 969 q 40 1007 15 994 l 235 1118 q 268 1125 247 1125 l 283 1125 z "},"º":{"ha":518,"x_min":74,"x_max":444,"o":"m 74 764 q 122 886 74 842 q 258 931 169 931 q 397 886 349 931 q 444 764 444 842 l 444 660 q 397 538 444 582 q 258 494 349 494 q 122 538 169 494 q 74 660 74 582 l 74 764 m 368 768 q 340 838 368 813 q 258 863 311 863 q 178 838 206 863 q 150 768 150 813 l 150 657 q 178 588 150 613 q 258 563 206 563 q 340 588 311 563 q 368 657 368 613 l 368 768 z "},"»":{"ha":783,"x_min":72,"x_max":729,"o":"m 390 600 q 390 632 375 615 l 418 660 q 450 660 433 678 l 729 381 q 729 349 743 364 l 454 74 q 421 74 438 58 l 392 103 q 392 135 375 119 l 624 367 l 390 600 m 72 600 q 72 632 57 617 l 100 660 q 132 660 117 675 l 411 381 q 411 349 425 364 l 136 74 q 103 74 119 58 l 74 103 q 74 135 58 119 l 306 367 l 72 600 z "},"¼":{"ha":1092,"x_min":47,"x_max":1044,"o":"m 301 992 q 323 985 317 992 q 329 964 329 979 l 329 468 q 301 442 329 442 l 276 442 q 249 468 249 442 l 249 892 l 96 807 q 58 815 71 792 l 47 836 q 58 874 33 858 l 253 983 q 286 992 269 992 l 301 992 m 935 986 q 953 978 949 986 q 949 960 957 971 l 263 25 q 241 4 250 8 q 207 0 232 0 l 175 0 q 156 8 160 0 q 161 28 151 17 l 849 963 q 867 982 858 978 q 899 986 876 986 l 935 986 m 942 550 q 961 545 957 550 q 965 525 965 540 l 965 210 l 1021 210 q 1040 206 1036 210 q 1044 188 1044 201 l 1044 164 q 1040 146 1044 150 q 1021 142 1036 142 l 965 142 l 965 24 q 961 5 965 10 q 943 0 957 0 l 911 0 q 894 5 899 0 q 890 24 890 10 l 890 142 l 625 142 q 606 147 611 142 q 601 167 601 153 l 601 185 q 610 214 601 203 l 872 535 q 907 550 883 550 l 942 550 m 693 210 l 890 210 l 890 450 l 693 210 z "},"½":{"ha":1168,"x_min":46,"x_max":1110,"o":"m 301 996 q 329 969 329 996 l 329 474 q 323 452 329 458 q 301 446 317 446 l 276 446 q 255 452 261 446 q 249 474 249 458 l 249 896 l 96 811 q 57 821 71 797 l 46 840 q 57 878 35 864 l 253 988 q 286 996 264 996 l 301 996 m 931 986 q 949 978 944 986 q 944 960 953 971 l 258 25 q 237 4 246 8 q 203 0 228 0 l 169 0 q 151 8 154 0 q 157 28 147 17 l 843 963 q 863 982 854 978 q 894 986 872 986 l 931 986 m 722 413 q 921 561 776 561 q 1060 514 1011 561 q 1110 393 1110 467 q 1070 284 1110 319 q 947 221 1031 249 l 865 193 q 796 107 796 169 l 796 74 l 1079 74 q 1104 49 1104 74 l 1104 24 q 1079 0 1104 0 l 746 0 q 718 26 718 0 l 718 81 q 744 188 718 147 q 829 250 769 228 l 911 282 q 929 289 915 283 q 947 296 943 294 q 963 302 951 297 q 979 310 975 307 q 992 318 983 313 q 1005 328 1001 324 q 1014 340 1008 333 q 1022 354 1019 347 q 1026 370 1024 361 q 1028 390 1028 379 q 1000 460 1028 433 q 919 486 972 486 q 886 482 901 486 q 860 472 871 478 q 839 458 849 467 q 824 441 829 449 q 813 424 818 433 q 805 408 807 414 q 800 394 803 401 l 799 388 q 764 369 786 361 l 739 378 q 722 413 711 386 z "},"¾":{"ha":1143,"x_min":57,"x_max":1099,"o":"m 60 860 q 133 972 83 936 q 269 1008 183 1008 q 401 966 354 1008 q 449 851 449 924 q 382 732 449 767 q 464 592 464 693 q 415 478 464 519 q 269 436 365 436 q 131 472 181 436 q 57 581 81 507 q 71 615 47 608 l 96 624 q 131 606 121 631 q 177 531 146 554 q 269 507 208 507 q 356 532 326 507 q 385 600 385 557 q 363 665 385 639 q 301 690 340 690 l 218 690 q 198 694 203 690 q 193 714 193 699 l 193 736 q 198 757 193 753 q 219 761 203 761 l 296 761 q 353 784 333 761 q 372 844 372 807 q 346 911 372 886 q 271 936 319 936 q 181 913 214 936 q 133 838 149 889 q 93 818 122 806 l 75 824 q 60 860 50 833 m 990 986 q 1008 978 1004 986 q 1004 960 1013 971 l 318 25 q 297 4 306 8 q 263 0 288 0 l 231 0 q 211 8 215 0 q 217 28 207 17 l 904 963 q 923 982 914 978 q 954 986 932 986 l 990 986 m 994 550 q 1015 545 1011 550 q 1019 525 1019 540 l 1019 210 l 1075 210 q 1094 206 1090 210 q 1099 188 1099 201 l 1099 164 q 1094 146 1099 150 q 1075 142 1090 142 l 1019 142 l 1019 24 q 1015 5 1019 10 q 997 0 1011 0 l 965 0 q 947 5 951 0 q 943 24 943 10 l 943 142 l 679 142 q 660 147 665 142 q 656 167 656 153 l 656 185 q 664 214 656 204 l 925 535 q 961 550 938 550 l 994 550 m 943 210 l 943 450 l 747 210 l 943 210 z "},"¿":{"ha":768,"x_min":43,"x_max":728,"o":"m 414 600 q 372 612 383 600 q 360 656 360 624 l 360 664 q 372 708 360 696 q 414 719 383 719 l 422 719 q 466 708 454 719 q 478 664 478 696 l 478 656 q 465 613 478 625 q 422 600 453 600 l 414 600 m 728 -86 q 375 -315 638 -315 q 133 -233 222 -315 q 43 -29 43 -151 q 56 68 43 24 q 85 140 69 113 q 131 198 100 168 q 181 240 163 228 q 238 276 200 253 q 253 286 247 283 q 345 366 314 326 q 376 469 376 406 q 382 490 376 485 q 403 496 388 496 l 435 496 q 456 490 450 496 q 461 469 461 485 q 422 322 461 375 q 310 221 383 269 q 247 178 265 192 q 198 133 228 164 q 156 63 168 101 q 143 -25 143 25 q 205 -169 143 -112 q 378 -226 267 -226 q 636 -56 565 -226 q 671 -37 647 -29 l 710 -51 q 728 -86 736 -61 z "},"À":{"ha":890,"x_min":17,"x_max":874,"o":"m 318 1238 q 365 1239 335 1257 l 593 1104 q 594 1076 611 1094 l 582 1061 q 550 1060 574 1049 l 301 1183 q 297 1213 281 1192 l 318 1238 m 874 26 q 854 0 885 0 l 814 0 q 764 25 771 0 l 660 289 l 225 289 l 121 25 q 107 5 117 10 q 72 0 97 0 l 35 0 q 17 26 6 0 l 389 967 q 424 990 397 990 l 465 990 q 501 968 493 990 l 874 26 m 465 799 q 446 894 446 854 l 439 894 q 422 799 439 850 l 254 372 l 632 372 l 465 799 z "},"Á":{"ha":890,"x_min":17,"x_max":874,"o":"m 525 1247 q 572 1244 557 1263 l 593 1219 q 589 1190 610 1199 l 344 1061 q 311 1064 319 1053 l 299 1079 q 300 1107 282 1097 l 525 1247 m 874 26 q 854 0 885 0 l 814 0 q 764 25 771 0 l 660 289 l 225 289 l 121 25 q 107 5 117 10 q 72 0 97 0 l 35 0 q 17 26 6 0 l 389 967 q 424 990 397 990 l 465 990 q 501 968 493 990 l 874 26 m 465 799 q 446 894 446 854 l 439 894 q 422 799 439 850 l 254 372 l 632 372 l 465 799 z "},"Â":{"ha":890,"x_min":17,"x_max":874,"o":"m 453 1251 q 500 1229 478 1251 l 669 1079 q 657 1060 689 1060 l 619 1060 q 578 1074 590 1060 l 444 1188 l 310 1074 q 269 1060 294 1060 l 233 1060 q 221 1079 201 1060 l 392 1229 q 416 1248 408 1244 q 442 1251 424 1251 l 453 1251 m 874 26 q 854 0 885 0 l 814 0 q 764 25 771 0 l 660 289 l 225 289 l 121 25 q 107 5 117 10 q 72 0 97 0 l 35 0 q 17 26 6 0 l 389 967 q 424 990 397 990 l 465 990 q 501 968 493 990 l 874 26 m 465 799 q 446 894 446 854 l 439 894 q 422 799 439 850 l 254 372 l 632 372 l 465 799 z "},"Ã":{"ha":890,"x_min":17,"x_max":874,"o":"m 639 1225 q 656 1208 656 1225 q 547 1069 656 1069 q 438 1116 497 1069 q 343 1163 378 1163 q 288 1086 288 1163 q 271 1069 288 1069 l 243 1069 q 226 1086 226 1069 q 335 1225 226 1225 q 413 1201 376 1225 q 479 1155 449 1178 q 540 1132 510 1132 q 596 1208 596 1132 q 611 1225 596 1225 l 639 1225 m 874 26 q 854 0 885 0 l 814 0 q 764 25 771 0 l 660 289 l 225 289 l 121 25 q 107 5 117 10 q 72 0 97 0 l 35 0 q 17 26 6 0 l 389 967 q 424 990 397 990 l 465 990 q 501 968 493 990 l 874 26 m 465 799 q 446 894 446 854 l 439 894 q 422 799 439 850 l 254 372 l 632 372 l 465 799 z "},"Ä":{"ha":890,"x_min":17,"x_max":874,"o":"m 314 1200 q 350 1190 340 1200 q 360 1156 360 1181 l 360 1144 q 350 1109 360 1118 q 314 1100 340 1100 l 306 1100 q 269 1109 279 1100 q 260 1144 260 1118 l 260 1156 q 269 1190 260 1181 q 306 1200 279 1200 l 314 1200 m 583 1200 q 619 1190 610 1200 q 629 1156 629 1181 l 629 1144 q 619 1109 629 1118 q 583 1100 610 1100 l 575 1100 q 539 1109 549 1100 q 529 1144 529 1118 l 529 1156 q 539 1190 529 1181 q 575 1200 549 1200 l 583 1200 m 874 26 q 854 0 885 0 l 814 0 q 764 25 771 0 l 660 289 l 225 289 l 121 25 q 107 5 117 10 q 72 0 97 0 l 35 0 q 17 26 6 0 l 389 967 q 424 990 397 990 l 465 990 q 501 968 493 990 l 874 26 m 465 799 q 446 894 446 854 l 439 894 q 422 799 439 850 l 254 372 l 632 372 l 465 799 z "},"Å":{"ha":890,"x_min":17,"x_max":874,"o":"m 294 1082 q 336 1189 294 1149 q 447 1229 378 1229 q 555 1189 514 1229 q 596 1082 596 1149 q 572 999 596 1033 q 507 953 549 965 l 874 26 q 854 0 885 0 l 814 0 q 764 25 771 0 l 660 289 l 225 289 l 121 25 q 107 5 117 10 q 72 0 97 0 l 35 0 q 17 26 6 0 l 383 954 q 294 1082 294 983 m 513 1017 q 525 1029 513 1017 q 538 1082 538 1042 q 513 1147 538 1122 q 447 1172 488 1172 q 378 1147 404 1172 q 353 1082 353 1122 q 378 1017 353 1042 q 447 992 404 992 q 513 1017 488 992 m 465 799 q 446 894 446 854 l 439 894 q 422 799 439 850 l 254 372 l 632 372 l 465 799 z "},"Æ":{"ha":1154,"x_min":-3,"x_max":1101,"o":"m 1075 94 q 1101 67 1101 94 l 1101 28 q 1075 0 1101 0 l 614 0 q 592 6 599 0 q 586 28 586 13 l 586 243 l 240 243 l 108 25 q 91 5 100 10 q 58 0 82 0 l 15 0 q -3 26 -14 0 l 572 963 q 588 982 582 978 q 608 986 594 986 l 1057 986 q 1078 980 1072 986 q 1085 958 1085 974 l 1085 919 q 1078 898 1085 904 q 1057 892 1072 892 l 685 892 l 685 546 l 994 546 q 1015 540 1010 546 q 1021 518 1021 533 l 1021 479 q 1015 458 1021 464 q 994 451 1010 451 l 685 451 l 685 94 l 1075 94 m 586 818 l 290 326 l 586 326 l 586 818 z "},"Ç":{"ha":883,"x_min":79,"x_max":832,"o":"m 815 258 q 832 224 840 249 q 712 45 794 106 q 479 -19 629 -15 l 449 -103 q 483 -99 464 -99 q 572 -129 539 -99 q 601 -210 604 -160 q 552 -309 597 -276 q 436 -342 507 -342 q 325 -315 369 -342 q 308 -287 308 -306 l 308 -261 q 322 -251 308 -243 q 425 -283 368 -283 q 496 -262 471 -283 q 521 -206 521 -242 q 438 -147 521 -147 q 392 -153 410 -147 q 375 -149 379 -154 q 376 -129 371 -143 l 421 -19 q 168 83 257 -10 q 79 329 79 175 l 79 657 q 177 913 79 821 q 460 1006 275 1006 q 703 947 615 1006 q 829 768 792 888 q 831 745 835 753 q 813 732 828 738 l 769 717 q 733 733 743 710 q 641 869 704 826 q 460 913 578 913 q 252 846 324 913 q 181 658 181 779 l 181 328 q 253 141 181 208 q 460 74 325 74 q 643 118 579 74 q 736 257 707 163 q 772 275 747 282 l 815 258 z "},"È":{"ha":796,"x_min":108,"x_max":743,"o":"m 290 1238 q 338 1239 307 1257 l 565 1104 q 568 1076 583 1096 l 556 1061 q 522 1060 546 1050 l 274 1183 q 271 1213 254 1192 l 290 1238 m 699 986 q 725 958 725 986 l 725 919 q 699 892 725 892 l 208 892 l 208 547 l 636 547 q 663 519 663 547 l 663 481 q 636 453 663 453 l 208 453 l 208 94 l 717 94 q 743 67 743 94 l 743 28 q 717 0 743 0 l 136 0 q 115 6 121 0 q 108 28 108 13 l 108 958 q 115 980 108 974 q 136 986 121 986 l 699 986 z "},"É":{"ha":796,"x_min":108,"x_max":743,"o":"m 497 1247 q 544 1244 529 1263 l 565 1219 q 574 1206 572 1211 q 573 1197 576 1201 q 561 1190 569 1193 l 317 1061 q 283 1064 293 1053 l 271 1079 q 274 1107 256 1099 l 497 1247 m 699 986 q 725 958 725 986 l 725 919 q 699 892 725 892 l 208 892 l 208 547 l 636 547 q 663 519 663 547 l 663 481 q 636 453 663 453 l 208 453 l 208 94 l 717 94 q 743 67 743 94 l 743 28 q 717 0 743 0 l 136 0 q 115 6 121 0 q 108 28 108 13 l 108 958 q 115 980 108 974 q 136 986 121 986 l 699 986 z "},"Ê":{"ha":796,"x_min":108,"x_max":743,"o":"m 425 1251 q 449 1248 442 1251 q 472 1229 457 1244 l 642 1079 q 648 1066 651 1072 q 629 1060 644 1060 l 592 1060 q 550 1074 564 1060 l 418 1188 l 282 1074 q 243 1060 268 1060 l 207 1060 q 188 1066 192 1060 q 194 1079 185 1072 l 364 1229 q 388 1248 381 1244 q 414 1251 396 1251 l 425 1251 m 699 986 q 725 958 725 986 l 725 919 q 699 892 725 892 l 208 892 l 208 547 l 636 547 q 663 519 663 547 l 663 481 q 636 453 663 453 l 208 453 l 208 94 l 717 94 q 743 67 743 94 l 743 28 q 717 0 743 0 l 136 0 q 115 6 121 0 q 108 28 108 13 l 108 958 q 115 980 108 974 q 136 986 121 986 l 699 986 z "},"Ë":{"ha":796,"x_min":108,"x_max":743,"o":"m 288 1200 q 323 1190 314 1200 q 332 1156 332 1181 l 332 1144 q 323 1109 332 1118 q 288 1100 314 1100 l 278 1100 q 243 1109 253 1100 q 233 1144 233 1118 l 233 1156 q 243 1190 233 1181 q 278 1200 253 1200 l 288 1200 m 557 1200 q 592 1190 582 1200 q 601 1156 601 1181 l 601 1144 q 592 1109 601 1118 q 557 1100 582 1100 l 549 1100 q 511 1109 521 1100 q 501 1144 501 1118 l 501 1156 q 512 1190 501 1181 q 549 1200 522 1200 l 557 1200 m 699 986 q 725 958 725 986 l 725 919 q 699 892 725 892 l 208 892 l 208 547 l 636 547 q 663 519 663 547 l 663 481 q 636 453 663 453 l 208 453 l 208 94 l 717 94 q 743 67 743 94 l 743 28 q 717 0 743 0 l 136 0 q 115 6 121 0 q 108 28 108 13 l 108 958 q 115 980 108 974 q 136 986 121 986 l 699 986 z "},"Ì":{"ha":317,"x_min":13,"x_max":310,"o":"m 32 1238 q 79 1239 49 1257 l 307 1104 q 310 1076 325 1096 l 297 1061 q 264 1060 288 1050 l 15 1183 q 13 1213 -4 1192 l 32 1238 m 108 958 q 115 980 108 974 q 136 986 121 986 l 182 986 q 203 980 197 986 q 210 958 210 974 l 210 28 q 203 6 210 13 q 182 0 197 0 l 136 0 q 115 6 121 0 q 108 28 108 13 l 108 958 z "},"Í":{"ha":317,"x_min":13,"x_max":307,"o":"m 239 1247 q 286 1244 271 1263 l 307 1219 q 303 1190 324 1199 l 57 1061 q 25 1064 33 1053 l 13 1079 q 14 1107 -4 1097 l 239 1247 m 108 958 q 115 980 108 974 q 136 986 121 986 l 182 986 q 203 980 197 986 q 208 958 208 974 l 208 28 q 203 6 208 13 q 182 0 197 0 l 136 0 q 115 6 121 0 q 108 28 108 13 l 108 958 z "},"Î":{"ha":317,"x_min":-65,"x_max":383,"o":"m 165 1251 q 190 1248 182 1251 q 214 1229 199 1244 l 383 1079 q 371 1060 403 1060 l 333 1060 q 292 1074 304 1060 l 158 1188 l 24 1074 q -17 1060 8 1060 l -53 1060 q -65 1079 -85 1060 l 106 1229 q 129 1248 121 1244 q 156 1251 138 1251 l 165 1251 m 108 958 q 115 980 108 974 q 136 986 121 986 l 182 986 q 203 980 197 986 q 208 958 208 974 l 208 28 q 203 6 208 13 q 182 0 197 0 l 136 0 q 115 6 121 0 q 108 28 108 13 l 108 958 z "},"Ï":{"ha":317,"x_min":-26,"x_max":343,"o":"m 28 1200 q 64 1190 54 1200 q 74 1156 74 1181 l 74 1144 q 64 1109 74 1118 q 28 1100 54 1100 l 19 1100 q -17 1109 -7 1100 q -26 1144 -26 1118 l -26 1156 q -17 1190 -26 1181 q 19 1200 -7 1200 l 28 1200 m 297 1200 q 333 1190 324 1200 q 343 1156 343 1181 l 343 1144 q 333 1109 343 1118 q 297 1100 324 1100 l 289 1100 q 253 1109 263 1100 q 243 1144 243 1118 l 243 1156 q 253 1190 243 1181 q 289 1200 263 1200 l 297 1200 m 108 958 q 115 980 108 974 q 136 986 121 986 l 182 986 q 203 980 197 986 q 208 958 208 974 l 208 28 q 203 6 208 13 q 182 0 197 0 l 136 0 q 115 6 121 0 q 108 28 108 13 l 108 958 z "},"Ð":{"ha":922,"x_min":3,"x_max":847,"o":"m 444 986 q 742 888 636 986 q 847 619 847 790 l 847 367 q 742 98 847 196 q 444 0 636 0 l 151 0 q 130 6 136 0 q 124 28 124 13 l 124 467 l 22 467 q 3 486 3 467 l 3 515 q 22 535 3 535 l 124 535 l 124 958 q 130 980 124 974 q 151 986 136 986 l 444 986 m 747 619 q 669 821 747 750 q 446 892 592 892 l 225 892 l 225 535 l 464 535 q 482 515 482 535 l 482 486 q 464 467 482 467 l 225 467 l 225 94 l 446 94 q 669 165 590 94 q 747 367 747 236 l 747 619 z "},"Ñ":{"ha":960,"x_min":108,"x_max":851,"o":"m 675 1225 q 690 1208 690 1225 q 582 1069 690 1069 q 473 1116 532 1069 q 379 1163 414 1163 q 324 1086 324 1163 q 307 1069 324 1069 l 279 1069 q 263 1086 263 1069 q 371 1225 263 1225 q 449 1201 413 1225 q 515 1155 485 1178 q 576 1132 546 1132 q 632 1208 632 1132 q 647 1225 632 1225 l 675 1225 m 824 986 q 845 980 839 986 q 851 958 851 974 l 851 28 q 845 6 851 13 q 824 0 839 0 l 779 0 q 750 15 758 0 l 307 651 q 240 767 278 694 q 196 850 203 840 l 190 850 q 198 751 190 839 q 206 604 206 664 l 206 28 q 179 0 206 0 l 136 0 q 115 6 121 0 q 108 28 108 13 l 108 958 q 115 980 108 974 q 136 986 121 986 l 181 986 q 210 972 200 986 l 642 349 q 715 228 674 303 q 765 139 756 153 l 769 139 q 761 244 769 153 q 753 397 753 335 l 753 960 q 781 986 753 986 l 824 986 z "},"Ò":{"ha":921,"x_min":79,"x_max":842,"o":"m 335 1251 q 382 1253 350 1269 l 610 1118 q 611 1090 628 1108 l 599 1075 q 565 1074 590 1064 l 318 1197 q 314 1226 297 1206 l 335 1251 m 79 657 q 178 913 79 821 q 461 1006 276 1006 q 743 913 644 1006 q 842 657 842 821 l 842 329 q 743 73 842 165 q 461 -19 644 -19 q 178 73 276 -19 q 79 329 79 165 l 79 657 m 742 657 q 669 846 742 779 q 461 913 597 913 q 252 846 325 913 q 179 657 179 779 l 179 329 q 252 140 179 207 q 461 74 325 74 q 669 140 597 74 q 742 329 742 207 l 742 657 z "},"Ó":{"ha":921,"x_min":79,"x_max":842,"o":"m 542 1261 q 589 1258 574 1276 l 610 1233 q 606 1204 626 1213 l 360 1075 q 328 1078 336 1067 l 315 1093 q 317 1121 299 1111 l 542 1261 m 79 657 q 178 913 79 821 q 461 1006 276 1006 q 743 913 644 1006 q 842 657 842 821 l 842 329 q 743 73 842 165 q 461 -19 644 -19 q 178 73 276 -19 q 79 329 79 165 l 79 657 m 742 657 q 669 846 742 779 q 461 913 597 913 q 252 846 325 913 q 179 657 179 779 l 179 329 q 252 140 179 207 q 461 74 325 74 q 669 140 597 74 q 742 329 742 207 l 742 657 z "},"Ô":{"ha":921,"x_min":79,"x_max":842,"o":"m 468 1265 q 493 1262 485 1265 q 517 1243 501 1258 l 686 1093 q 674 1074 706 1074 l 636 1074 q 594 1088 607 1074 l 461 1201 l 326 1088 q 286 1074 311 1074 l 250 1074 q 238 1093 218 1074 l 408 1243 q 432 1262 424 1258 q 458 1265 440 1265 l 468 1265 m 79 657 q 178 913 79 821 q 461 1006 276 1006 q 743 913 644 1006 q 842 657 842 821 l 842 329 q 743 73 842 165 q 461 -19 644 -19 q 178 73 276 -19 q 79 329 79 165 l 79 657 m 742 657 q 669 846 742 779 q 461 913 597 913 q 252 846 325 913 q 179 657 179 779 l 179 329 q 252 140 179 207 q 461 74 325 74 q 669 140 597 74 q 742 329 742 207 l 742 657 z "},"Õ":{"ha":921,"x_min":79,"x_max":842,"o":"m 656 1239 q 671 1222 671 1239 q 563 1083 671 1083 q 453 1130 513 1083 q 360 1176 394 1176 q 304 1100 304 1176 q 288 1083 304 1083 l 260 1083 q 243 1100 243 1083 q 351 1239 243 1239 q 429 1215 393 1239 q 496 1169 465 1192 q 557 1146 526 1146 q 613 1222 613 1146 q 628 1239 613 1239 l 656 1239 m 79 657 q 178 913 79 821 q 461 1006 276 1006 q 743 913 644 1006 q 842 657 842 821 l 842 329 q 743 73 842 165 q 461 -19 644 -19 q 178 73 276 -19 q 79 329 79 165 l 79 657 m 742 657 q 669 846 742 779 q 461 913 597 913 q 252 846 325 913 q 179 657 179 779 l 179 329 q 252 140 179 207 q 461 74 325 74 q 669 140 597 74 q 742 329 742 207 l 742 657 z "},"Ö":{"ha":921,"x_min":79,"x_max":842,"o":"m 331 1214 q 367 1204 357 1214 q 376 1169 376 1194 l 376 1158 q 367 1123 376 1132 q 331 1114 357 1114 l 322 1114 q 286 1123 296 1114 q 276 1158 276 1132 l 276 1169 q 286 1204 276 1194 q 322 1214 296 1214 l 331 1214 m 600 1214 q 636 1204 626 1214 q 646 1169 646 1194 l 646 1158 q 636 1123 646 1132 q 600 1114 626 1114 l 592 1114 q 556 1123 565 1114 q 546 1158 546 1132 l 546 1169 q 556 1204 546 1194 q 592 1214 565 1214 l 600 1214 m 79 657 q 178 913 79 821 q 461 1006 276 1006 q 743 913 644 1006 q 842 657 842 821 l 842 329 q 743 73 842 165 q 461 -19 644 -19 q 178 73 276 -19 q 79 329 79 165 l 79 657 m 742 657 q 669 846 742 779 q 461 913 597 913 q 252 846 325 913 q 179 657 179 779 l 179 329 q 252 140 179 207 q 461 74 325 74 q 669 140 597 74 q 742 329 742 207 l 742 657 z "},"×":{"ha":704,"x_min":92,"x_max":614,"o":"m 614 250 q 614 211 632 231 l 592 189 q 553 189 574 171 l 351 390 l 151 190 q 113 190 132 171 l 92 213 q 92 250 72 231 l 292 450 l 92 651 q 92 690 71 672 l 113 713 q 151 713 132 731 l 351 511 l 553 713 q 592 713 574 731 l 614 690 q 614 653 633 672 l 411 450 l 614 250 z "},"Ø":{"ha":921,"x_min":79,"x_max":853,"o":"m 847 1043 q 853 1033 858 1043 l 763 893 q 842 657 842 806 l 842 329 q 743 74 842 165 q 461 -19 644 -18 q 219 42 315 -21 l 161 -49 q 140 -58 156 -58 l 88 -58 q 82 -49 75 -58 l 165 85 q 79 329 79 174 l 79 657 q 178 913 79 821 q 461 1006 276 1006 q 711 936 618 1006 l 772 1033 q 792 1043 781 1043 l 847 1043 m 657 853 q 461 913 586 913 q 252 846 325 913 q 179 657 179 779 l 179 329 q 229 182 179 239 l 657 853 m 274 126 q 461 74 343 74 q 669 140 597 74 q 742 329 742 207 l 742 657 q 700 793 742 743 l 274 126 z "},"Ù":{"ha":947,"x_min":100,"x_max":847,"o":"m 347 1238 q 394 1239 363 1256 l 622 1104 q 624 1076 640 1094 l 611 1061 q 578 1060 603 1050 l 331 1183 q 326 1213 310 1192 l 347 1238 m 201 335 q 270 142 201 211 q 474 74 339 74 q 677 142 608 74 q 746 335 746 211 l 746 958 q 752 980 746 974 q 774 986 758 986 l 819 986 q 841 980 835 986 q 847 958 847 974 l 847 336 q 751 74 847 169 q 474 -21 656 -21 q 196 74 292 -21 q 100 336 100 169 l 100 958 q 106 980 100 974 q 128 986 113 986 l 174 986 q 195 980 189 986 q 201 958 201 974 l 201 335 z "},"Ú":{"ha":947,"x_min":100,"x_max":847,"o":"m 554 1247 q 601 1244 586 1263 l 622 1219 q 618 1190 639 1199 l 372 1061 q 340 1064 349 1053 l 328 1079 q 329 1107 311 1097 l 554 1247 m 201 335 q 270 142 201 211 q 474 74 339 74 q 677 142 608 74 q 746 335 746 211 l 746 958 q 752 980 746 974 q 774 986 758 986 l 819 986 q 841 980 835 986 q 847 958 847 974 l 847 336 q 751 74 847 169 q 474 -21 656 -21 q 196 74 292 -21 q 100 336 100 169 l 100 958 q 106 980 100 974 q 128 986 113 986 l 174 986 q 195 980 189 986 q 201 958 201 974 l 201 335 z "},"Û":{"ha":947,"x_min":100,"x_max":847,"o":"m 481 1251 q 506 1248 497 1251 q 529 1229 514 1244 l 699 1079 q 686 1060 718 1060 l 649 1060 q 607 1074 619 1060 l 474 1188 l 339 1074 q 299 1060 324 1060 l 263 1060 q 250 1079 231 1060 l 421 1229 q 444 1248 436 1244 q 471 1251 453 1251 l 481 1251 m 201 335 q 270 142 201 211 q 474 74 339 74 q 677 142 608 74 q 746 335 746 211 l 746 958 q 752 980 746 974 q 774 986 758 986 l 819 986 q 841 980 835 986 q 847 958 847 974 l 847 336 q 751 74 847 169 q 474 -21 656 -21 q 196 74 292 -21 q 100 336 100 169 l 100 958 q 106 980 100 974 q 128 986 113 986 l 174 986 q 195 980 189 986 q 201 958 201 974 l 201 335 z "},"Ü":{"ha":947,"x_min":100,"x_max":847,"o":"m 343 1200 q 379 1190 369 1200 q 389 1156 389 1181 l 389 1144 q 379 1109 389 1118 q 343 1100 369 1100 l 335 1100 q 299 1109 308 1100 q 289 1144 289 1118 l 289 1156 q 299 1190 289 1181 q 335 1200 308 1200 l 343 1200 m 613 1200 q 649 1190 639 1200 q 658 1156 658 1181 l 658 1144 q 649 1109 658 1118 q 613 1100 639 1100 l 604 1100 q 568 1109 578 1100 q 558 1144 558 1118 l 558 1156 q 568 1190 558 1181 q 604 1200 578 1200 l 613 1200 m 201 335 q 270 142 201 211 q 474 74 339 74 q 677 142 608 74 q 746 335 746 211 l 746 958 q 752 980 746 974 q 774 986 758 986 l 819 986 q 841 980 835 986 q 847 958 847 974 l 847 336 q 751 74 847 169 q 474 -21 656 -21 q 196 74 292 -21 q 100 336 100 169 l 100 958 q 106 980 100 974 q 128 986 113 986 l 174 986 q 195 980 189 986 q 201 958 201 974 l 201 335 z "},"Ý":{"ha":871,"x_min":18,"x_max":853,"o":"m 518 1247 q 565 1244 550 1263 l 586 1219 q 582 1190 603 1199 l 336 1061 q 304 1064 313 1053 l 292 1079 q 293 1107 275 1097 l 518 1247 m 835 986 q 853 978 849 986 q 849 958 857 969 l 486 400 l 486 28 q 480 6 486 13 q 458 0 474 0 l 413 0 q 391 6 397 0 q 385 28 385 13 l 385 401 l 22 958 q 18 978 14 969 q 36 986 22 986 l 93 986 q 128 982 118 986 q 146 961 138 978 l 436 504 l 729 961 q 747 982 738 978 q 782 986 757 986 l 835 986 z "},"Þ":{"ha":861,"x_min":108,"x_max":821,"o":"m 493 821 q 732 735 643 821 q 821 499 821 649 q 733 264 821 350 q 493 178 644 178 l 208 178 l 208 28 q 203 6 208 13 q 182 0 197 0 l 136 0 q 115 6 121 0 q 108 28 108 13 l 108 958 q 115 980 108 974 q 136 986 121 986 l 182 986 q 203 980 197 986 q 208 958 208 974 l 208 821 l 493 821 m 485 272 q 654 333 592 272 q 717 499 717 394 q 653 665 717 603 q 485 728 590 728 l 208 728 l 208 272 l 485 272 z "},"ß":{"ha":763,"x_min":93,"x_max":706,"o":"m 93 733 q 167 958 93 874 q 378 1042 242 1042 q 596 969 522 1042 q 669 763 669 897 q 639 631 669 692 q 543 542 608 569 l 543 538 q 706 285 706 488 q 631 73 706 146 q 419 0 557 0 l 307 0 q 285 6 292 0 q 279 28 279 13 l 279 65 q 285 87 279 81 q 307 93 292 93 l 410 93 q 554 144 504 93 q 604 294 604 196 q 555 435 604 383 q 418 486 506 486 l 310 486 q 283 514 283 486 l 283 550 q 310 578 283 578 l 411 578 q 531 631 490 578 q 571 754 571 683 q 378 949 571 949 q 236 891 286 949 q 186 733 186 833 l 186 28 q 180 6 186 13 q 158 0 174 0 l 121 0 q 99 6 106 0 q 93 28 93 13 l 93 733 z "},"à":{"ha":711,"x_min":51,"x_max":632,"o":"m 225 997 q 272 1000 240 1015 l 497 860 q 500 832 515 851 l 486 817 q 454 814 478 806 l 208 943 q 206 972 189 951 l 225 997 m 75 589 q 354 735 153 735 q 570 660 508 735 q 632 460 632 586 l 632 96 q 622 44 632 60 q 582 17 611 29 q 351 -19 499 -19 q 115 33 179 -19 q 51 196 51 85 q 122 363 51 314 q 357 411 192 411 q 539 397 414 411 l 539 461 q 498 601 539 551 q 351 651 457 651 q 157 550 214 651 q 122 539 142 529 l 89 553 q 75 589 63 563 m 539 321 q 347 333 414 333 q 192 301 238 333 q 147 197 147 269 q 188 92 147 126 q 344 58 229 58 q 513 81 450 58 q 534 94 529 88 q 539 121 539 101 l 539 321 z "},"á":{"ha":711,"x_min":51,"x_max":632,"o":"m 431 1000 q 478 997 463 1015 l 499 972 q 508 959 506 964 q 506 950 510 954 q 494 943 503 946 l 250 814 q 217 817 226 806 l 204 832 q 206 860 189 850 l 431 1000 m 75 589 q 354 735 153 735 q 570 660 508 735 q 632 460 632 586 l 632 96 q 622 44 632 60 q 582 17 611 29 q 351 -19 499 -19 q 115 33 179 -19 q 51 196 51 85 q 122 363 51 314 q 357 411 192 411 q 539 397 414 411 l 539 461 q 498 601 539 551 q 351 651 457 651 q 157 550 214 651 q 122 539 142 529 l 89 553 q 75 589 63 563 m 539 321 q 347 333 414 333 q 192 301 238 333 q 147 197 147 269 q 188 92 147 126 q 344 58 229 58 q 513 81 450 58 q 534 94 529 88 q 539 121 539 101 l 539 321 z "},"â":{"ha":711,"x_min":51,"x_max":632,"o":"m 358 999 q 406 975 382 999 l 575 826 q 563 806 596 806 l 525 806 q 483 819 497 806 l 350 935 l 215 819 q 176 806 201 806 l 140 806 q 126 826 108 806 l 297 975 q 322 995 314 992 q 347 999 329 999 l 358 999 m 75 589 q 354 735 153 735 q 570 660 508 735 q 632 460 632 586 l 632 96 q 622 44 632 60 q 582 17 611 29 q 351 -19 499 -19 q 115 33 179 -19 q 51 196 51 85 q 122 363 51 314 q 357 411 192 411 q 539 397 414 411 l 539 461 q 498 601 539 551 q 351 651 457 651 q 157 550 214 651 q 122 539 142 529 l 89 553 q 75 589 63 563 m 539 321 q 347 333 414 333 q 192 301 238 333 q 147 197 147 269 q 188 92 147 126 q 344 58 229 58 q 513 81 450 58 q 534 94 529 88 q 539 121 539 101 l 539 321 z "},"ã":{"ha":711,"x_min":51,"x_max":632,"o":"m 544 981 q 561 964 561 981 q 453 825 561 825 q 343 872 403 825 q 249 918 283 918 q 193 842 193 918 q 178 825 193 825 l 150 825 q 133 842 133 825 q 240 981 133 981 q 353 934 293 981 q 447 888 414 888 q 501 964 501 888 q 517 981 501 981 l 544 981 m 75 589 q 354 735 153 735 q 570 660 508 735 q 632 460 632 586 l 632 96 q 622 44 632 60 q 582 17 611 29 q 351 -19 499 -19 q 115 33 179 -19 q 51 196 51 85 q 122 363 51 314 q 357 411 192 411 q 539 397 414 411 l 539 461 q 498 601 539 551 q 351 651 457 651 q 157 550 214 651 q 122 539 142 529 l 89 553 q 75 589 63 563 m 539 321 q 347 333 414 333 q 192 301 238 333 q 147 197 147 269 q 188 92 147 126 q 344 58 229 58 q 513 81 450 58 q 534 94 529 88 q 539 121 539 101 l 539 321 z "},"ä":{"ha":711,"x_min":51,"x_max":632,"o":"m 219 954 q 256 944 246 954 q 265 910 265 935 l 265 899 q 256 863 265 872 q 219 853 246 853 l 211 853 q 176 863 185 853 q 167 899 167 872 l 167 910 q 176 944 167 935 q 211 954 185 954 l 219 954 m 489 954 q 525 944 515 954 q 535 910 535 935 l 535 899 q 525 863 535 872 q 489 853 515 853 l 482 853 q 445 863 456 853 q 435 899 435 872 l 435 910 q 445 944 435 935 q 482 954 456 954 l 489 954 m 75 589 q 354 735 153 735 q 570 660 508 735 q 632 460 632 586 l 632 96 q 622 44 632 60 q 582 17 611 29 q 351 -19 499 -19 q 115 33 179 -19 q 51 196 51 85 q 122 363 51 314 q 357 411 192 411 q 539 397 414 411 l 539 461 q 498 601 539 551 q 351 651 457 651 q 157 550 214 651 q 122 539 142 529 l 89 553 q 75 589 63 563 m 539 321 q 347 333 414 333 q 192 301 238 333 q 147 197 147 269 q 188 92 147 126 q 344 58 229 58 q 513 81 450 58 q 534 94 529 88 q 539 121 539 101 l 539 321 z "},"å":{"ha":711,"x_min":51,"x_max":632,"o":"m 253 847 q 233 866 253 847 q 214 946 214 885 q 253 1044 214 1007 q 356 1082 292 1082 q 456 1044 418 1082 q 493 946 493 1007 q 456 847 493 885 q 356 810 418 810 q 253 847 292 810 m 419 882 q 431 894 419 882 q 443 946 443 906 q 419 1010 443 986 q 356 1033 394 1033 q 288 1010 313 1033 q 264 946 264 986 q 288 882 264 906 q 356 858 313 858 q 419 882 394 858 m 75 589 q 354 735 153 735 q 570 660 508 735 q 632 460 632 586 l 632 96 q 622 44 632 60 q 582 17 611 29 q 351 -19 499 -19 q 115 33 179 -19 q 51 196 51 85 q 122 363 51 314 q 357 411 192 411 q 539 397 414 411 l 539 461 q 498 601 539 551 q 351 651 457 651 q 157 550 214 651 q 122 539 142 529 l 89 553 q 75 589 63 563 m 539 321 q 347 333 414 333 q 192 301 238 333 q 147 197 147 269 q 188 92 147 126 q 344 58 229 58 q 513 81 450 58 q 534 94 529 88 q 539 121 539 101 l 539 321 z "},"æ":{"ha":1094,"x_min":53,"x_max":1038,"o":"m 76 589 q 329 735 154 735 q 539 614 489 735 q 763 735 599 735 q 970 658 903 735 q 1038 449 1038 581 l 1038 371 q 996 332 1038 332 l 581 332 l 581 250 q 758 61 581 61 q 869 89 831 61 q 942 175 908 117 q 983 185 958 197 l 1011 168 q 1021 129 1039 156 q 922 18 981 56 q 758 -19 863 -19 q 558 64 619 -19 q 328 -19 486 -19 q 112 31 171 -19 q 53 193 53 82 q 117 360 53 313 q 333 408 181 408 q 486 396 411 408 l 486 472 q 453 605 486 558 q 326 651 421 651 q 158 551 215 651 q 124 539 144 531 l 90 553 q 76 589 64 565 m 944 454 q 763 654 944 654 q 581 454 581 654 l 581 404 l 944 404 l 944 454 m 486 318 q 322 332 393 332 q 185 300 224 332 q 147 194 147 268 q 183 91 147 124 q 319 58 219 58 q 403 67 368 58 q 458 90 439 76 q 484 115 476 104 q 496 135 492 125 q 486 226 486 174 l 486 318 z "},"ç":{"ha":714,"x_min":68,"x_max":664,"o":"m 647 211 q 664 175 674 201 q 400 -18 607 -6 l 368 -103 q 404 -99 383 -99 q 492 -129 460 -99 q 522 -210 525 -160 q 473 -309 518 -276 q 357 -342 428 -342 q 246 -315 290 -342 q 229 -287 229 -306 l 229 -261 q 243 -251 229 -243 q 346 -283 289 -283 q 417 -262 392 -283 q 442 -206 442 -242 q 358 -147 442 -147 q 313 -153 331 -147 q 295 -149 299 -154 q 297 -129 292 -143 l 342 -19 q 138 58 207 -14 q 68 254 68 131 l 68 461 q 144 663 68 590 q 371 735 221 735 q 661 547 604 735 q 644 511 669 521 l 608 499 q 574 515 583 490 q 503 619 551 586 q 368 651 456 651 q 214 602 267 651 q 161 464 161 553 l 161 251 q 215 113 161 163 q 368 63 268 63 q 575 206 531 63 q 611 222 585 229 l 647 211 z "},"è":{"ha":736,"x_min":65,"x_max":681,"o":"m 247 999 q 294 1000 264 1018 l 519 861 q 522 833 536 851 l 508 817 q 476 815 499 806 l 231 943 q 228 974 211 953 l 247 999 m 65 442 q 144 658 65 581 q 372 735 222 735 q 602 656 524 735 q 681 447 681 578 l 681 371 q 639 332 681 332 l 158 332 l 158 251 q 212 111 158 161 q 367 61 265 61 q 585 176 521 61 q 625 186 601 199 l 654 171 q 664 131 681 157 q 367 -19 581 -19 q 140 56 215 -19 q 65 261 65 131 l 65 442 m 588 453 q 533 601 588 547 q 372 654 478 654 q 213 601 268 654 q 158 453 158 547 l 158 404 l 588 404 l 588 453 z "},"é":{"ha":736,"x_min":65,"x_max":681,"o":"m 453 1000 q 500 999 483 1017 l 521 974 q 530 960 528 965 q 528 951 532 956 q 517 943 525 947 l 272 815 q 239 817 250 806 l 226 833 q 228 861 213 851 l 453 1000 m 65 442 q 144 658 65 581 q 372 735 222 735 q 602 656 524 735 q 681 447 681 578 l 681 371 q 639 332 681 332 l 158 332 l 158 251 q 212 111 158 161 q 367 61 265 61 q 585 176 521 61 q 625 186 601 199 l 654 171 q 664 131 681 157 q 367 -19 581 -19 q 140 56 215 -19 q 65 261 65 131 l 65 442 m 588 453 q 533 601 588 547 q 372 654 478 654 q 213 601 268 654 q 158 453 158 547 l 158 404 l 588 404 l 588 453 z "},"ê":{"ha":736,"x_min":65,"x_max":681,"o":"m 381 993 q 426 971 403 993 l 593 825 q 581 804 611 804 l 543 804 q 503 818 517 804 l 372 931 l 240 818 q 201 804 226 804 l 167 804 q 154 825 136 804 l 321 971 q 344 990 336 986 q 369 993 351 993 l 381 993 m 65 442 q 144 658 65 581 q 372 735 222 735 q 602 656 524 735 q 681 447 681 578 l 681 371 q 639 332 681 332 l 158 332 l 158 251 q 212 111 158 161 q 367 61 265 61 q 585 176 521 61 q 625 186 601 199 l 654 171 q 664 131 681 157 q 367 -19 581 -19 q 140 56 215 -19 q 65 261 65 131 l 65 442 m 588 453 q 533 601 588 547 q 372 654 478 654 q 213 601 268 654 q 158 453 158 547 l 158 404 l 588 404 l 588 453 z "},"ë":{"ha":736,"x_min":65,"x_max":681,"o":"m 242 956 q 278 945 268 956 q 288 910 288 935 l 288 899 q 278 864 288 874 q 242 854 268 854 l 233 854 q 198 864 207 854 q 189 899 189 874 l 189 910 q 199 945 189 935 q 233 956 208 956 l 242 956 m 511 956 q 547 945 538 956 q 557 910 557 935 l 557 899 q 547 864 557 874 q 511 854 538 854 l 504 854 q 467 864 478 854 q 457 899 457 874 l 457 910 q 467 945 457 935 q 504 956 478 956 l 511 956 m 65 442 q 144 658 65 581 q 372 735 222 735 q 602 656 524 735 q 681 447 681 578 l 681 371 q 639 332 681 332 l 158 332 l 158 251 q 212 111 158 161 q 367 61 265 61 q 585 176 521 61 q 625 186 601 199 l 654 171 q 664 131 681 157 q 367 -19 581 -19 q 140 56 215 -19 q 65 261 65 131 l 65 442 m 588 453 q 533 601 588 547 q 372 654 478 654 q 213 601 268 654 q 158 453 158 547 l 158 404 l 588 404 l 588 453 z "},"ì":{"ha":276,"x_min":18,"x_max":268,"o":"m 39 993 q 85 996 54 1014 l 265 860 q 268 832 282 849 l 256 817 q 224 815 249 804 l 22 939 q 18 968 1 947 l 39 993 m 161 714 q 186 689 186 714 l 186 25 q 161 0 186 0 l 117 0 q 92 25 92 0 l 92 689 q 117 714 92 714 l 161 714 z "},"í":{"ha":276,"x_min":13,"x_max":263,"o":"m 196 996 q 242 993 226 1014 l 263 968 q 257 939 279 947 l 57 814 q 24 815 32 803 l 13 831 q 15 860 -1 849 l 196 996 m 160 714 q 180 708 175 714 q 185 689 185 703 l 185 25 q 180 6 185 11 q 160 0 175 0 l 117 0 q 97 6 103 0 q 92 25 92 11 l 92 689 q 97 708 92 703 q 117 714 103 714 l 160 714 z "},"î":{"ha":276,"x_min":-43,"x_max":318,"o":"m 318 832 q 306 813 335 813 l 272 813 q 231 826 240 813 l 138 933 l 42 826 q 3 813 33 813 l -29 813 q -43 832 -57 813 l 86 972 q 108 991 100 988 q 135 994 115 994 l 144 994 q 169 991 161 994 q 190 972 176 988 l 318 832 m 160 714 q 180 708 175 714 q 185 689 185 703 l 185 25 q 180 6 185 11 q 160 0 175 0 l 117 0 q 97 6 103 0 q 92 25 92 11 l 92 689 q 97 708 92 703 q 117 714 103 714 l 160 714 z "},"ï":{"ha":276,"x_min":-17,"x_max":293,"o":"m 38 969 q 74 960 64 969 q 83 925 83 950 l 83 914 q 74 878 83 888 q 38 869 64 869 l 29 869 q -7 878 3 869 q -17 914 -17 888 l -17 925 q -7 960 -17 950 q 29 969 3 969 l 38 969 m 247 969 q 283 960 272 969 q 293 925 293 950 l 293 914 q 283 879 293 889 q 247 869 272 869 l 239 869 q 201 878 211 869 q 192 914 192 888 l 192 925 q 202 960 192 950 q 239 969 213 969 l 247 969 m 160 714 q 180 708 175 714 q 185 689 185 703 l 185 25 q 180 6 185 11 q 160 0 175 0 l 117 0 q 97 6 103 0 q 92 25 92 11 l 92 689 q 97 708 92 703 q 117 714 103 714 l 160 714 z "},"ð":{"ha":765,"x_min":67,"x_max":681,"o":"m 578 1038 q 599 1038 586 1047 l 624 1019 q 625 999 635 1010 l 558 928 q 681 554 681 818 l 681 249 q 602 51 681 121 q 375 -19 524 -19 q 145 51 224 -19 q 67 249 67 121 l 67 431 q 143 629 67 557 q 357 701 219 701 q 592 592 535 701 q 497 860 588 779 l 406 763 q 385 761 396 753 l 361 779 q 360 800 350 789 l 446 892 q 203 944 360 944 q 182 949 188 944 q 176 968 176 954 l 175 1004 q 200 1031 175 1031 q 507 963 394 1031 l 578 1038 m 588 432 q 533 569 588 521 q 375 617 478 617 q 215 568 269 617 q 161 431 161 519 l 161 250 q 215 113 161 161 q 375 65 269 65 q 533 113 478 65 q 588 250 588 161 l 588 432 z "},"ñ":{"ha":763,"x_min":89,"x_max":676,"o":"m 574 981 q 590 964 590 981 q 482 826 590 826 q 372 873 432 826 q 278 919 313 919 q 237 899 251 919 q 222 843 222 879 q 207 826 222 826 l 179 826 q 163 843 163 826 q 271 981 163 981 q 349 957 313 981 q 415 910 385 933 q 476 888 446 888 q 531 964 531 888 q 547 981 531 981 l 574 981 m 142 688 q 400 735 257 735 q 676 463 676 735 l 676 25 q 651 0 676 0 l 608 0 q 589 6 594 0 q 583 25 583 11 l 583 460 q 389 649 583 649 q 204 618 290 649 q 183 583 183 608 l 183 25 q 158 0 183 0 l 114 0 q 89 25 89 0 l 89 611 q 99 658 89 643 q 142 688 110 674 z "},"ò":{"ha":749,"x_min":69,"x_max":681,"o":"m 249 997 q 296 1000 264 1015 l 521 860 q 522 832 539 850 l 510 817 q 476 814 501 806 l 232 943 q 228 972 211 951 l 249 997 m 69 479 q 151 667 69 599 q 374 735 232 735 q 599 667 517 735 q 681 479 681 599 l 681 235 q 599 48 681 115 q 374 -19 517 -19 q 151 49 232 -19 q 69 235 69 117 l 69 479 m 586 479 q 529 604 586 558 q 374 650 472 650 q 219 604 276 650 q 163 479 163 558 l 163 235 q 220 110 163 156 q 374 65 278 65 q 529 110 472 65 q 586 235 586 156 l 586 479 z "},"ó":{"ha":749,"x_min":69,"x_max":681,"o":"m 454 1000 q 501 997 486 1015 l 522 972 q 518 943 539 951 l 274 814 q 240 817 249 806 l 228 832 q 229 860 211 850 l 454 1000 m 69 479 q 151 667 69 599 q 374 735 232 735 q 599 667 517 735 q 681 479 681 599 l 681 235 q 599 48 681 115 q 374 -19 517 -19 q 151 49 232 -19 q 69 235 69 117 l 69 479 m 586 479 q 529 604 586 558 q 374 650 472 650 q 219 604 276 650 q 163 479 163 558 l 163 235 q 220 110 163 156 q 374 65 278 65 q 529 110 472 65 q 586 235 586 156 l 586 479 z "},"ô":{"ha":749,"x_min":69,"x_max":681,"o":"m 381 992 q 405 988 397 992 q 428 969 413 985 l 593 824 q 581 804 613 804 l 544 804 q 504 818 517 804 l 374 929 l 242 818 q 203 804 226 804 l 167 804 q 149 810 151 804 q 156 824 147 817 l 322 969 q 345 988 338 985 q 371 992 353 992 l 381 992 m 69 479 q 151 667 69 599 q 374 735 232 735 q 599 667 517 735 q 681 479 681 599 l 681 235 q 599 48 681 115 q 374 -19 517 -19 q 151 49 232 -19 q 69 235 69 117 l 69 479 m 586 479 q 529 604 586 558 q 374 650 472 650 q 219 604 276 650 q 163 479 163 558 l 163 235 q 220 110 163 156 q 374 65 278 65 q 529 110 472 65 q 586 235 586 156 l 586 479 z "},"õ":{"ha":749,"x_min":69,"x_max":681,"o":"m 568 981 q 585 964 585 981 q 476 825 585 825 q 367 872 426 825 q 272 918 307 918 q 217 842 217 918 q 200 825 217 825 l 172 825 q 156 842 156 825 q 264 981 156 981 q 342 957 306 981 q 408 910 378 933 q 469 888 439 888 q 525 964 525 888 q 540 981 525 981 l 568 981 m 69 479 q 151 667 69 599 q 374 735 232 735 q 599 667 517 735 q 681 479 681 599 l 681 235 q 599 48 681 115 q 374 -19 517 -19 q 151 49 232 -19 q 69 235 69 117 l 69 479 m 586 479 q 529 604 586 558 q 374 650 472 650 q 219 604 276 650 q 163 479 163 558 l 163 235 q 220 110 163 156 q 374 65 278 65 q 529 110 472 65 q 586 235 586 156 l 586 479 z "},"ö":{"ha":749,"x_min":69,"x_max":681,"o":"m 243 954 q 279 944 269 954 q 289 910 289 935 l 289 899 q 279 863 289 872 q 243 853 269 853 l 235 853 q 199 863 208 853 q 189 899 189 872 l 189 910 q 199 944 189 935 q 235 954 208 954 l 243 954 m 513 954 q 549 944 539 954 q 558 910 558 935 l 558 899 q 549 863 558 872 q 513 853 539 853 l 504 853 q 468 863 478 853 q 458 899 458 872 l 458 910 q 468 944 458 935 q 504 954 478 954 l 513 954 m 69 479 q 151 667 69 599 q 374 735 232 735 q 599 667 517 735 q 681 479 681 599 l 681 235 q 599 48 681 115 q 374 -19 517 -19 q 151 49 232 -19 q 69 235 69 117 l 69 479 m 586 479 q 529 604 586 558 q 374 650 472 650 q 219 604 276 650 q 163 479 163 558 l 163 235 q 220 110 163 156 q 374 65 278 65 q 529 110 472 65 q 586 235 586 156 l 586 479 z "},"÷":{"ha":803,"x_min":75,"x_max":728,"o":"m 406 783 q 449 771 436 783 q 461 728 461 758 l 461 718 q 449 676 461 688 q 406 664 438 664 l 397 664 q 355 675 367 664 q 343 718 343 686 l 343 728 q 355 772 343 760 q 397 783 367 783 l 406 783 m 701 496 q 722 490 717 496 q 728 468 728 483 l 728 433 q 722 412 728 418 q 701 406 717 406 l 101 406 q 75 433 75 406 l 75 468 q 101 496 75 496 l 701 496 m 406 240 q 449 228 438 240 q 461 186 461 217 l 461 176 q 449 133 461 144 q 406 121 436 121 l 397 121 q 354 133 365 121 q 343 176 343 144 l 343 186 q 355 228 343 217 q 397 240 367 240 l 406 240 z "},"ø":{"ha":749,"x_min":69,"x_max":681,"o":"m 656 767 q 660 757 667 767 l 601 664 q 681 479 681 596 l 681 235 q 599 48 681 115 q 374 -19 517 -19 q 193 21 267 -19 l 156 -40 q 136 -49 149 -49 l 97 -49 q 91 -45 92 -49 q 93 -39 90 -42 l 149 50 q 69 235 69 118 l 69 479 q 151 667 69 599 q 374 735 232 735 q 556 693 481 735 l 597 758 q 615 767 604 767 l 656 767 m 508 618 q 374 650 451 650 q 219 604 276 650 q 163 479 163 558 l 163 235 q 204 138 163 175 l 508 618 m 242 97 q 374 65 294 65 q 529 110 472 65 q 586 235 586 156 l 586 479 q 546 576 586 539 l 242 97 z "},"ù":{"ha":763,"x_min":86,"x_max":674,"o":"m 254 997 q 301 1000 269 1015 l 526 860 q 528 832 544 850 l 515 817 q 482 814 507 806 l 238 943 q 233 972 217 951 l 254 997 m 649 714 q 674 689 674 714 l 674 103 q 663 56 674 71 q 621 26 653 40 q 361 -19 510 -19 q 86 251 86 -19 l 86 689 q 92 708 86 703 q 111 714 97 714 l 154 714 q 174 708 169 714 q 179 689 179 703 l 179 256 q 374 65 179 65 q 554 96 478 65 q 579 135 579 107 l 579 689 q 604 714 579 714 l 649 714 z "},"ú":{"ha":763,"x_min":86,"x_max":674,"o":"m 460 1000 q 507 997 492 1015 l 528 972 q 524 943 544 951 l 279 814 q 246 817 254 806 l 233 832 q 235 860 217 850 l 460 1000 m 649 714 q 674 689 674 714 l 674 103 q 663 56 674 71 q 621 26 653 40 q 361 -19 510 -19 q 86 251 86 -19 l 86 689 q 92 708 86 703 q 111 714 97 714 l 154 714 q 174 708 169 714 q 179 689 179 703 l 179 256 q 374 65 179 65 q 554 96 478 65 q 579 135 579 107 l 579 689 q 604 714 579 714 l 649 714 z "},"û":{"ha":763,"x_min":86,"x_max":674,"o":"m 388 999 q 435 975 411 999 l 604 826 q 592 806 622 806 l 554 806 q 513 819 525 806 l 379 935 l 244 819 q 204 806 229 806 l 168 806 q 156 826 138 806 l 326 975 q 351 995 343 992 q 376 999 358 999 l 388 999 m 649 714 q 674 689 674 714 l 674 103 q 663 56 674 71 q 621 26 653 40 q 361 -19 510 -19 q 86 251 86 -19 l 86 689 q 92 708 86 703 q 111 714 97 714 l 154 714 q 174 708 169 714 q 179 689 179 703 l 179 256 q 374 65 179 65 q 554 96 478 65 q 579 135 579 107 l 579 689 q 604 714 579 714 l 649 714 z "},"ü":{"ha":763,"x_min":86,"x_max":674,"o":"m 249 954 q 285 944 275 954 q 294 910 294 935 l 294 899 q 285 863 294 872 q 249 853 275 853 l 240 853 q 204 863 214 853 q 194 899 194 872 l 194 910 q 204 944 194 935 q 240 954 214 954 l 249 954 m 518 954 q 554 944 544 954 q 564 910 564 935 l 564 899 q 554 863 564 872 q 518 853 544 853 l 510 853 q 474 863 483 853 q 464 899 464 872 l 464 910 q 474 944 464 935 q 510 954 483 954 l 518 954 m 649 714 q 674 689 674 714 l 674 103 q 663 56 674 71 q 621 26 653 40 q 361 -19 510 -19 q 86 251 86 -19 l 86 689 q 92 708 86 703 q 111 714 97 714 l 154 714 q 174 708 169 714 q 179 689 179 703 l 179 256 q 374 65 179 65 q 554 96 478 65 q 579 135 579 107 l 579 689 q 604 714 579 714 l 649 714 z "},"ý":{"ha":765,"x_min":86,"x_max":674,"o":"m 460 1000 q 507 997 492 1015 l 528 972 q 524 943 544 951 l 279 814 q 246 817 254 806 l 233 832 q 235 860 217 850 l 460 1000 m 649 714 q 674 689 674 714 l 674 -43 q 378 -343 674 -343 q 101 -194 182 -343 q 111 -153 85 -167 l 142 -137 q 182 -147 167 -124 q 376 -258 242 -258 q 579 -47 579 -258 l 579 35 q 361 -1 457 -1 q 86 269 86 -1 l 86 689 q 92 708 86 703 q 111 714 97 714 l 154 714 q 174 708 169 714 q 179 689 179 703 l 179 274 q 374 83 179 83 q 579 121 463 83 l 579 689 q 604 714 579 714 l 649 714 z "},"þ":{"ha":749,"x_min":93,"x_max":681,"o":"m 93 1003 q 118 1028 93 1028 l 161 1028 q 186 1003 186 1028 l 186 689 q 392 728 294 728 q 681 450 681 728 l 681 256 q 394 -21 681 -21 q 186 28 297 -21 l 186 -281 q 181 -300 186 -294 q 161 -306 175 -306 l 118 -306 q 98 -300 103 -306 q 93 -281 93 -294 l 93 1003 m 586 447 q 379 642 586 642 q 186 600 293 642 l 186 113 q 389 64 303 64 q 586 258 586 64 l 586 447 z "},"ÿ":{"ha":765,"x_min":86,"x_max":674,"o":"m 249 954 q 285 944 275 954 q 294 910 294 935 l 294 899 q 285 863 294 872 q 249 853 275 853 l 240 853 q 204 863 214 853 q 194 899 194 872 l 194 910 q 204 944 194 935 q 240 954 214 954 l 249 954 m 518 954 q 554 944 544 954 q 564 910 564 935 l 564 899 q 554 863 564 872 q 518 853 544 853 l 510 853 q 474 863 483 853 q 464 899 464 872 l 464 910 q 474 944 464 935 q 510 954 483 954 l 518 954 m 649 714 q 674 689 674 714 l 674 -43 q 378 -343 674 -343 q 101 -194 182 -343 q 111 -153 85 -167 l 142 -137 q 182 -147 167 -124 q 376 -258 242 -258 q 579 -47 579 -258 l 579 35 q 361 -1 457 -1 q 86 269 86 -1 l 86 689 q 92 708 86 703 q 111 714 97 714 l 154 714 q 174 708 169 714 q 179 689 179 703 l 179 274 q 374 83 179 83 q 579 121 463 83 l 579 689 q 604 714 579 714 l 649 714 z "},"Ā":{"ha":890,"x_min":17,"x_max":874,"o":"m 608 1181 q 627 1176 622 1181 q 632 1157 632 1171 l 632 1135 q 627 1116 632 1121 q 608 1111 622 1111 l 281 1111 q 262 1116 267 1111 q 257 1135 257 1121 l 257 1157 q 281 1181 257 1181 l 608 1181 m 874 26 q 854 0 885 0 l 814 0 q 764 25 771 0 l 660 289 l 225 289 l 121 25 q 107 5 117 10 q 72 0 97 0 l 35 0 q 17 26 6 0 l 389 967 q 424 990 397 990 l 465 990 q 501 968 493 990 l 874 26 m 465 799 q 446 894 446 854 l 439 894 q 422 799 439 850 l 254 372 l 632 372 l 465 799 z "},"ā":{"ha":711,"x_min":51,"x_max":632,"o":"m 514 932 q 533 927 528 932 q 538 908 538 922 l 538 886 q 533 867 538 872 q 514 863 528 863 l 188 863 q 169 867 174 863 q 164 886 164 872 l 164 908 q 188 932 164 932 l 514 932 m 75 589 q 354 735 153 735 q 570 660 508 735 q 632 460 632 586 l 632 96 q 622 44 632 60 q 582 17 611 29 q 351 -19 499 -19 q 115 33 179 -19 q 51 196 51 85 q 122 363 51 314 q 357 411 192 411 q 539 397 414 411 l 539 461 q 498 601 539 551 q 351 651 457 651 q 157 550 214 651 q 122 539 142 529 l 89 553 q 75 589 63 563 m 539 321 q 347 333 414 333 q 192 301 238 333 q 147 197 147 269 q 188 92 147 126 q 344 58 229 58 q 513 81 450 58 q 534 94 529 88 q 539 121 539 101 l 539 321 z "},"Ă":{"ha":890,"x_min":17,"x_max":874,"o":"m 656 1210 q 444 1060 610 1060 q 235 1210 281 1060 q 246 1235 229 1228 l 279 1247 q 306 1238 299 1253 q 444 1129 335 1129 q 585 1238 554 1129 q 607 1247 592 1253 l 644 1235 q 656 1210 661 1228 m 874 26 q 854 0 885 0 l 814 0 q 764 25 771 0 l 660 289 l 225 289 l 121 25 q 107 5 117 10 q 72 0 97 0 l 35 0 q 17 26 6 0 l 389 967 q 424 990 397 990 l 465 990 q 501 968 493 990 l 874 26 m 465 799 q 446 894 446 854 l 439 894 q 422 799 439 850 l 254 372 l 632 372 l 465 799 z "},"ă":{"ha":711,"x_min":51,"x_max":632,"o":"m 561 961 q 350 810 517 810 q 140 961 186 810 q 153 985 135 976 l 186 997 q 211 988 204 1003 q 350 881 242 881 q 490 988 460 881 q 513 999 497 1003 l 550 985 q 561 961 568 976 m 75 589 q 354 735 153 735 q 570 660 508 735 q 632 460 632 586 l 632 96 q 622 44 632 60 q 582 17 611 29 q 351 -19 499 -19 q 115 33 179 -19 q 51 196 51 85 q 122 363 51 314 q 357 411 192 411 q 539 397 414 411 l 539 461 q 498 601 539 551 q 351 651 457 651 q 157 550 214 651 q 122 539 142 529 l 89 553 q 75 589 63 563 m 539 321 q 347 333 414 333 q 192 301 238 333 q 147 197 147 269 q 188 92 147 126 q 344 58 229 58 q 513 81 450 58 q 534 94 529 88 q 539 121 539 101 l 539 321 z "},"Ą":{"ha":889,"x_min":17,"x_max":893,"o":"m 467 990 q 501 968 494 990 l 872 28 q 871 1 881 11 q 764 -126 800 -58 q 740 -232 728 -194 q 793 -272 754 -272 q 865 -242 835 -272 q 882 -246 878 -232 l 893 -274 q 890 -293 899 -286 q 765 -343 840 -343 q 660 -271 678 -343 q 679 -140 643 -214 q 799 4 715 -65 q 774 10 781 6 q 763 29 767 15 l 658 296 l 229 296 l 122 25 q 72 0 114 0 l 36 0 q 17 26 6 0 l 389 967 q 424 990 397 990 l 467 990 m 524 656 q 481 789 506 707 q 447 893 456 871 l 440 893 q 407 789 431 871 q 364 657 383 707 l 258 381 l 628 381 l 524 656 z "},"ą":{"ha":715,"x_min":51,"x_max":635,"o":"m 75 589 q 354 735 153 735 q 570 660 508 735 q 632 460 632 586 l 632 96 q 615 35 632 51 q 503 -116 539 -39 q 482 -232 468 -193 q 536 -271 494 -271 q 607 -240 576 -271 q 624 -244 617 -232 l 635 -274 q 632 -293 640 -285 q 508 -343 579 -343 q 401 -271 418 -343 q 416 -143 385 -218 q 515 -3 447 -68 q 351 -19 449 -19 q 115 33 179 -19 q 51 196 51 85 q 122 363 51 314 q 357 411 192 411 q 539 397 414 411 l 539 461 q 498 601 539 551 q 351 651 457 651 q 157 550 214 651 q 122 539 142 529 l 89 553 q 75 589 63 563 m 539 321 q 347 333 414 333 q 192 301 238 333 q 147 197 147 269 q 188 92 147 126 q 344 58 229 58 q 513 81 450 58 q 534 94 529 88 q 539 121 539 101 l 539 321 z "},"Ć":{"ha":883,"x_min":79,"x_max":832,"o":"m 544 1247 q 592 1244 576 1263 l 613 1219 q 608 1190 629 1199 l 363 1061 q 331 1064 339 1053 l 318 1079 q 319 1107 301 1097 l 544 1247 m 79 657 q 177 913 79 821 q 460 1006 275 1006 q 703 947 615 1006 q 829 768 792 888 q 831 745 835 753 q 813 732 828 738 l 769 717 q 733 733 743 710 q 641 869 704 826 q 460 913 578 913 q 252 846 324 913 q 181 658 181 779 l 181 328 q 253 141 181 208 q 460 74 325 74 q 643 118 579 74 q 736 257 707 163 q 772 275 747 282 l 815 258 q 832 224 840 249 q 706 42 794 103 q 460 -19 617 -19 q 178 73 278 -19 q 79 329 79 165 l 79 657 z "},"ć":{"ha":715,"x_min":68,"x_max":664,"o":"m 451 1000 q 499 997 483 1015 l 519 972 q 528 959 526 964 q 527 950 531 954 q 515 943 524 946 l 271 814 q 238 817 247 806 l 225 832 q 226 860 210 850 l 451 1000 m 68 461 q 144 663 68 590 q 371 735 221 735 q 661 547 604 735 q 644 511 669 521 l 608 499 q 574 515 583 490 q 503 619 551 586 q 368 651 456 651 q 214 602 267 651 q 161 464 161 553 l 161 251 q 215 113 161 163 q 368 63 268 63 q 575 206 531 63 q 611 222 585 229 l 647 211 q 664 175 674 201 q 365 -19 600 -19 q 144 53 219 -19 q 68 254 68 125 l 68 461 z "},"Ĉ":{"ha":883,"x_min":79,"x_max":832,"o":"m 471 1251 q 496 1248 488 1251 q 519 1229 504 1244 l 689 1079 q 676 1060 708 1060 l 639 1060 q 597 1074 610 1060 l 464 1188 l 329 1074 q 289 1060 314 1060 l 253 1060 q 240 1079 221 1060 l 411 1229 q 435 1248 428 1244 q 461 1251 443 1251 l 471 1251 m 79 657 q 177 913 79 821 q 460 1006 275 1006 q 703 947 615 1006 q 829 768 792 888 q 831 745 835 753 q 813 732 828 738 l 769 717 q 733 733 743 710 q 641 869 704 826 q 460 913 578 913 q 252 846 324 913 q 181 658 181 779 l 181 328 q 253 141 181 208 q 460 74 325 74 q 643 118 579 74 q 736 257 707 163 q 772 275 747 282 l 815 258 q 832 224 840 249 q 706 42 794 103 q 460 -19 617 -19 q 178 73 278 -19 q 79 329 79 165 l 79 657 z "},"ĉ":{"ha":715,"x_min":68,"x_max":664,"o":"m 379 992 q 402 988 394 992 q 425 969 410 985 l 592 824 q 597 810 600 817 q 579 804 594 804 l 542 804 q 501 818 514 804 l 371 929 l 239 818 q 200 804 225 804 l 165 804 q 153 824 133 804 l 319 969 q 342 988 335 985 q 368 992 350 992 l 379 992 m 68 461 q 144 663 68 590 q 371 735 221 735 q 661 547 604 735 q 644 511 669 521 l 608 499 q 574 515 583 490 q 503 619 551 586 q 368 651 456 651 q 214 602 267 651 q 161 464 161 553 l 161 251 q 215 113 161 163 q 368 63 268 63 q 575 206 531 63 q 611 222 585 229 l 647 211 q 664 175 674 201 q 365 -19 600 -19 q 144 53 219 -19 q 68 254 68 125 l 68 461 z "},"Ċ":{"ha":883,"x_min":79,"x_max":832,"o":"m 468 1197 q 504 1188 494 1197 q 514 1150 514 1178 l 514 1142 q 504 1105 514 1114 q 468 1096 494 1096 l 461 1096 q 424 1106 433 1096 q 414 1142 414 1115 l 414 1150 q 424 1188 414 1178 q 461 1197 433 1197 l 468 1197 m 79 657 q 177 913 79 821 q 460 1006 275 1006 q 703 947 615 1006 q 829 768 792 888 q 831 745 835 753 q 813 732 828 738 l 769 717 q 733 733 743 710 q 641 869 704 826 q 460 913 578 913 q 252 846 324 913 q 181 658 181 779 l 181 328 q 253 141 181 208 q 460 74 325 74 q 643 118 579 74 q 736 257 707 163 q 772 275 747 282 l 815 258 q 832 224 840 249 q 706 42 794 103 q 460 -19 617 -19 q 178 73 278 -19 q 79 329 79 165 l 79 657 z "},"ċ":{"ha":715,"x_min":68,"x_max":664,"o":"m 375 949 q 413 938 403 949 q 422 901 422 928 l 422 894 q 413 857 422 867 q 375 847 403 847 l 368 847 q 331 857 340 847 q 321 894 321 867 l 321 901 q 331 938 321 928 q 368 949 342 949 l 375 949 m 68 461 q 144 663 68 590 q 371 735 221 735 q 661 547 604 735 q 644 511 669 521 l 608 499 q 574 515 583 490 q 503 619 551 586 q 368 651 456 651 q 214 602 267 651 q 161 464 161 553 l 161 251 q 215 113 161 163 q 368 63 268 63 q 575 206 531 63 q 611 222 585 229 l 647 211 q 664 175 674 201 q 365 -19 600 -19 q 144 53 219 -19 q 68 254 68 125 l 68 461 z "},"Č":{"ha":883,"x_min":79,"x_max":832,"o":"m 674 1251 q 692 1244 689 1251 q 686 1231 694 1238 l 517 1082 q 469 1058 493 1058 l 458 1058 q 433 1062 440 1058 q 408 1082 425 1065 l 239 1231 q 233 1244 231 1238 q 250 1251 235 1251 l 286 1251 q 326 1238 311 1251 l 461 1122 l 594 1238 q 636 1251 608 1251 l 674 1251 m 79 657 q 177 913 79 821 q 460 1006 275 1006 q 703 947 615 1006 q 829 768 792 888 q 831 745 835 753 q 813 732 828 738 l 769 717 q 733 733 743 710 q 641 869 704 826 q 460 913 578 913 q 252 846 324 913 q 181 658 181 779 l 181 328 q 253 141 181 208 q 460 74 325 74 q 643 118 579 74 q 736 257 707 163 q 772 275 747 282 l 815 258 q 832 224 840 249 q 706 42 794 103 q 460 -19 617 -19 q 178 73 278 -19 q 79 329 79 165 l 79 657 z "},"č":{"ha":715,"x_min":68,"x_max":664,"o":"m 564 976 q 580 969 578 976 q 575 956 582 963 l 419 818 q 376 797 397 797 l 367 797 q 342 801 350 797 q 321 818 335 804 l 164 957 q 175 976 147 976 l 210 976 q 246 963 232 976 l 369 857 l 490 963 q 529 976 504 976 l 564 976 m 68 461 q 144 663 68 590 q 371 735 221 735 q 661 547 604 735 q 644 511 669 521 l 608 499 q 574 515 583 490 q 503 619 551 586 q 368 651 456 651 q 214 602 267 651 q 161 464 161 553 l 161 251 q 215 113 161 163 q 368 63 268 63 q 575 206 531 63 q 611 222 585 229 l 647 211 q 664 175 674 201 q 365 -19 600 -19 q 144 53 219 -19 q 68 254 68 125 l 68 461 z "},"Ď":{"ha":907,"x_min":108,"x_max":832,"o":"m 640 1251 q 658 1244 656 1251 q 653 1231 661 1238 l 483 1082 q 459 1062 467 1065 q 436 1058 451 1058 l 425 1058 q 399 1062 407 1058 q 375 1082 392 1065 l 206 1231 q 200 1244 197 1238 q 218 1251 203 1251 l 254 1251 q 293 1238 279 1251 l 429 1122 l 561 1238 q 603 1251 575 1251 l 640 1251 m 429 986 q 726 888 621 986 q 832 619 832 790 l 832 367 q 726 98 832 196 q 429 0 621 0 l 136 0 q 115 6 121 0 q 108 28 108 13 l 108 958 q 115 980 108 974 q 136 986 121 986 l 429 986 m 731 619 q 653 821 731 750 q 429 892 575 892 l 208 892 l 208 94 l 429 94 q 653 165 575 94 q 731 367 731 236 l 731 619 z "},"ď":{"ha":799,"x_min":69,"x_max":899,"o":"m 69 457 q 138 663 69 590 q 343 735 206 735 q 563 694 446 735 l 563 1003 q 588 1028 563 1028 l 631 1028 q 650 1022 644 1028 q 656 1003 656 1017 l 656 97 q 645 50 656 64 q 601 22 635 36 q 361 -19 503 -19 q 69 258 69 -19 l 69 457 m 826 731 q 817 712 822 717 q 800 707 813 707 l 775 707 q 760 710 764 707 q 758 725 757 714 l 811 1003 q 840 1028 814 1028 l 876 1028 q 899 1003 907 1028 l 826 731 m 563 607 q 360 649 456 649 q 163 454 163 649 l 163 260 q 369 65 163 65 q 536 92 463 65 q 558 105 553 99 q 563 128 563 111 l 563 607 z "},"Đ":{"ha":922,"x_min":3,"x_max":847,"o":"m 444 986 q 742 888 636 986 q 847 619 847 790 l 847 367 q 742 98 847 196 q 444 0 636 0 l 151 0 q 130 6 136 0 q 124 28 124 13 l 124 467 l 22 467 q 3 486 3 467 l 3 515 q 22 535 3 535 l 124 535 l 124 958 q 130 980 124 974 q 151 986 136 986 l 444 986 m 747 619 q 669 821 747 750 q 446 892 592 892 l 225 892 l 225 535 l 464 535 q 482 515 482 535 l 482 486 q 464 467 482 467 l 225 467 l 225 94 l 446 94 q 669 165 590 94 q 747 367 747 236 l 747 619 z "},"đ":{"ha":747,"x_min":71,"x_max":769,"o":"m 751 908 q 769 889 769 908 l 769 867 q 751 847 769 847 l 658 847 l 658 97 q 647 50 658 64 q 603 22 636 36 q 363 -19 504 -19 q 71 258 71 -19 l 71 457 q 140 662 71 590 q 346 733 208 733 q 564 694 456 733 l 564 847 l 353 847 q 335 867 335 847 l 335 889 q 353 908 335 908 l 564 908 l 564 1003 q 589 1028 564 1028 l 633 1028 q 658 1003 658 1028 l 658 908 l 751 908 m 564 607 q 361 649 457 649 q 164 454 164 649 l 164 260 q 371 65 164 65 q 539 92 465 65 q 560 105 556 99 q 564 128 564 111 l 564 607 z "},"Ē":{"ha":796,"x_min":108,"x_max":743,"o":"m 581 1181 q 600 1176 594 1181 q 606 1157 606 1171 l 606 1135 q 600 1116 606 1121 q 581 1111 594 1111 l 254 1111 q 235 1116 240 1111 q 231 1135 231 1121 l 231 1157 q 254 1181 231 1181 l 581 1181 m 699 986 q 725 958 725 986 l 725 919 q 699 892 725 892 l 208 892 l 208 547 l 636 547 q 663 519 663 547 l 663 481 q 636 453 663 453 l 208 453 l 208 94 l 717 94 q 743 67 743 94 l 743 28 q 717 0 743 0 l 136 0 q 115 6 121 0 q 108 28 108 13 l 108 958 q 115 980 108 974 q 136 986 121 986 l 699 986 z "},"ē":{"ha":736,"x_min":65,"x_max":681,"o":"m 522 924 q 540 919 536 924 q 544 900 544 914 l 544 881 q 540 862 544 867 q 522 857 536 857 l 222 857 q 206 862 210 857 q 201 881 201 867 l 201 900 q 222 924 201 924 l 522 924 m 65 442 q 144 658 65 581 q 372 735 222 735 q 602 656 524 735 q 681 447 681 578 l 681 371 q 639 332 681 332 l 158 332 l 158 251 q 212 111 158 161 q 367 61 265 61 q 585 176 521 61 q 625 186 601 199 l 654 171 q 664 131 681 157 q 367 -19 581 -19 q 140 56 215 -19 q 65 261 65 131 l 65 442 m 588 453 q 533 601 588 547 q 372 654 478 654 q 213 601 268 654 q 158 453 158 547 l 158 404 l 588 404 l 588 453 z "},"Ĕ":{"ha":796,"x_min":108,"x_max":743,"o":"m 629 1210 q 418 1060 583 1060 q 208 1210 253 1060 q 219 1235 201 1226 l 253 1247 q 278 1238 272 1253 q 418 1129 308 1129 q 557 1238 526 1129 q 579 1247 564 1253 l 617 1235 q 629 1210 635 1226 m 699 986 q 725 958 725 986 l 725 919 q 699 892 725 892 l 208 892 l 208 547 l 636 547 q 663 519 663 547 l 663 481 q 636 453 663 453 l 208 453 l 208 94 l 717 94 q 743 67 743 94 l 743 28 q 717 0 743 0 l 136 0 q 115 6 121 0 q 108 28 108 13 l 108 958 q 115 980 108 974 q 136 986 121 986 l 699 986 z "},"ĕ":{"ha":736,"x_min":65,"x_max":681,"o":"m 583 961 q 372 811 539 811 q 163 961 208 811 q 175 986 157 978 l 208 999 q 233 989 226 1004 q 372 881 264 881 q 513 989 482 881 q 535 999 519 1004 l 572 986 q 583 961 590 978 m 65 442 q 144 658 65 581 q 372 735 222 735 q 602 656 524 735 q 681 447 681 578 l 681 371 q 639 332 681 332 l 158 332 l 158 251 q 212 111 158 161 q 367 61 265 61 q 585 176 521 61 q 625 186 601 199 l 654 171 q 664 131 681 157 q 367 -19 581 -19 q 140 56 215 -19 q 65 261 65 131 l 65 442 m 588 453 q 533 601 588 547 q 372 654 478 654 q 213 601 268 654 q 158 453 158 547 l 158 404 l 588 404 l 588 453 z "},"Ė":{"ha":796,"x_min":108,"x_max":743,"o":"m 421 1197 q 458 1188 447 1197 q 468 1150 468 1178 l 468 1142 q 458 1106 468 1115 q 421 1096 449 1096 l 414 1096 q 376 1106 386 1096 q 367 1142 367 1115 l 367 1150 q 376 1188 367 1178 q 414 1197 386 1197 l 421 1197 m 699 986 q 725 958 725 986 l 725 919 q 699 892 725 892 l 208 892 l 208 547 l 636 547 q 663 519 663 547 l 663 481 q 636 453 663 453 l 208 453 l 208 94 l 717 94 q 743 67 743 94 l 743 28 q 717 0 743 0 l 136 0 q 115 6 121 0 q 108 28 108 13 l 108 958 q 115 980 108 974 q 136 986 121 986 l 699 986 z "},"ė":{"ha":736,"x_min":65,"x_max":681,"o":"m 376 950 q 413 940 403 950 q 424 903 424 931 l 424 894 q 413 857 424 867 q 376 847 403 847 l 369 847 q 332 857 342 847 q 322 894 322 867 l 322 903 q 332 940 322 931 q 369 950 342 950 l 376 950 m 65 442 q 144 658 65 581 q 372 735 222 735 q 602 656 524 735 q 681 447 681 578 l 681 371 q 639 332 681 332 l 158 332 l 158 251 q 212 111 158 161 q 367 61 265 61 q 585 176 521 61 q 625 186 601 199 l 654 171 q 664 131 681 157 q 367 -19 581 -19 q 140 56 215 -19 q 65 261 65 131 l 65 442 m 588 453 q 533 601 588 547 q 372 654 478 654 q 213 601 268 654 q 158 453 158 547 l 158 404 l 588 404 l 588 453 z "},"Ę":{"ha":796,"x_min":108,"x_max":744,"o":"m 699 986 q 725 958 725 986 l 725 919 q 699 892 725 892 l 208 892 l 208 546 l 636 546 q 663 518 663 546 l 663 479 q 636 451 663 451 l 208 451 l 208 94 l 717 94 q 743 67 743 94 l 743 28 q 735 4 743 13 q 617 -128 653 -64 q 594 -231 581 -192 q 649 -268 608 -268 q 717 -239 689 -268 q 733 -243 729 -231 l 744 -272 q 743 -290 750 -285 q 619 -340 693 -340 q 551 -322 581 -340 q 513 -269 522 -303 q 533 -140 494 -214 q 658 0 572 -67 l 136 0 q 115 6 121 0 q 108 28 108 13 l 108 958 q 115 980 108 974 q 136 986 121 986 l 699 986 z "},"ę":{"ha":736,"x_min":65,"x_max":681,"o":"m 65 442 q 144 658 65 581 q 372 735 222 735 q 602 656 524 735 q 681 447 681 578 l 681 371 q 639 332 681 332 l 158 332 l 158 251 q 212 111 158 161 q 367 61 265 61 q 585 176 521 61 q 625 186 601 199 l 654 171 q 664 131 681 157 q 610 60 643 92 q 497 -107 536 -21 q 472 -232 458 -193 q 528 -272 485 -272 q 599 -240 567 -272 q 614 -244 610 -232 l 625 -274 q 624 -293 631 -286 q 499 -343 569 -343 q 392 -271 411 -343 q 407 -145 376 -219 q 504 3 438 -71 q 367 -19 444 -19 q 140 56 215 -19 q 65 261 65 131 l 65 442 m 588 453 q 533 601 588 547 q 372 654 478 654 q 213 601 268 654 q 158 453 158 547 l 158 404 l 588 404 l 588 453 z "},"Ě":{"ha":796,"x_min":108,"x_max":743,"o":"m 628 1251 q 645 1244 643 1251 q 639 1231 647 1238 l 469 1082 q 445 1062 453 1065 q 422 1058 438 1058 l 411 1058 q 385 1062 393 1058 q 363 1082 378 1065 l 192 1231 q 186 1244 183 1238 q 204 1251 189 1251 l 240 1251 q 279 1238 265 1251 l 415 1122 l 547 1238 q 589 1251 561 1251 l 628 1251 m 699 986 q 725 958 725 986 l 725 919 q 699 892 725 892 l 208 892 l 208 547 l 636 547 q 663 519 663 547 l 663 481 q 636 453 663 453 l 208 453 l 208 94 l 717 94 q 743 67 743 94 l 743 28 q 717 0 743 0 l 136 0 q 115 6 121 0 q 108 28 108 13 l 108 958 q 115 980 108 974 q 136 986 121 986 l 699 986 z "},"ě":{"ha":736,"x_min":65,"x_max":681,"o":"m 565 976 q 576 957 593 976 l 421 819 q 378 799 400 799 l 368 799 q 344 802 351 799 q 322 819 336 806 l 165 957 q 176 976 151 976 l 211 976 q 247 964 233 976 l 371 857 l 492 964 q 531 976 504 976 l 565 976 m 65 442 q 144 658 65 581 q 372 735 222 735 q 602 656 524 735 q 681 447 681 578 l 681 371 q 639 332 681 332 l 158 332 l 158 251 q 212 111 158 161 q 367 61 265 61 q 585 176 521 61 q 625 186 601 199 l 654 171 q 664 131 681 157 q 367 -19 581 -19 q 140 56 215 -19 q 65 261 65 131 l 65 442 m 588 453 q 533 601 588 547 q 372 654 478 654 q 213 601 268 654 q 158 453 158 547 l 158 404 l 588 404 l 588 453 z "},"Ĝ":{"ha":910,"x_min":79,"x_max":842,"o":"m 468 1265 q 515 1243 493 1265 l 685 1093 q 691 1080 694 1086 q 672 1074 688 1074 l 635 1074 q 593 1088 607 1074 l 460 1201 l 325 1088 q 286 1074 311 1074 l 250 1074 q 231 1080 235 1074 q 236 1093 228 1086 l 407 1243 q 431 1262 424 1258 q 457 1265 439 1265 l 468 1265 m 814 511 q 835 505 829 511 q 842 483 842 499 l 842 313 q 742 70 842 160 q 461 -19 643 -19 q 178 74 276 -19 q 79 331 79 167 l 79 657 q 177 913 79 821 q 460 1006 275 1006 q 703 947 615 1006 q 829 768 792 888 q 831 745 835 753 q 813 732 828 738 l 769 717 q 733 733 743 710 q 641 869 704 826 q 460 913 578 913 q 251 846 322 913 q 179 658 179 779 l 179 331 q 252 141 179 208 q 461 74 325 74 q 669 138 596 74 q 743 313 743 203 l 743 417 l 475 417 q 453 423 460 417 q 447 444 447 429 l 447 483 q 453 505 447 499 q 475 511 460 511 l 814 511 z "},"ĝ":{"ha":744,"x_min":68,"x_max":656,"o":"m 389 992 q 412 988 404 992 q 435 969 419 985 l 601 824 q 607 810 610 817 q 589 804 604 804 l 551 804 q 511 818 524 804 l 382 929 l 249 818 q 210 804 235 804 l 175 804 q 163 824 143 804 l 329 969 q 352 988 344 985 q 378 992 360 992 l 389 992 m 68 450 q 368 735 68 735 q 603 693 503 735 q 646 665 636 678 q 656 617 656 651 l 656 -43 q 363 -343 656 -343 q 88 -194 168 -343 q 97 -153 69 -168 l 128 -137 q 168 -147 153 -124 q 360 -258 228 -258 q 563 -47 563 -258 l 563 39 q 343 -3 450 -3 q 68 268 68 -3 l 68 450 m 536 622 q 374 649 465 649 q 163 449 163 649 l 163 271 q 354 83 163 83 q 563 124 456 83 l 563 586 q 558 609 563 603 q 536 622 554 615 z "},"Ğ":{"ha":910,"x_min":79,"x_max":842,"o":"m 671 1224 q 460 1074 628 1074 q 250 1224 296 1074 q 263 1249 244 1240 l 296 1261 q 321 1251 314 1267 q 460 1143 351 1143 q 600 1251 569 1143 q 622 1261 607 1267 l 660 1249 q 671 1224 678 1240 m 814 511 q 835 505 829 511 q 842 483 842 499 l 842 313 q 742 70 842 160 q 461 -19 643 -19 q 178 74 276 -19 q 79 331 79 167 l 79 657 q 177 913 79 821 q 460 1006 275 1006 q 703 947 615 1006 q 829 768 792 888 q 831 745 835 753 q 813 732 828 738 l 769 717 q 733 733 743 710 q 641 869 704 826 q 460 913 578 913 q 251 846 322 913 q 179 658 179 779 l 179 331 q 252 141 179 208 q 461 74 325 74 q 669 138 596 74 q 743 313 743 203 l 743 417 l 475 417 q 453 423 460 417 q 447 444 447 429 l 447 483 q 453 505 447 499 q 475 511 460 511 l 814 511 z "},"ğ":{"ha":744,"x_min":68,"x_max":656,"o":"m 593 961 q 382 810 547 810 q 172 961 217 810 q 183 985 165 976 l 217 997 q 242 988 236 1003 q 382 881 272 881 q 521 988 490 881 q 543 999 528 1003 l 581 985 q 593 961 599 976 m 68 450 q 368 735 68 735 q 603 693 503 735 q 646 665 636 678 q 656 617 656 651 l 656 -43 q 363 -343 656 -343 q 88 -194 168 -343 q 97 -153 69 -168 l 128 -137 q 168 -147 153 -124 q 360 -258 228 -258 q 563 -47 563 -258 l 563 39 q 343 -3 450 -3 q 68 268 68 -3 l 68 450 m 536 622 q 374 649 465 649 q 163 449 163 649 l 163 271 q 354 83 163 83 q 563 124 456 83 l 563 586 q 558 609 563 603 q 536 622 554 615 z "},"Ġ":{"ha":910,"x_min":79,"x_max":842,"o":"m 464 1211 q 501 1201 492 1211 q 511 1164 511 1192 l 511 1156 q 501 1119 511 1129 q 464 1110 492 1110 l 457 1110 q 419 1119 429 1110 q 410 1156 410 1129 l 410 1164 q 420 1201 410 1192 q 457 1211 431 1211 l 464 1211 m 814 511 q 835 505 829 511 q 842 483 842 499 l 842 313 q 742 70 842 160 q 461 -19 643 -19 q 178 74 276 -19 q 79 331 79 167 l 79 657 q 177 913 79 821 q 460 1006 275 1006 q 703 947 615 1006 q 829 768 792 888 q 831 745 835 753 q 813 732 828 738 l 769 717 q 733 733 743 710 q 641 869 704 826 q 460 913 578 913 q 251 846 322 913 q 179 658 179 779 l 179 331 q 252 141 179 208 q 461 74 325 74 q 669 138 596 74 q 743 313 743 203 l 743 417 l 475 417 q 453 423 460 417 q 447 444 447 429 l 447 483 q 453 505 447 499 q 475 511 460 511 l 814 511 z "},"ġ":{"ha":744,"x_min":68,"x_max":656,"o":"m 385 949 q 422 938 411 949 q 432 901 432 928 l 432 894 q 422 857 432 867 q 385 847 411 847 l 378 847 q 340 857 350 847 q 331 894 331 867 l 331 901 q 340 938 331 928 q 378 949 350 949 l 385 949 m 68 450 q 368 735 68 735 q 603 693 503 735 q 646 665 636 678 q 656 617 656 651 l 656 -43 q 363 -343 656 -343 q 88 -194 168 -343 q 97 -153 69 -168 l 128 -137 q 168 -147 153 -124 q 360 -258 228 -258 q 563 -47 563 -258 l 563 39 q 343 -3 450 -3 q 68 268 68 -3 l 68 450 m 536 622 q 374 649 465 649 q 163 449 163 649 l 163 271 q 354 83 163 83 q 563 124 456 83 l 563 586 q 558 609 563 603 q 536 622 554 615 z "},"Ģ":{"ha":910,"x_min":79,"x_max":842,"o":"m 814 511 q 835 505 829 511 q 842 483 842 499 l 842 313 q 742 70 842 160 q 461 -19 643 -19 q 178 74 276 -19 q 79 331 79 167 l 79 657 q 177 913 79 821 q 460 1006 275 1006 q 703 947 615 1006 q 829 768 792 888 q 831 745 835 753 q 813 732 828 738 l 769 717 q 733 733 743 710 q 641 869 704 826 q 460 913 578 913 q 251 846 322 913 q 179 658 179 779 l 179 331 q 252 141 179 208 q 461 74 325 74 q 669 138 596 74 q 743 313 743 203 l 743 417 l 475 417 q 453 423 460 417 q 447 444 447 429 l 447 483 q 453 505 447 499 q 475 511 460 511 l 814 511 m 469 -322 q 440 -346 463 -346 l 410 -346 q 393 -328 389 -346 l 439 -126 q 447 -106 440 -111 q 469 -100 454 -100 l 511 -100 q 535 -128 546 -100 l 469 -322 z "},"ģ":{"ha":746,"x_min":68,"x_max":656,"o":"m 386 997 q 398 1017 392 1013 q 418 1021 404 1021 l 443 1021 q 461 1001 465 1021 l 408 826 q 400 803 407 808 q 376 797 393 797 l 342 797 q 319 828 307 797 l 386 997 m 68 450 q 368 735 68 735 q 603 693 503 735 q 646 665 636 678 q 656 617 656 651 l 656 -43 q 363 -343 656 -343 q 88 -194 168 -343 q 97 -153 69 -168 l 128 -137 q 168 -147 153 -124 q 360 -258 228 -258 q 563 -47 563 -258 l 563 39 q 343 -3 450 -3 q 68 268 68 -3 l 68 450 m 536 622 q 374 649 465 649 q 163 449 163 649 l 163 271 q 354 83 163 83 q 563 124 456 83 l 563 586 q 558 609 563 603 q 536 622 554 615 z "},"Ĥ":{"ha":946,"x_min":108,"x_max":838,"o":"m 481 1251 q 505 1248 497 1251 q 528 1229 513 1244 l 697 1079 q 703 1066 707 1072 q 685 1060 700 1060 l 647 1060 q 606 1074 619 1060 l 474 1188 l 338 1074 q 299 1060 324 1060 l 263 1060 q 244 1066 247 1060 q 250 1079 240 1072 l 419 1229 q 444 1248 436 1244 q 469 1251 451 1251 l 481 1251 m 811 986 q 838 958 838 986 l 838 28 q 811 0 838 0 l 765 0 q 744 6 750 0 q 738 28 738 13 l 738 453 l 208 453 l 208 28 q 203 6 208 13 q 182 0 197 0 l 136 0 q 115 6 121 0 q 108 28 108 13 l 108 958 q 115 980 108 974 q 136 986 121 986 l 182 986 q 203 980 197 986 q 208 958 208 974 l 208 547 l 738 547 l 738 958 q 744 980 738 974 q 765 986 750 986 l 811 986 z "},"ĥ":{"ha":765,"x_min":-76,"x_max":679,"o":"m 146 1281 q 192 1260 169 1281 l 354 1115 q 343 1094 372 1094 l 306 1094 q 267 1110 281 1094 l 139 1219 l 8 1110 q -29 1094 -6 1094 l -64 1094 q -76 1115 -94 1094 l 88 1260 q 110 1277 103 1274 q 136 1281 118 1281 l 146 1281 m 161 1028 q 186 1003 186 1028 l 186 696 q 404 735 269 735 q 679 463 679 735 l 679 25 q 674 6 679 11 q 654 0 669 0 l 611 0 q 592 6 597 0 q 586 25 586 11 l 586 460 q 392 649 586 649 q 186 608 267 649 l 186 25 q 161 0 186 0 l 117 0 q 92 25 92 0 l 92 1003 q 117 1028 92 1028 l 161 1028 z "},"Ħ":{"ha":958,"x_min":13,"x_max":946,"o":"m 928 822 q 946 803 946 822 l 946 781 q 928 760 946 760 l 844 760 l 844 28 q 838 6 844 13 q 817 0 832 0 l 771 0 q 749 6 756 0 q 743 28 743 13 l 743 453 l 215 453 l 215 28 q 209 6 215 13 q 188 0 203 0 l 142 0 q 120 6 126 0 q 114 28 114 13 l 114 760 l 31 760 q 13 781 13 760 l 13 803 q 31 822 13 822 l 114 822 l 114 958 q 120 980 114 974 q 142 986 126 986 l 188 986 q 209 980 203 986 q 215 958 215 974 l 215 822 l 743 822 l 743 958 q 749 980 743 974 q 771 986 756 986 l 817 986 q 838 980 832 986 q 844 958 844 974 l 844 822 l 928 822 m 215 760 l 215 547 l 743 547 l 743 760 l 215 760 z "},"ħ":{"ha":765,"x_min":1,"x_max":679,"o":"m 186 696 q 403 735 269 735 q 679 463 679 735 l 679 25 q 654 0 679 0 l 611 0 q 592 6 597 0 q 586 25 586 11 l 586 460 q 392 649 586 649 q 186 608 267 649 l 186 25 q 161 0 186 0 l 117 0 q 92 25 92 0 l 92 854 l 19 854 q 5 858 8 854 q 1 874 1 861 l 1 893 q 19 913 1 913 l 92 913 l 92 1003 q 117 1028 92 1028 l 161 1028 q 186 1003 186 1028 l 186 913 l 404 913 q 417 908 414 913 q 421 893 421 904 l 421 874 q 418 858 421 861 q 404 854 415 854 l 186 854 l 186 696 z "},"Ĩ":{"ha":317,"x_min":-60,"x_max":368,"o":"m 353 1225 q 368 1208 368 1225 q 260 1069 368 1069 q 151 1116 210 1069 q 57 1163 92 1163 q 1 1086 1 1163 q -15 1069 1 1069 l -43 1069 q -60 1086 -60 1069 q 49 1225 -60 1225 q 126 1201 90 1225 q 193 1155 163 1178 q 254 1132 224 1132 q 310 1208 310 1132 q 325 1225 310 1225 l 353 1225 m 108 958 q 115 980 108 974 q 136 986 121 986 l 182 986 q 203 980 197 986 q 208 958 208 974 l 208 28 q 203 6 208 13 q 182 0 197 0 l 136 0 q 115 6 121 0 q 108 28 108 13 l 108 958 z "},"ĩ":{"ha":276,"x_min":-28,"x_max":297,"o":"m 283 989 q 297 972 297 989 q 277 866 297 897 q 213 835 257 835 q 157 857 181 835 q 113 901 133 879 q 68 924 93 924 q 24 853 24 924 q 11 835 24 835 l -14 835 q -28 853 -28 835 q 60 989 -28 989 q 140 944 103 989 q 206 899 178 899 q 247 972 247 899 q 260 989 247 989 l 283 989 m 160 714 q 180 708 175 714 q 185 689 185 703 l 185 25 q 180 6 185 11 q 160 0 175 0 l 117 0 q 97 6 103 0 q 92 25 92 11 l 92 689 q 97 708 92 703 q 117 714 103 714 l 160 714 z "},"Ī":{"ha":317,"x_min":-29,"x_max":346,"o":"m 322 1181 q 341 1176 336 1181 q 346 1157 346 1171 l 346 1135 q 341 1116 346 1121 q 322 1111 336 1111 l -6 1111 q -24 1116 -19 1111 q -29 1135 -29 1121 l -29 1157 q -6 1181 -29 1181 l 322 1181 m 108 958 q 115 980 108 974 q 136 986 121 986 l 182 986 q 203 980 197 986 q 208 958 208 974 l 208 28 q 203 6 208 13 q 182 0 197 0 l 136 0 q 115 6 121 0 q 108 28 108 13 l 108 958 z "},"ī":{"ha":276,"x_min":21,"x_max":254,"o":"m 240 931 q 254 908 254 931 l 254 888 q 240 864 254 864 l 36 864 q 21 888 21 864 l 21 908 q 36 931 21 931 l 240 931 m 160 714 q 180 708 175 714 q 185 689 185 703 l 185 25 q 180 6 185 11 q 160 0 175 0 l 117 0 q 97 6 103 0 q 92 25 92 11 l 92 689 q 97 708 92 703 q 117 714 103 714 l 160 714 z "},"Ĭ":{"ha":317,"x_min":-51,"x_max":369,"o":"m 369 1210 q 158 1060 324 1060 q -51 1210 -8 1060 q -40 1235 -57 1228 l -7 1247 q 19 1238 13 1253 q 158 1129 49 1129 q 299 1238 268 1129 q 321 1247 306 1253 l 358 1235 q 369 1210 375 1228 m 108 958 q 115 980 108 974 q 136 986 121 986 l 182 986 q 203 980 197 986 q 208 958 208 974 l 208 28 q 203 6 208 13 q 182 0 197 0 l 136 0 q 115 6 121 0 q 108 28 108 13 l 108 958 z "},"ĭ":{"ha":276,"x_min":-40,"x_max":318,"o":"m 306 983 q 318 960 324 976 q 138 814 283 814 q 22 851 68 814 q -40 960 -24 889 q -29 983 -46 978 l 3 994 q 29 985 24 1000 q 138 885 47 885 q 247 985 229 885 q 269 996 254 1000 l 306 983 m 160 714 q 180 708 175 714 q 185 689 185 703 l 185 25 q 180 6 185 11 q 160 0 175 0 l 117 0 q 97 6 103 0 q 92 25 92 11 l 92 689 q 97 708 92 703 q 117 714 103 714 l 160 714 z "},"Į":{"ha":317,"x_min":40,"x_max":274,"o":"m 274 -274 q 272 -293 279 -286 q 147 -343 218 -343 q 40 -271 60 -343 q 136 1 8 -165 q 114 8 119 1 q 108 28 108 14 l 108 958 q 115 980 108 974 q 136 986 121 986 l 182 986 q 203 980 197 986 q 208 958 208 974 l 208 28 q 203 4 208 11 q 128 -132 149 -69 q 122 -232 108 -194 q 176 -271 135 -271 q 246 -240 218 -271 q 263 -244 258 -231 l 274 -274 z "},"į":{"ha":278,"x_min":32,"x_max":242,"o":"m 135 857 q 94 868 106 857 q 83 908 83 879 l 83 918 q 94 958 83 947 q 135 969 106 969 l 143 969 q 183 958 172 969 q 194 918 194 947 l 194 908 q 183 868 194 879 q 143 857 172 857 l 135 857 m 242 -271 q 240 -289 247 -282 q 136 -342 203 -342 q 66 -320 94 -342 q 32 -258 38 -299 q 52 -121 25 -196 q 113 1 79 -46 q 92 25 92 3 l 92 689 q 117 714 92 714 l 161 714 q 186 689 186 714 l 186 25 q 181 6 186 11 q 131 -108 153 -40 q 113 -225 108 -175 q 130 -259 115 -246 q 161 -272 144 -272 q 213 -242 194 -272 q 231 -246 224 -235 l 242 -271 z "},"İ":{"ha":317,"x_min":108,"x_max":208,"o":"m 163 1197 q 199 1188 189 1197 q 208 1150 208 1178 l 208 1142 q 199 1105 208 1114 q 163 1096 189 1096 l 156 1096 q 118 1106 128 1096 q 108 1142 108 1115 l 108 1150 q 118 1188 108 1178 q 156 1197 128 1197 l 163 1197 m 108 958 q 115 980 108 974 q 136 986 121 986 l 182 986 q 203 980 197 986 q 208 958 208 974 l 208 28 q 203 6 208 13 q 182 0 197 0 l 136 0 q 115 6 121 0 q 108 28 108 13 l 108 958 z "},"ı":{"ha":278,"x_min":92,"x_max":186,"o":"m 161 714 q 186 689 186 714 l 186 25 q 161 0 186 0 l 117 0 q 92 25 92 0 l 92 689 q 117 714 92 714 l 161 714 z "},"Ĳ":{"ha":1113,"x_min":108,"x_max":1011,"o":"m 108 958 q 115 980 108 974 q 136 986 121 986 l 182 986 q 203 980 197 986 q 208 958 208 974 l 208 28 q 203 6 208 13 q 182 0 197 0 l 136 0 q 115 6 121 0 q 108 28 108 13 l 108 958 m 985 986 q 1011 960 1011 986 l 1011 310 q 924 67 1011 154 q 675 -21 838 -21 q 349 239 408 -21 q 365 275 339 265 l 408 290 q 444 272 435 300 q 521 124 467 174 q 675 74 575 74 q 850 135 789 74 q 911 308 911 197 l 911 960 q 917 981 911 975 q 938 986 922 986 l 985 986 z "},"ĳ":{"ha":617,"x_min":83,"x_max":533,"o":"m 143 969 q 183 958 172 969 q 194 918 194 947 l 194 908 q 183 868 194 879 q 143 857 172 857 l 135 857 q 94 868 106 857 q 83 908 83 879 l 83 918 q 94 958 83 947 q 135 969 106 969 l 143 969 m 481 969 q 522 958 510 969 q 533 918 533 947 l 533 908 q 522 868 533 879 q 481 857 510 857 l 474 857 q 432 868 443 857 q 421 908 421 879 l 421 918 q 432 958 421 947 q 474 969 443 969 l 481 969 m 161 714 q 186 689 186 714 l 186 25 q 161 0 186 0 l 117 0 q 92 25 92 0 l 92 689 q 117 714 92 714 l 161 714 m 499 714 q 519 708 514 714 q 524 689 524 703 l 524 -12 q 456 -242 524 -164 q 235 -319 388 -319 q 215 -314 219 -319 q 210 -294 210 -308 l 210 -258 q 235 -232 210 -232 q 387 -177 343 -232 q 431 -11 431 -122 l 431 689 q 436 708 431 703 q 456 714 442 714 l 499 714 z "},"Ĵ":{"ha":792,"x_min":28,"x_max":865,"o":"m 649 1251 q 696 1229 674 1251 l 865 1079 q 853 1060 885 1060 l 815 1060 q 774 1074 786 1060 l 640 1188 l 506 1074 q 465 1060 490 1060 l 429 1060 q 417 1079 397 1060 l 588 1229 q 612 1248 604 1244 q 638 1251 619 1251 l 649 1251 m 664 986 q 692 960 692 986 l 692 310 q 604 67 692 154 q 356 -21 517 -21 q 28 239 90 -21 q 44 275 18 265 l 89 290 q 124 272 114 300 q 201 124 146 174 q 356 74 256 74 q 530 135 469 74 q 590 308 590 197 l 590 960 q 596 981 590 975 q 617 986 601 986 l 664 986 z "},"ĵ":{"ha":278,"x_min":-128,"x_max":335,"o":"m 146 992 q 163 991 158 992 q 174 985 167 990 q 193 969 182 981 l 335 824 q 322 803 353 803 l 286 803 q 244 817 258 803 l 139 931 l 31 817 q -10 803 15 803 l -44 803 q -57 824 -72 803 l 86 969 q 109 988 101 985 q 135 992 117 992 l 146 992 m 161 714 q 181 708 175 714 q 186 689 186 703 l 186 -12 q 118 -242 186 -164 q -103 -319 50 -319 q -122 -314 -117 -319 q -128 -294 -128 -308 l -128 -258 q -103 -232 -128 -232 q 49 -177 6 -232 q 93 -11 93 -122 l 93 689 q 98 708 93 703 q 118 714 103 714 l 161 714 z "},"Ķ":{"ha":846,"x_min":108,"x_max":818,"o":"m 818 28 q 803 0 833 0 l 758 0 q 722 5 732 0 q 703 25 711 10 l 549 333 q 473 427 515 400 q 350 454 431 454 l 208 454 l 208 28 q 203 6 208 13 q 182 0 197 0 l 136 0 q 115 6 121 0 q 108 28 108 13 l 108 958 q 115 980 108 974 q 136 986 121 986 l 182 986 q 203 980 197 986 q 208 958 208 974 l 208 546 l 342 546 l 372 546 l 683 963 q 739 986 701 986 l 789 986 q 808 978 804 986 q 803 960 811 969 l 474 526 q 642 371 578 497 l 818 28 m 440 -322 q 411 -346 433 -346 l 381 -346 q 366 -342 369 -346 q 364 -328 363 -339 l 410 -126 q 418 -106 411 -111 q 440 -100 425 -100 l 482 -100 q 506 -128 517 -100 l 440 -322 z "},"ķ":{"ha":704,"x_min":93,"x_max":676,"o":"m 671 29 q 676 7 679 14 q 656 0 672 0 l 614 0 q 585 4 593 0 q 571 22 578 8 l 465 239 q 413 303 444 283 q 331 324 382 324 l 186 324 l 186 26 q 181 6 186 11 q 160 0 175 0 l 119 0 q 99 6 104 0 q 93 26 93 11 l 93 1003 q 99 1023 93 1018 q 119 1028 104 1028 l 160 1028 q 181 1023 175 1028 q 186 1003 186 1018 l 186 410 l 319 410 l 332 410 l 556 694 q 574 711 565 708 q 604 714 582 714 l 643 714 q 660 685 681 714 l 425 392 q 546 279 500 372 l 671 29 m 375 -293 q 343 -317 368 -317 l 318 -317 q 300 -297 296 -317 l 340 -103 q 349 -79 342 -85 q 372 -74 356 -74 l 408 -74 q 431 -103 442 -74 l 375 -293 z "},"ĸ":{"ha":658,"x_min":92,"x_max":629,"o":"m 629 31 q 614 0 651 0 l 574 0 q 521 21 536 0 l 300 332 l 186 207 l 186 26 q 181 6 186 11 q 160 0 175 0 l 118 0 q 97 6 103 0 q 92 26 92 11 l 92 689 q 118 714 92 714 l 160 714 q 186 689 186 714 l 186 338 l 513 694 q 533 710 524 707 q 564 714 542 714 l 603 714 q 618 685 643 714 l 363 403 l 629 31 z "},"Ĺ":{"ha":724,"x_min":13,"x_max":706,"o":"m 239 1247 q 286 1244 271 1263 l 307 1219 q 316 1206 314 1211 q 315 1197 318 1201 q 303 1190 311 1193 l 58 1061 q 25 1064 35 1053 l 13 1079 q 15 1107 -3 1099 l 239 1247 m 182 986 q 203 980 197 986 q 208 958 208 974 l 208 94 l 679 94 q 706 67 706 94 l 706 28 q 679 0 706 0 l 136 0 q 115 6 121 0 q 108 28 108 13 l 108 958 q 115 980 108 974 q 136 986 121 986 l 182 986 z "},"ĺ":{"ha":288,"x_min":13,"x_max":268,"o":"m 203 1235 q 244 1229 228 1249 l 268 1201 q 263 1172 285 1179 l 60 1076 q 26 1078 35 1065 l 13 1096 q 15 1125 0 1117 l 203 1235 m 190 25 q 165 0 190 0 l 121 0 q 102 6 107 0 q 97 25 97 11 l 97 1003 q 102 1022 97 1017 q 121 1028 107 1028 l 165 1028 q 190 1003 190 1028 l 190 25 z "},"Ļ":{"ha":724,"x_min":108,"x_max":706,"o":"m 182 986 q 203 980 197 986 q 208 958 208 974 l 208 94 l 679 94 q 706 67 706 94 l 706 28 q 679 0 706 0 l 136 0 q 115 6 121 0 q 108 28 108 13 l 108 958 q 115 980 108 974 q 136 986 121 986 l 182 986 m 392 -322 q 361 -346 385 -346 l 332 -346 q 315 -328 311 -346 l 361 -126 q 369 -106 363 -111 q 392 -100 376 -100 l 433 -100 q 457 -128 465 -100 l 392 -322 z "},"ļ":{"ha":288,"x_min":61,"x_max":190,"o":"m 190 25 q 185 6 190 11 q 165 0 181 0 l 122 0 q 103 6 108 0 q 97 25 97 11 l 97 1003 q 103 1022 97 1017 q 122 1028 108 1028 l 165 1028 q 185 1022 181 1028 q 190 1003 190 1017 l 190 25 m 135 -282 q 123 -301 129 -296 q 103 -306 117 -306 l 79 -306 q 63 -301 67 -306 q 61 -285 60 -297 l 101 -83 q 110 -60 103 -65 q 133 -54 117 -54 l 168 -54 q 190 -83 200 -54 l 135 -282 z "},"Ľ":{"ha":725,"x_min":108,"x_max":706,"o":"m 182 986 q 203 980 197 986 q 208 958 208 974 l 208 94 l 679 94 q 706 67 706 94 l 706 28 q 679 0 706 0 l 136 0 q 115 6 121 0 q 108 28 108 13 l 108 958 q 115 980 108 974 q 136 986 121 986 l 182 986 m 515 699 q 486 675 508 675 l 464 675 q 447 693 443 675 l 494 961 q 502 981 496 976 q 525 986 508 986 l 564 986 q 586 960 596 986 l 515 699 z "},"ľ":{"ha":297,"x_min":97,"x_max":436,"o":"m 190 25 q 185 6 190 11 q 165 0 181 0 l 122 0 q 103 6 108 0 q 97 25 97 11 l 97 1003 q 103 1022 97 1017 q 122 1028 108 1028 l 165 1028 q 185 1022 181 1028 q 190 1003 190 1017 l 190 25 m 372 769 q 343 746 363 746 l 321 746 q 304 765 303 746 l 344 1003 q 352 1023 346 1018 q 375 1028 358 1028 l 414 1028 q 436 1001 446 1028 l 372 769 z "},"Ŀ":{"ha":725,"x_min":108,"x_max":706,"o":"m 182 986 q 203 980 197 986 q 208 958 208 974 l 208 94 l 679 94 q 706 67 706 94 l 706 28 q 679 0 706 0 l 136 0 q 115 6 121 0 q 108 28 108 13 l 108 958 q 115 980 108 974 q 136 986 121 986 l 182 986 m 488 564 q 531 551 519 564 q 543 508 543 539 l 543 500 q 531 457 543 469 q 488 444 519 444 l 479 444 q 436 456 447 444 q 425 500 425 468 l 425 508 q 437 552 425 540 q 479 564 449 564 l 488 564 z "},"ŀ":{"ha":454,"x_min":97,"x_max":432,"o":"m 190 25 q 185 6 190 11 q 165 0 181 0 l 122 0 q 103 6 108 0 q 97 25 97 11 l 97 1003 q 103 1022 97 1017 q 122 1028 108 1028 l 165 1028 q 185 1022 181 1028 q 190 1003 190 1017 l 190 25 m 376 581 q 420 568 408 581 q 432 525 432 556 l 432 515 q 420 473 432 485 q 376 461 408 461 l 368 461 q 325 472 336 461 q 314 515 314 483 l 314 525 q 326 569 314 557 q 368 581 338 581 l 376 581 z "},"Ł":{"ha":764,"x_min":-4,"x_max":744,"o":"m 717 94 q 738 88 732 94 q 744 67 744 82 l 744 28 q 738 6 744 13 q 717 0 732 0 l 174 0 q 147 28 147 0 l 147 396 l 38 344 q 11 353 21 335 l -4 383 q 3 408 -14 401 l 147 476 l 147 958 q 174 986 147 986 l 221 986 q 247 958 247 986 l 247 522 l 536 661 q 565 651 557 669 l 581 622 q 571 597 589 606 l 247 442 l 247 94 l 717 94 z "},"ł":{"ha":396,"x_min":14,"x_max":382,"o":"m 382 607 q 375 582 392 590 l 242 504 l 242 25 q 217 0 242 0 l 172 0 q 147 25 147 0 l 147 453 l 58 400 q 31 407 40 390 l 14 435 q 21 460 6 451 l 147 533 l 147 1003 q 172 1028 147 1028 l 217 1028 q 242 1003 242 1028 l 242 583 l 338 640 q 367 633 356 650 l 382 607 z "},"Ń":{"ha":960,"x_min":108,"x_max":851,"o":"m 561 1247 q 608 1244 593 1263 l 629 1219 q 625 1190 646 1199 l 379 1061 q 347 1064 356 1053 l 335 1079 q 336 1107 318 1097 l 561 1247 m 824 986 q 845 980 839 986 q 851 958 851 974 l 851 28 q 845 6 851 13 q 824 0 839 0 l 779 0 q 750 15 758 0 l 307 651 q 240 767 278 694 q 196 850 203 840 l 190 850 q 198 751 190 839 q 206 604 206 664 l 206 28 q 179 0 206 0 l 136 0 q 115 6 121 0 q 108 28 108 13 l 108 958 q 115 980 108 974 q 136 986 121 986 l 181 986 q 210 972 200 986 l 642 349 q 715 228 674 303 q 765 139 756 153 l 769 139 q 761 244 769 153 q 753 397 753 335 l 753 960 q 781 986 753 986 l 824 986 z "},"ń":{"ha":763,"x_min":89,"x_max":676,"o":"m 461 1000 q 507 999 492 1018 l 528 974 q 525 943 544 953 l 279 815 q 247 817 257 806 l 233 833 q 236 861 219 851 l 461 1000 m 142 688 q 400 735 257 735 q 676 463 676 735 l 676 25 q 651 0 676 0 l 608 0 q 589 6 594 0 q 583 25 583 11 l 583 460 q 389 649 583 649 q 204 618 290 649 q 183 583 183 608 l 183 25 q 158 0 183 0 l 114 0 q 89 25 89 0 l 89 611 q 99 658 89 643 q 142 688 110 674 z "},"Ņ":{"ha":960,"x_min":108,"x_max":851,"o":"m 824 986 q 845 980 839 986 q 851 958 851 974 l 851 28 q 845 6 851 13 q 824 0 839 0 l 779 0 q 750 15 758 0 l 307 651 q 240 767 278 694 q 196 850 203 840 l 190 850 q 198 751 190 839 q 206 604 206 664 l 206 28 q 179 0 206 0 l 136 0 q 115 6 121 0 q 108 28 108 13 l 108 958 q 115 980 108 974 q 136 986 121 986 l 181 986 q 210 972 200 986 l 642 349 q 715 228 674 303 q 765 139 756 153 l 769 139 q 761 244 769 153 q 753 397 753 335 l 753 960 q 781 986 753 986 l 824 986 m 472 -322 q 443 -346 465 -346 l 413 -346 q 398 -342 401 -346 q 396 -328 394 -339 l 442 -126 q 450 -106 443 -111 q 472 -100 457 -100 l 514 -100 q 538 -128 549 -100 l 472 -322 z "},"ņ":{"ha":763,"x_min":89,"x_max":676,"o":"m 142 688 q 400 735 257 735 q 676 463 676 735 l 676 25 q 651 0 676 0 l 608 0 q 589 6 594 0 q 583 25 583 11 l 583 460 q 389 649 583 649 q 204 618 290 649 q 183 583 183 608 l 183 25 q 158 0 183 0 l 114 0 q 89 25 89 0 l 89 611 q 99 658 89 643 q 142 688 110 674 m 382 -279 q 350 -303 375 -303 l 326 -303 q 310 -299 314 -303 q 308 -282 307 -294 l 349 -83 q 357 -60 350 -65 q 381 -54 364 -54 l 417 -54 q 438 -83 447 -54 l 382 -279 z "},"Ň":{"ha":960,"x_min":108,"x_max":851,"o":"m 690 1251 q 708 1244 706 1251 q 703 1231 711 1238 l 533 1082 q 486 1058 510 1058 l 475 1058 q 449 1062 457 1058 q 425 1082 442 1065 l 256 1231 q 267 1251 235 1251 l 303 1251 q 343 1238 328 1251 l 478 1122 l 611 1238 q 653 1251 625 1251 l 690 1251 m 824 986 q 845 980 839 986 q 851 958 851 974 l 851 28 q 845 6 851 13 q 824 0 839 0 l 779 0 q 750 15 758 0 l 307 651 q 240 767 278 694 q 196 850 203 840 l 190 850 q 198 751 190 839 q 206 604 206 664 l 206 28 q 179 0 206 0 l 136 0 q 115 6 121 0 q 108 28 108 13 l 108 958 q 115 980 108 974 q 136 986 121 986 l 181 986 q 210 972 200 986 l 642 349 q 715 228 674 303 q 765 139 756 153 l 769 139 q 761 244 769 153 q 753 397 753 335 l 753 960 q 781 986 753 986 l 824 986 z "},"ň":{"ha":763,"x_min":89,"x_max":676,"o":"m 572 976 q 583 957 603 976 l 428 819 q 385 799 408 799 l 375 799 q 351 801 358 799 q 329 819 344 804 l 174 957 q 183 976 157 976 l 218 976 q 254 964 240 976 l 378 857 l 500 964 q 538 976 513 976 l 572 976 m 142 688 q 400 735 257 735 q 676 463 676 735 l 676 25 q 651 0 676 0 l 608 0 q 589 6 594 0 q 583 25 583 11 l 583 460 q 389 649 583 649 q 204 618 290 649 q 183 583 183 608 l 183 25 q 158 0 183 0 l 114 0 q 89 25 89 0 l 89 611 q 99 658 89 643 q 142 688 110 674 z "},"ŉ":{"ha":763,"x_min":60,"x_max":676,"o":"m 126 767 q 94 749 115 749 l 72 749 q 60 768 51 749 l 158 1006 q 169 1024 164 1019 q 189 1028 174 1028 l 233 1028 q 250 1001 265 1028 l 126 767 m 142 688 q 400 735 257 735 q 676 463 676 735 l 676 25 q 651 0 676 0 l 608 0 q 589 6 594 0 q 583 25 583 11 l 583 460 q 389 649 583 649 q 204 618 290 649 q 183 583 183 608 l 183 25 q 158 0 183 0 l 114 0 q 89 25 89 0 l 89 611 q 99 658 89 643 q 142 688 110 674 z "},"Ŋ":{"ha":960,"x_min":108,"x_max":851,"o":"m 824 986 q 845 980 839 986 q 851 958 851 974 l 851 -17 q 771 -240 851 -160 q 538 -319 690 -319 q 517 -314 522 -319 q 513 -294 513 -308 l 513 -258 q 517 -237 513 -243 q 538 -232 522 -232 q 699 -174 644 -232 q 753 -12 753 -117 l 753 10 l 307 651 q 240 767 278 694 q 196 850 203 840 l 190 850 q 198 760 190 842 q 206 622 206 679 l 206 28 q 179 0 206 0 l 136 0 q 115 6 121 0 q 108 28 108 13 l 108 958 q 115 980 108 974 q 136 986 121 986 l 181 986 q 210 972 200 986 l 642 349 q 715 228 674 303 q 765 139 756 153 l 769 139 q 761 244 769 153 q 753 397 753 335 l 753 960 q 781 986 753 986 l 824 986 z "},"ŋ":{"ha":763,"x_min":89,"x_max":676,"o":"m 142 688 q 400 735 257 735 q 676 463 676 735 l 676 -22 q 598 -242 676 -164 q 369 -319 519 -319 q 351 -314 356 -319 q 346 -294 346 -308 l 346 -260 q 351 -241 346 -246 q 369 -236 356 -236 q 529 -179 475 -236 q 583 -19 583 -122 l 583 460 q 389 649 583 649 q 204 618 290 649 q 183 583 183 608 l 183 25 q 158 0 183 0 l 114 0 q 89 25 89 0 l 89 611 q 99 658 89 643 q 142 688 110 674 z "},"Ō":{"ha":921,"x_min":79,"x_max":842,"o":"m 625 1194 q 644 1190 639 1194 q 649 1171 649 1185 l 649 1149 q 644 1130 649 1135 q 625 1125 639 1125 l 297 1125 q 278 1130 283 1125 q 274 1149 274 1135 l 274 1171 q 297 1194 274 1194 l 625 1194 m 79 657 q 178 913 79 821 q 461 1006 276 1006 q 743 913 644 1006 q 842 657 842 821 l 842 329 q 743 73 842 165 q 461 -19 644 -19 q 178 73 276 -19 q 79 329 79 165 l 79 657 m 742 657 q 669 846 742 779 q 461 913 597 913 q 252 846 325 913 q 179 657 179 779 l 179 329 q 252 140 179 207 q 461 74 325 74 q 669 140 597 74 q 742 329 742 207 l 742 657 z "},"ō":{"ha":749,"x_min":69,"x_max":681,"o":"m 524 922 q 541 918 536 922 q 546 900 546 914 l 546 879 q 541 861 546 865 q 524 857 536 857 l 224 857 q 206 861 211 857 q 201 879 201 865 l 201 900 q 224 922 201 922 l 524 922 m 69 479 q 151 667 69 599 q 374 735 232 735 q 599 667 517 735 q 681 479 681 599 l 681 235 q 599 48 681 115 q 374 -19 517 -19 q 151 49 232 -19 q 69 235 69 117 l 69 479 m 586 479 q 529 604 586 558 q 374 650 472 650 q 219 604 276 650 q 163 479 163 558 l 163 235 q 220 110 163 156 q 374 65 278 65 q 529 110 472 65 q 586 235 586 156 l 586 479 z "},"Ŏ":{"ha":921,"x_min":79,"x_max":842,"o":"m 672 1224 q 461 1074 626 1074 q 251 1224 294 1074 q 263 1249 246 1242 l 296 1261 q 322 1251 315 1267 q 461 1143 351 1143 q 601 1251 571 1143 q 624 1261 608 1267 l 661 1249 q 672 1224 678 1242 m 79 657 q 178 913 79 821 q 461 1006 276 1006 q 743 913 644 1006 q 842 657 842 821 l 842 329 q 743 73 842 165 q 461 -19 644 -19 q 178 73 276 -19 q 79 329 79 165 l 79 657 m 742 657 q 669 846 742 779 q 461 913 597 913 q 252 846 325 913 q 179 657 179 779 l 179 329 q 252 140 179 207 q 461 74 325 74 q 669 140 597 74 q 742 329 742 207 l 742 657 z "},"ŏ":{"ha":749,"x_min":69,"x_max":681,"o":"m 585 961 q 374 810 539 810 q 164 961 210 810 q 175 985 158 978 l 208 997 q 235 988 228 1003 q 374 881 264 881 q 514 988 483 881 q 536 999 521 1003 l 574 985 q 585 961 590 978 m 69 479 q 151 667 69 599 q 374 735 232 735 q 599 667 517 735 q 681 479 681 599 l 681 235 q 599 48 681 115 q 374 -19 517 -19 q 151 49 232 -19 q 69 235 69 117 l 69 479 m 586 479 q 529 604 586 558 q 374 650 472 650 q 219 604 276 650 q 163 479 163 558 l 163 235 q 220 110 163 156 q 374 65 278 65 q 529 110 472 65 q 586 235 586 156 l 586 479 z "},"Ő":{"ha":921,"x_min":79,"x_max":842,"o":"m 394 1251 q 436 1268 411 1276 l 467 1260 q 475 1232 493 1250 l 324 1083 q 293 1074 306 1067 l 276 1078 q 268 1104 256 1085 l 394 1251 m 635 1251 q 676 1268 653 1276 l 710 1260 q 718 1232 738 1249 l 560 1081 q 528 1069 542 1064 l 513 1075 q 504 1101 490 1082 l 635 1251 m 79 657 q 178 913 79 821 q 461 1006 276 1006 q 743 913 644 1006 q 842 657 842 821 l 842 329 q 743 73 842 165 q 461 -19 644 -19 q 178 73 276 -19 q 79 329 79 165 l 79 657 m 742 657 q 669 846 742 779 q 461 913 597 913 q 252 846 325 913 q 179 657 179 779 l 179 329 q 252 140 179 207 q 461 74 325 74 q 669 140 597 74 q 742 329 742 207 l 742 657 z "},"ő":{"ha":749,"x_min":69,"x_max":681,"o":"m 313 961 q 351 976 328 983 l 379 968 q 388 942 404 961 l 247 806 q 219 796 232 792 l 204 801 q 196 825 185 807 l 313 961 m 535 960 q 574 975 551 981 l 604 967 q 611 940 631 956 l 463 806 q 435 794 447 790 l 419 800 q 413 824 399 806 l 535 960 m 69 479 q 151 667 69 599 q 374 735 232 735 q 599 667 517 735 q 681 479 681 599 l 681 235 q 599 48 681 115 q 374 -19 517 -19 q 151 49 232 -19 q 69 235 69 117 l 69 479 m 586 479 q 529 604 586 558 q 374 650 472 650 q 219 604 276 650 q 163 479 163 558 l 163 235 q 220 110 163 156 q 374 65 278 65 q 529 110 472 65 q 586 235 586 156 l 586 479 z "},"Œ":{"ha":1174,"x_min":79,"x_max":1121,"o":"m 1093 94 q 1115 88 1108 94 q 1121 67 1121 82 l 1121 28 q 1115 6 1121 13 q 1093 0 1108 0 l 615 0 q 461 -21 539 -21 q 178 72 276 -21 q 79 329 79 165 l 79 657 q 178 914 79 821 q 461 1007 276 1007 q 615 986 542 1007 l 1075 986 q 1097 980 1090 986 q 1103 958 1103 974 l 1103 919 q 1097 898 1103 904 q 1075 892 1090 892 l 688 892 l 688 546 l 1013 546 q 1034 540 1028 546 q 1040 518 1040 533 l 1040 479 q 1034 458 1040 464 q 1013 451 1028 451 l 688 451 l 688 94 l 1093 94 m 179 329 q 252 140 179 207 q 461 74 325 74 q 588 92 536 74 l 588 894 q 461 913 531 913 q 252 846 325 913 q 179 657 179 779 l 179 329 z "},"œ":{"ha":1135,"x_min":72,"x_max":1078,"o":"m 576 613 q 803 735 636 735 q 1010 658 943 735 q 1078 449 1078 581 l 1078 371 q 1036 332 1078 332 l 621 332 l 621 250 q 799 61 621 61 q 910 89 871 61 q 982 175 949 117 q 1022 185 999 197 l 1051 168 q 1061 129 1079 156 q 962 18 1021 56 q 799 -19 903 -19 q 575 99 632 -19 q 487 11 547 42 q 346 -19 426 -19 q 145 48 218 -19 q 72 233 72 115 l 72 479 q 145 667 72 599 q 346 735 218 735 q 488 702 428 735 q 576 613 549 669 m 985 454 q 803 654 985 654 q 621 454 621 654 l 621 404 l 985 404 l 985 454 m 528 481 q 478 605 528 560 q 346 650 429 650 q 214 605 263 650 q 165 481 165 560 l 165 233 q 214 110 165 154 q 346 65 263 65 q 478 110 429 65 q 528 233 528 154 l 528 481 z "},"Ŕ":{"ha":894,"x_min":108,"x_max":843,"o":"m 519 1247 q 567 1244 551 1263 l 588 1219 q 583 1190 604 1199 l 339 1061 q 306 1064 314 1053 l 293 1079 q 294 1107 276 1097 l 519 1247 m 529 986 q 744 910 667 986 q 821 699 821 835 q 762 514 821 585 q 597 426 703 443 q 688 331 651 401 l 843 28 q 829 0 861 0 l 783 0 q 729 25 740 0 l 594 293 q 519 387 561 360 q 396 414 476 414 l 208 414 l 208 28 q 203 6 208 13 q 182 0 197 0 l 136 0 q 115 6 121 0 q 108 28 108 13 l 108 958 q 115 980 108 974 q 136 986 121 986 l 529 986 m 717 699 q 665 842 717 792 q 519 892 614 892 l 208 892 l 208 508 l 519 508 q 665 558 613 508 q 717 699 717 607 z "},"ŕ":{"ha":475,"x_min":89,"x_max":461,"o":"m 363 1000 q 410 997 394 1015 l 431 972 q 426 943 447 951 l 182 814 q 149 817 157 806 l 136 832 q 138 860 121 850 l 363 1000 m 393 735 l 436 735 q 461 710 461 735 l 461 674 q 436 649 461 649 l 390 649 q 207 619 286 649 q 183 583 183 610 l 183 25 q 158 0 183 0 l 114 0 q 89 25 89 0 l 89 614 q 100 662 89 646 q 142 692 111 678 q 393 735 247 732 z "},"Ŗ":{"ha":894,"x_min":108,"x_max":843,"o":"m 529 986 q 744 910 667 986 q 821 699 821 835 q 762 514 821 585 q 597 426 703 443 q 688 331 651 401 l 843 28 q 829 0 861 0 l 783 0 q 729 25 740 0 l 594 293 q 519 387 561 360 q 396 414 476 414 l 208 414 l 208 28 q 203 6 208 13 q 182 0 197 0 l 136 0 q 115 6 121 0 q 108 28 108 13 l 108 958 q 115 980 108 974 q 136 986 121 986 l 529 986 m 717 699 q 665 842 717 792 q 519 892 614 892 l 208 892 l 208 508 l 519 508 q 665 558 613 508 q 717 699 717 607 m 460 -322 q 429 -346 453 -346 l 400 -346 q 384 -342 388 -346 q 383 -328 381 -339 l 429 -126 q 438 -106 431 -111 q 460 -100 444 -100 l 501 -100 q 525 -128 533 -100 l 460 -322 z "},"ŗ":{"ha":475,"x_min":54,"x_max":461,"o":"m 393 735 l 436 735 q 461 710 461 735 l 461 674 q 436 649 461 649 l 390 649 q 207 619 286 649 q 183 583 183 610 l 183 25 q 158 0 183 0 l 114 0 q 89 25 89 0 l 89 614 q 100 662 89 646 q 142 692 111 678 q 393 735 247 732 m 129 -285 q 97 -310 122 -310 l 72 -310 q 54 -289 50 -310 l 93 -86 q 101 -64 94 -69 q 125 -58 108 -58 l 161 -58 q 183 -86 192 -58 l 129 -285 z "},"Ř":{"ha":894,"x_min":108,"x_max":843,"o":"m 649 1251 q 667 1244 664 1251 q 661 1231 669 1238 l 492 1082 q 444 1058 468 1058 l 433 1058 q 408 1062 415 1058 q 383 1082 400 1065 l 214 1231 q 208 1244 206 1238 q 225 1251 210 1251 l 261 1251 q 301 1238 286 1251 l 436 1122 l 569 1238 q 611 1251 583 1251 l 649 1251 m 529 986 q 744 910 667 986 q 821 699 821 835 q 762 514 821 585 q 597 426 703 443 q 688 331 651 401 l 843 28 q 829 0 861 0 l 783 0 q 729 25 740 0 l 594 293 q 519 387 561 360 q 396 414 476 414 l 208 414 l 208 28 q 203 6 208 13 q 182 0 197 0 l 136 0 q 115 6 121 0 q 108 28 108 13 l 108 958 q 115 980 108 974 q 136 986 121 986 l 529 986 m 717 699 q 665 842 717 792 q 519 892 614 892 l 208 892 l 208 508 l 519 508 q 665 558 613 508 q 717 699 717 607 z "},"ř":{"ha":475,"x_min":69,"x_max":492,"o":"m 475 976 q 491 969 489 976 q 485 956 493 963 l 331 818 q 288 797 308 797 l 276 797 q 232 818 253 797 l 75 957 q 69 970 67 964 q 85 976 72 976 l 119 976 q 156 963 143 976 l 281 857 l 401 963 q 440 976 415 976 l 475 976 m 393 735 l 436 735 q 461 710 461 735 l 461 674 q 436 649 461 649 l 390 649 q 207 619 286 649 q 183 583 183 610 l 183 25 q 158 0 183 0 l 114 0 q 89 25 89 0 l 89 614 q 100 662 89 646 q 142 692 111 678 q 393 735 247 732 z "},"Ś":{"ha":869,"x_min":57,"x_max":811,"o":"m 519 1260 q 567 1258 550 1278 l 588 1233 q 583 1203 606 1213 l 338 1075 q 306 1076 314 1064 l 293 1093 q 294 1121 278 1111 l 519 1260 m 72 721 q 167 928 72 851 q 431 1006 261 1006 q 657 954 572 1006 q 796 792 742 903 q 781 756 808 768 l 738 736 q 717 733 724 731 q 701 749 710 735 q 597 871 660 832 q 431 910 533 910 q 241 863 307 910 q 175 726 175 815 q 192 654 175 685 q 233 606 208 624 q 299 574 257 588 q 375 556 342 561 q 463 544 408 550 q 564 530 524 538 q 656 503 604 522 q 738 458 707 485 q 790 383 768 431 q 811 272 811 336 q 714 58 811 135 q 433 -19 617 -19 q 195 39 285 -19 q 57 219 106 97 q 74 257 49 246 l 117 272 q 153 256 140 281 q 433 75 229 75 q 710 269 710 75 q 694 341 710 311 q 656 389 678 371 q 594 419 633 407 q 522 437 554 432 q 439 447 490 442 q 333 461 374 454 q 238 487 293 468 q 150 533 182 506 q 95 608 118 560 q 72 721 72 656 z "},"ś":{"ha":689,"x_min":53,"x_max":638,"o":"m 426 1000 q 474 999 457 1018 l 493 974 q 490 943 511 954 l 244 815 q 213 817 222 806 l 199 833 q 201 861 185 851 l 426 1000 m 64 526 q 134 679 64 624 q 338 735 204 735 q 621 583 554 735 q 608 547 635 558 l 574 532 q 539 544 551 522 q 470 624 515 597 q 339 650 425 650 q 157 529 157 650 q 168 474 157 497 q 194 439 179 451 q 241 418 210 426 q 297 406 272 410 q 367 399 321 403 q 474 383 431 393 q 557 351 517 372 q 617 290 597 329 q 638 193 638 251 q 565 37 638 93 q 353 -19 493 -19 q 53 153 119 -19 q 68 186 42 178 l 104 199 q 138 183 126 206 q 350 63 183 63 q 546 189 546 63 q 498 281 546 257 q 344 317 450 306 q 260 327 292 322 q 187 346 229 332 q 121 381 144 360 q 81 438 97 401 q 64 526 64 475 z "},"Ŝ":{"ha":869,"x_min":57,"x_max":811,"o":"m 446 1265 q 494 1242 471 1265 l 664 1093 q 651 1072 682 1072 l 614 1072 q 572 1086 585 1072 l 439 1201 l 304 1086 q 264 1072 289 1072 l 228 1072 q 215 1093 197 1072 l 386 1242 q 410 1262 401 1258 q 436 1265 418 1265 l 446 1265 m 72 721 q 167 928 72 851 q 431 1006 261 1006 q 657 954 572 1006 q 796 792 742 903 q 781 756 808 768 l 738 736 q 717 733 724 731 q 701 749 710 735 q 597 871 660 832 q 431 910 533 910 q 241 863 307 910 q 175 726 175 815 q 192 654 175 685 q 233 606 208 624 q 299 574 257 588 q 375 556 342 561 q 463 544 408 550 q 564 530 524 538 q 656 503 604 522 q 738 458 707 485 q 790 383 768 431 q 811 272 811 336 q 714 58 811 135 q 433 -19 617 -19 q 195 39 285 -19 q 57 219 106 97 q 74 257 49 246 l 117 272 q 153 256 140 281 q 433 75 229 75 q 710 269 710 75 q 694 341 710 311 q 656 389 678 371 q 594 419 633 407 q 522 437 554 432 q 439 447 490 442 q 333 461 374 454 q 238 487 293 468 q 150 533 182 506 q 95 608 118 560 q 72 721 72 656 z "},"ŝ":{"ha":689,"x_min":53,"x_max":638,"o":"m 353 993 q 399 971 376 993 l 565 825 q 553 804 583 804 l 517 804 q 475 818 490 804 l 346 931 l 214 818 q 175 804 199 804 l 139 804 q 126 825 108 804 l 293 971 q 317 990 310 986 q 342 993 325 993 l 353 993 m 64 526 q 134 679 64 624 q 338 735 204 735 q 621 583 554 735 q 608 547 635 558 l 574 532 q 539 544 551 522 q 470 624 515 597 q 339 650 425 650 q 157 529 157 650 q 168 474 157 497 q 194 439 179 451 q 241 418 210 426 q 297 406 272 410 q 367 399 321 403 q 474 383 431 393 q 557 351 517 372 q 617 290 597 329 q 638 193 638 251 q 565 37 638 93 q 353 -19 493 -19 q 53 153 119 -19 q 68 186 42 178 l 104 199 q 138 183 126 206 q 350 63 183 63 q 546 189 546 63 q 498 281 546 257 q 344 317 450 306 q 260 327 292 322 q 187 346 229 332 q 121 381 144 360 q 81 438 97 401 q 64 526 64 475 z "},"Ş":{"ha":868,"x_min":57,"x_max":810,"o":"m 463 544 q 564 530 524 538 q 656 503 604 522 q 737 458 707 485 q 788 383 767 431 q 810 272 810 336 q 724 67 810 142 q 475 -18 639 -8 l 443 -104 q 479 -100 472 -100 q 567 -131 535 -100 q 597 -212 600 -162 q 548 -310 593 -278 q 432 -343 503 -343 q 321 -317 365 -343 q 304 -290 304 -310 l 304 -264 q 318 -254 304 -246 q 421 -286 364 -286 q 492 -265 467 -286 q 517 -208 517 -244 q 433 -150 517 -150 q 388 -154 408 -150 q 371 -150 375 -156 q 372 -132 367 -144 l 417 -19 q 190 42 275 -17 q 57 219 104 100 q 74 257 47 246 l 117 272 q 138 274 132 278 q 151 256 144 271 q 433 75 231 75 q 708 269 708 75 q 692 341 708 311 q 654 389 676 371 q 592 419 632 407 q 522 437 553 432 q 439 447 490 442 q 351 458 385 453 q 268 476 317 464 q 189 508 219 489 q 128 554 158 526 q 85 624 99 582 q 71 721 71 667 q 165 928 71 851 q 431 1006 260 1006 q 656 954 571 1006 q 794 792 742 903 q 781 756 808 767 l 738 736 q 715 733 722 731 q 701 749 708 735 q 597 871 660 832 q 431 910 533 910 q 241 863 307 910 q 175 726 175 815 q 192 654 175 685 q 233 606 208 624 q 299 574 257 588 q 375 556 342 561 q 463 544 408 550 z "},"ş":{"ha":689,"x_min":53,"x_max":638,"o":"m 64 526 q 134 679 64 624 q 338 735 204 735 q 621 583 554 735 q 608 547 635 558 l 574 532 q 539 544 551 522 q 470 624 515 597 q 339 650 425 650 q 157 529 157 650 q 168 474 157 497 q 194 439 179 451 q 241 418 210 426 q 297 406 272 410 q 367 399 321 403 q 474 383 431 393 q 557 351 517 372 q 617 290 597 329 q 638 193 638 251 q 572 43 638 99 q 379 -19 507 -12 l 346 -107 q 381 -104 354 -104 q 467 -134 435 -104 q 496 -211 499 -164 q 449 -306 493 -275 q 335 -336 404 -336 q 225 -311 268 -336 q 210 -286 210 -304 l 210 -260 q 222 -251 210 -243 q 324 -282 269 -282 q 392 -262 368 -282 q 417 -207 417 -242 q 336 -150 417 -153 q 290 -156 307 -150 q 274 -151 278 -157 q 276 -133 271 -146 l 322 -19 q 53 153 113 -8 q 68 186 42 178 l 104 199 q 138 183 126 206 q 350 63 183 63 q 546 189 546 63 q 498 281 546 257 q 344 317 450 306 q 260 327 292 322 q 187 346 229 332 q 121 381 144 360 q 81 438 97 401 q 64 526 64 475 z "},"Š":{"ha":869,"x_min":57,"x_max":811,"o":"m 649 1264 q 661 1243 679 1264 l 492 1094 q 444 1072 469 1072 l 433 1072 q 408 1076 415 1072 q 383 1094 400 1079 l 214 1243 q 225 1264 193 1264 l 261 1264 q 301 1250 286 1264 l 436 1135 l 569 1250 q 611 1264 583 1264 l 649 1264 m 72 721 q 167 928 72 851 q 431 1006 261 1006 q 657 954 572 1006 q 796 792 742 903 q 781 756 808 768 l 738 736 q 717 733 724 731 q 701 749 710 735 q 597 871 660 832 q 431 910 533 910 q 241 863 307 910 q 175 726 175 815 q 192 654 175 685 q 233 606 208 624 q 299 574 257 588 q 375 556 342 561 q 463 544 408 550 q 564 530 524 538 q 656 503 604 522 q 738 458 707 485 q 790 383 768 431 q 811 272 811 336 q 714 58 811 135 q 433 -19 617 -19 q 195 39 285 -19 q 57 219 106 97 q 74 257 49 246 l 117 272 q 153 256 140 281 q 433 75 229 75 q 710 269 710 75 q 694 341 710 311 q 656 389 678 371 q 594 419 633 407 q 522 437 554 432 q 439 447 490 442 q 333 461 374 454 q 238 487 293 468 q 150 533 182 506 q 95 608 118 560 q 72 721 72 656 z "},"š":{"ha":689,"x_min":53,"x_max":638,"o":"m 535 972 q 552 965 550 972 q 546 951 554 958 l 393 818 q 350 797 374 797 l 340 797 q 296 818 317 797 l 142 953 q 136 966 133 960 q 151 972 139 972 l 186 972 q 221 958 208 972 l 343 854 l 464 958 q 501 972 478 972 l 535 972 m 64 526 q 134 679 64 624 q 338 735 204 735 q 621 583 554 735 q 608 547 635 558 l 574 532 q 539 544 551 522 q 470 624 515 597 q 339 650 425 650 q 157 529 157 650 q 168 474 157 497 q 194 439 179 451 q 241 418 210 426 q 297 406 272 410 q 367 399 321 403 q 474 383 431 393 q 557 351 517 372 q 617 290 597 329 q 638 193 638 251 q 565 37 638 93 q 353 -19 493 -19 q 53 153 119 -19 q 68 186 42 178 l 104 199 q 138 183 126 206 q 350 63 183 63 q 546 189 546 63 q 498 281 546 257 q 344 317 450 306 q 260 327 292 322 q 187 346 229 332 q 121 381 144 360 q 81 438 97 401 q 64 526 64 475 z "},"Ť":{"ha":754,"x_min":18,"x_max":736,"o":"m 588 1251 q 606 1244 603 1251 q 600 1231 608 1238 l 431 1082 q 383 1058 407 1058 l 372 1058 q 347 1062 354 1058 q 322 1082 339 1065 l 153 1231 q 147 1244 144 1238 q 165 1251 150 1251 l 201 1251 q 240 1238 226 1251 l 375 1122 l 508 1238 q 550 1251 522 1251 l 588 1251 m 708 986 q 730 980 724 986 q 736 958 736 974 l 736 919 q 730 898 736 904 q 708 892 724 892 l 428 892 l 428 28 q 422 6 428 13 q 400 0 415 0 l 354 0 q 333 6 339 0 q 326 28 326 13 l 326 892 l 46 892 q 24 898 31 892 q 18 919 18 904 l 18 958 q 24 980 18 974 q 46 986 31 986 l 708 986 z "},"ť":{"ha":499,"x_min":7,"x_max":510,"o":"m 449 794 q 419 771 439 771 l 397 771 q 383 774 386 771 q 381 789 379 778 l 418 1003 q 426 1023 419 1018 q 449 1028 432 1028 l 486 1028 q 510 1003 518 1028 l 449 794 m 232 881 q 252 875 247 881 q 257 856 257 869 l 257 714 l 458 714 q 483 689 483 714 l 483 653 q 458 628 483 628 l 257 628 l 257 267 q 298 108 257 146 q 456 69 339 69 q 481 43 481 69 l 481 6 q 475 -14 481 -8 q 456 -19 469 -19 q 228 38 293 -22 q 164 264 164 99 l 164 628 l 32 628 q 7 653 7 628 l 7 689 q 32 714 7 714 l 164 714 l 164 856 q 189 881 164 881 l 232 881 z "},"Ŧ":{"ha":785,"x_min":33,"x_max":751,"o":"m 724 986 q 745 980 739 986 q 751 958 751 974 l 751 919 q 745 898 751 904 q 724 892 739 892 l 443 892 l 443 494 l 638 494 q 656 475 656 494 l 656 440 q 652 424 656 428 q 638 421 649 421 l 443 421 l 443 28 q 437 6 443 13 q 415 0 431 0 l 369 0 q 348 6 354 0 q 342 28 342 13 l 342 421 l 147 421 q 133 424 136 421 q 129 440 129 428 l 129 475 q 147 494 129 494 l 342 494 l 342 892 l 61 892 q 40 898 46 892 q 33 919 33 904 l 33 958 q 40 980 33 974 q 61 986 46 986 l 724 986 z "},"ŧ":{"ha":508,"x_min":17,"x_max":492,"o":"m 242 882 q 267 857 267 882 l 267 715 l 467 715 q 492 690 492 715 l 492 653 q 467 628 492 628 l 267 628 l 267 401 l 428 401 q 446 382 446 401 l 446 353 q 428 333 446 333 l 267 333 l 267 265 q 308 108 267 146 q 465 69 349 69 q 485 64 481 69 q 490 44 490 58 l 490 7 q 465 -19 490 -18 q 238 38 301 -22 q 174 265 174 99 l 174 333 l 54 333 q 36 353 36 333 l 36 382 q 54 401 36 401 l 174 401 l 174 628 l 42 628 q 17 653 17 628 l 17 690 q 42 715 17 715 l 174 715 l 174 857 q 199 882 174 882 l 242 882 z "},"Ũ":{"ha":947,"x_min":100,"x_max":847,"o":"m 668 1225 q 683 1208 683 1225 q 575 1069 683 1069 q 466 1116 525 1069 q 372 1163 407 1163 q 317 1086 317 1163 q 300 1069 317 1069 l 272 1069 q 256 1086 256 1069 q 364 1225 256 1225 q 442 1201 406 1225 q 508 1155 478 1178 q 569 1132 539 1132 q 625 1208 625 1132 q 640 1225 625 1225 l 668 1225 m 201 335 q 270 142 201 211 q 474 74 339 74 q 677 142 608 74 q 746 335 746 211 l 746 958 q 752 980 746 974 q 774 986 758 986 l 819 986 q 841 980 835 986 q 847 958 847 974 l 847 336 q 751 74 847 169 q 474 -21 656 -21 q 196 74 292 -21 q 100 336 100 169 l 100 958 q 106 980 100 974 q 128 986 113 986 l 174 986 q 195 980 189 986 q 201 958 201 974 l 201 335 z "},"ũ":{"ha":763,"x_min":86,"x_max":674,"o":"m 574 981 q 590 964 590 981 q 482 825 590 825 q 372 872 432 825 q 278 918 313 918 q 222 842 222 918 q 206 825 222 825 l 178 825 q 161 842 161 825 q 269 981 161 981 q 347 957 311 981 q 414 910 383 933 q 475 888 444 888 q 531 964 531 888 q 546 981 531 981 l 574 981 m 649 714 q 674 689 674 714 l 674 103 q 663 56 674 71 q 621 26 653 40 q 361 -19 510 -19 q 86 251 86 -19 l 86 689 q 92 708 86 703 q 111 714 97 714 l 154 714 q 174 708 169 714 q 179 689 179 703 l 179 256 q 374 65 179 65 q 554 96 478 65 q 579 135 579 107 l 579 689 q 604 714 579 714 l 649 714 z "},"Ū":{"ha":947,"x_min":100,"x_max":847,"o":"m 638 1181 q 656 1176 651 1181 q 661 1157 661 1171 l 661 1135 q 656 1116 661 1121 q 638 1111 651 1111 l 310 1111 q 291 1116 296 1111 q 286 1135 286 1121 l 286 1157 q 310 1181 286 1181 l 638 1181 m 201 335 q 270 142 201 211 q 474 74 339 74 q 677 142 608 74 q 746 335 746 211 l 746 958 q 752 980 746 974 q 774 986 758 986 l 819 986 q 841 980 835 986 q 847 958 847 974 l 847 336 q 751 74 847 169 q 474 -21 656 -21 q 196 74 292 -21 q 100 336 100 169 l 100 958 q 106 980 100 974 q 128 986 113 986 l 174 986 q 195 980 189 986 q 201 958 201 974 l 201 335 z "},"ū":{"ha":763,"x_min":86,"x_max":674,"o":"m 543 932 q 562 927 557 932 q 567 908 567 922 l 567 886 q 562 867 567 872 q 543 863 557 863 l 215 863 q 197 867 201 863 q 192 886 192 872 l 192 908 q 215 932 192 932 l 543 932 m 649 714 q 674 689 674 714 l 674 103 q 663 56 674 71 q 621 26 653 40 q 361 -19 510 -19 q 86 251 86 -19 l 86 689 q 92 708 86 703 q 111 714 97 714 l 154 714 q 174 708 169 714 q 179 689 179 703 l 179 256 q 374 65 179 65 q 554 96 478 65 q 579 135 579 107 l 579 689 q 604 714 579 714 l 649 714 z "},"Ŭ":{"ha":947,"x_min":100,"x_max":847,"o":"m 685 1210 q 474 1060 639 1060 q 264 1210 308 1060 q 275 1235 258 1228 l 308 1247 q 335 1238 328 1253 q 474 1129 364 1129 q 614 1238 583 1129 q 636 1247 621 1253 l 674 1235 q 685 1210 690 1228 m 201 335 q 270 142 201 211 q 474 74 339 74 q 677 142 608 74 q 746 335 746 211 l 746 958 q 752 980 746 974 q 774 986 758 986 l 819 986 q 841 980 835 986 q 847 958 847 974 l 847 336 q 751 74 847 169 q 474 -21 656 -21 q 196 74 292 -21 q 100 336 100 169 l 100 958 q 106 980 100 974 q 128 986 113 986 l 174 986 q 195 980 189 986 q 201 958 201 974 l 201 335 z "},"ŭ":{"ha":763,"x_min":86,"x_max":674,"o":"m 590 961 q 379 810 544 810 q 169 961 215 810 q 181 985 164 978 l 214 997 q 240 988 233 1003 q 379 881 269 881 q 519 988 489 881 q 542 999 526 1003 l 579 985 q 590 961 596 978 m 649 714 q 674 689 674 714 l 674 103 q 663 56 674 71 q 621 26 653 40 q 361 -19 510 -19 q 86 251 86 -19 l 86 689 q 92 708 86 703 q 111 714 97 714 l 154 714 q 174 708 169 714 q 179 689 179 703 l 179 256 q 374 65 179 65 q 554 96 478 65 q 579 135 579 107 l 579 689 q 604 714 579 714 l 649 714 z "},"Ů":{"ha":947,"x_min":100,"x_max":847,"o":"m 375 1069 q 356 1088 375 1069 q 336 1168 336 1107 q 375 1267 336 1229 q 478 1306 414 1306 q 578 1267 540 1306 q 615 1168 615 1229 q 578 1069 615 1107 q 478 1032 540 1032 q 375 1069 414 1032 m 542 1104 q 553 1116 542 1104 q 565 1168 565 1128 q 542 1232 565 1208 q 478 1256 518 1256 q 411 1232 436 1256 q 386 1168 386 1208 q 411 1104 386 1128 q 478 1081 436 1081 q 542 1104 518 1081 m 201 335 q 270 142 201 211 q 474 74 339 74 q 677 142 608 74 q 746 335 746 211 l 746 958 q 752 980 746 974 q 774 986 758 986 l 819 986 q 841 980 835 986 q 847 958 847 974 l 847 336 q 751 74 847 169 q 474 -21 656 -21 q 196 74 292 -21 q 100 336 100 169 l 100 958 q 106 980 100 974 q 128 986 113 986 l 174 986 q 195 980 189 986 q 201 958 201 974 l 201 335 z "},"ů":{"ha":763,"x_min":86,"x_max":674,"o":"m 282 800 q 263 819 282 800 q 243 899 243 838 q 282 997 243 960 q 386 1035 321 1035 q 486 997 449 1035 q 524 899 524 960 q 486 800 524 838 q 386 763 449 763 q 282 800 321 763 m 449 835 q 461 847 449 835 q 474 899 474 858 q 449 963 474 939 q 386 986 425 986 q 318 963 343 986 q 293 899 293 939 q 318 835 293 858 q 386 811 343 811 q 449 835 425 811 m 649 714 q 674 689 674 714 l 674 103 q 663 56 674 71 q 621 26 653 40 q 361 -19 510 -19 q 86 251 86 -19 l 86 689 q 92 708 86 703 q 111 714 97 714 l 154 714 q 174 708 169 714 q 179 689 179 703 l 179 256 q 374 65 179 65 q 554 96 478 65 q 579 135 579 107 l 579 689 q 604 714 579 714 l 649 714 z "},"Ű":{"ha":947,"x_min":100,"x_max":847,"o":"m 407 1238 q 449 1254 424 1263 l 479 1246 q 488 1218 506 1236 l 336 1069 q 306 1060 318 1053 l 289 1064 q 281 1090 268 1071 l 407 1238 m 647 1238 q 689 1254 665 1263 l 722 1246 q 731 1218 750 1235 l 572 1067 q 540 1056 554 1050 l 525 1061 q 517 1088 503 1068 l 647 1238 m 201 335 q 270 142 201 211 q 474 74 339 74 q 677 142 608 74 q 746 335 746 211 l 746 958 q 752 980 746 974 q 774 986 758 986 l 819 986 q 841 980 835 986 q 847 958 847 974 l 847 336 q 751 74 847 169 q 474 -21 656 -21 q 196 74 292 -21 q 100 336 100 169 l 100 958 q 106 980 100 974 q 128 986 113 986 l 174 986 q 195 980 189 986 q 201 958 201 974 l 201 335 z "},"ű":{"ha":763,"x_min":86,"x_max":674,"o":"m 313 982 q 354 999 329 1006 l 385 990 q 393 961 413 981 l 242 814 q 211 803 224 799 l 194 808 q 186 835 175 815 l 313 982 m 554 981 q 597 997 574 1004 l 629 988 q 638 960 660 979 l 476 813 q 444 801 458 796 l 429 807 q 421 833 408 814 l 554 981 m 649 714 q 674 689 674 714 l 674 103 q 663 56 674 71 q 621 26 653 40 q 361 -19 510 -19 q 86 251 86 -19 l 86 689 q 92 708 86 703 q 111 714 97 714 l 154 714 q 174 708 169 714 q 179 689 179 703 l 179 256 q 374 65 179 65 q 554 96 478 65 q 579 135 579 107 l 579 689 q 604 714 579 714 l 649 714 z "},"Ų":{"ha":947,"x_min":100,"x_max":847,"o":"m 819 986 q 841 980 835 986 q 847 958 847 974 l 847 336 q 724 51 847 143 q 584 -111 633 -28 q 549 -232 535 -194 q 603 -271 561 -271 q 674 -240 643 -271 q 690 -244 683 -232 l 701 -274 q 699 -293 706 -286 q 574 -343 646 -343 q 467 -271 486 -343 q 489 -147 453 -219 q 596 -4 525 -75 q 474 -21 544 -21 q 196 74 292 -21 q 100 336 100 169 l 100 958 q 106 980 100 974 q 128 986 113 986 l 174 986 q 195 980 189 986 q 201 958 201 974 l 201 335 q 270 142 201 211 q 474 74 339 74 q 677 142 608 74 q 746 335 746 211 l 746 958 q 752 980 746 974 q 774 986 758 986 l 819 986 z "},"ų":{"ha":763,"x_min":86,"x_max":674,"o":"m 649 714 q 674 689 674 714 l 674 103 q 651 44 674 63 q 541 -109 578 -26 q 518 -232 504 -192 q 572 -271 532 -271 q 643 -240 613 -271 q 660 -244 656 -231 l 671 -274 q 669 -293 676 -285 q 544 -343 615 -343 q 438 -271 454 -343 q 454 -140 422 -218 q 554 6 486 -61 q 361 -19 469 -19 q 86 251 86 -19 l 86 689 q 92 708 86 703 q 111 714 97 714 l 154 714 q 174 708 169 714 q 179 689 179 703 l 179 256 q 374 65 179 65 q 554 96 478 65 q 579 135 579 107 l 579 689 q 604 714 579 714 l 649 714 z "},"Ŵ":{"ha":1224,"x_min":32,"x_max":1190,"o":"m 624 1251 q 648 1248 640 1251 q 671 1229 656 1244 l 842 1079 q 829 1060 861 1060 l 790 1060 q 750 1074 763 1060 l 617 1188 l 482 1074 q 442 1060 467 1060 l 406 1060 q 393 1079 374 1060 l 564 1229 q 587 1248 579 1244 q 614 1251 594 1251 l 624 1251 m 1172 986 q 1190 960 1199 986 l 943 24 q 907 0 936 0 l 864 0 q 828 22 833 0 l 643 694 q 615 831 628 753 l 610 831 q 582 696 603 774 l 394 24 q 360 0 388 0 l 315 0 q 281 22 286 0 l 32 960 q 50 986 26 986 l 106 986 q 131 981 124 986 q 143 961 139 976 l 313 290 q 327 207 318 265 q 338 142 336 149 l 343 142 q 372 290 363 257 l 557 946 q 594 971 564 971 l 638 971 q 675 946 668 971 l 857 289 q 888 142 867 256 l 893 142 q 918 288 908 242 l 1088 961 q 1098 981 1090 976 q 1124 986 1106 986 l 1172 986 z "},"ŵ":{"ha":1015,"x_min":32,"x_max":983,"o":"m 517 992 q 564 969 542 992 l 729 824 q 717 804 749 804 l 681 804 q 639 818 653 804 l 510 929 l 378 818 q 339 804 363 804 l 303 804 q 285 810 288 804 q 290 824 282 817 l 458 969 q 481 988 474 985 q 507 992 489 992 l 517 992 m 961 714 q 983 708 979 714 q 982 685 988 701 l 776 18 q 743 -4 771 -4 l 714 -4 q 679 18 686 -4 l 536 472 q 519 543 528 501 q 508 590 510 585 l 504 590 q 493 542 501 583 q 476 472 485 500 l 333 18 q 300 -4 326 -4 l 271 -4 q 238 18 244 -4 l 33 685 q 32 708 28 701 q 54 714 36 714 l 86 714 q 117 709 108 714 q 129 689 126 704 l 256 258 q 273 177 263 231 q 286 114 283 124 l 290 114 q 305 176 293 122 q 325 260 317 231 l 458 674 q 469 694 463 689 q 499 699 476 699 l 519 699 q 547 694 540 699 q 560 674 554 689 l 692 264 q 713 178 701 232 q 728 114 725 124 l 732 114 q 744 175 735 122 q 764 261 754 228 l 889 689 q 901 710 893 706 q 933 714 910 714 l 961 714 z "},"Ŷ":{"ha":871,"x_min":18,"x_max":853,"o":"m 444 1251 q 469 1248 461 1251 q 493 1229 476 1244 l 663 1079 q 650 1060 682 1060 l 613 1060 q 571 1074 583 1060 l 438 1188 l 303 1074 q 263 1060 288 1060 l 226 1060 q 214 1079 194 1060 l 385 1229 q 408 1248 400 1244 q 435 1251 417 1251 l 444 1251 m 835 986 q 853 978 849 986 q 849 958 857 969 l 486 400 l 486 28 q 480 6 486 13 q 458 0 474 0 l 413 0 q 391 6 397 0 q 385 28 385 13 l 385 401 l 22 958 q 18 978 14 969 q 36 986 22 986 l 93 986 q 128 982 118 986 q 146 961 138 978 l 436 504 l 729 961 q 747 982 738 978 q 782 986 757 986 l 835 986 z "},"ŷ":{"ha":765,"x_min":86,"x_max":674,"o":"m 386 992 q 410 988 403 992 q 433 969 418 985 l 599 824 q 586 804 618 804 l 550 804 q 510 818 522 804 l 379 929 l 247 818 q 208 804 232 804 l 172 804 q 154 810 157 804 q 161 824 151 817 l 328 969 q 351 988 343 985 q 376 992 358 992 l 386 992 m 649 714 q 674 689 674 714 l 674 -43 q 378 -343 674 -343 q 101 -194 182 -343 q 111 -153 85 -167 l 142 -137 q 182 -147 167 -124 q 376 -258 242 -258 q 579 -47 579 -258 l 579 35 q 361 -1 457 -1 q 86 269 86 -1 l 86 689 q 92 708 86 703 q 111 714 97 714 l 154 714 q 174 708 169 714 q 179 689 179 703 l 179 274 q 374 83 179 83 q 579 121 463 83 l 579 689 q 604 714 579 714 l 649 714 z "},"Ÿ":{"ha":871,"x_min":18,"x_max":853,"o":"m 307 1200 q 343 1190 333 1200 q 353 1156 353 1181 l 353 1144 q 343 1109 353 1118 q 307 1100 333 1100 l 299 1100 q 263 1109 272 1100 q 253 1144 253 1118 l 253 1156 q 263 1190 253 1181 q 299 1200 272 1200 l 307 1200 m 576 1200 q 613 1190 603 1200 q 622 1156 622 1181 l 622 1144 q 613 1109 622 1118 q 576 1100 603 1100 l 568 1100 q 532 1109 542 1100 q 522 1144 522 1118 l 522 1156 q 532 1190 522 1181 q 568 1200 542 1200 l 576 1200 m 835 986 q 853 978 849 986 q 849 958 857 969 l 486 400 l 486 28 q 480 6 486 13 q 458 0 474 0 l 413 0 q 391 6 397 0 q 385 28 385 13 l 385 401 l 22 958 q 18 978 14 969 q 36 986 22 986 l 93 986 q 128 982 118 986 q 146 961 138 978 l 436 504 l 729 961 q 747 982 738 978 q 782 986 757 986 l 835 986 z "},"Ź":{"ha":786,"x_min":46,"x_max":744,"o":"m 479 1247 q 526 1244 511 1263 l 547 1219 q 556 1206 554 1211 q 555 1197 558 1201 q 543 1190 551 1193 l 299 1061 q 265 1064 275 1053 l 253 1079 q 254 1107 238 1097 l 479 1247 m 703 986 q 724 980 718 986 q 731 958 731 974 l 731 921 q 721 890 731 904 l 171 94 l 717 94 q 744 68 744 94 l 744 28 q 738 6 744 13 q 717 0 732 0 l 72 0 q 46 28 46 0 l 46 65 q 56 97 46 86 l 604 892 l 79 892 q 58 898 64 892 q 51 919 51 904 l 51 958 q 58 980 51 974 q 79 986 64 986 l 703 986 z "},"ź":{"ha":632,"x_min":43,"x_max":590,"o":"m 397 1000 q 443 997 428 1015 l 464 972 q 473 959 471 964 q 472 950 475 954 q 460 943 468 946 l 215 814 q 182 817 192 806 l 169 832 q 172 860 154 851 l 397 1000 m 565 85 q 590 60 590 85 l 590 25 q 565 0 590 0 l 68 0 q 48 6 53 0 q 43 25 43 11 l 43 60 q 51 88 43 76 l 464 629 l 72 629 q 49 654 49 629 l 49 689 q 53 708 49 703 q 72 714 58 714 l 558 714 q 578 708 572 714 q 583 689 583 703 l 583 654 q 574 625 583 638 l 161 85 l 565 85 z "},"Ż":{"ha":786,"x_min":46,"x_max":744,"o":"m 403 1197 q 440 1188 431 1197 q 450 1150 450 1178 l 450 1142 q 440 1106 450 1115 q 403 1096 431 1096 l 396 1096 q 358 1106 368 1096 q 349 1142 349 1115 l 349 1150 q 359 1188 349 1178 q 396 1197 369 1197 l 403 1197 m 703 986 q 724 980 718 986 q 731 958 731 974 l 731 921 q 721 890 731 904 l 171 94 l 717 94 q 744 68 744 94 l 744 28 q 738 6 744 13 q 717 0 732 0 l 72 0 q 46 28 46 0 l 46 65 q 56 97 46 86 l 604 892 l 79 892 q 58 898 64 892 q 51 919 51 904 l 51 958 q 58 980 51 974 q 79 986 64 986 l 703 986 z "},"ż":{"ha":632,"x_min":43,"x_max":590,"o":"m 319 949 q 357 938 347 949 q 367 901 367 928 l 367 894 q 357 857 367 867 q 319 847 347 847 l 313 847 q 275 857 285 847 q 265 894 265 867 l 265 901 q 276 938 265 928 q 313 949 286 949 l 319 949 m 565 85 q 590 60 590 85 l 590 25 q 565 0 590 0 l 68 0 q 48 6 53 0 q 43 25 43 11 l 43 60 q 51 88 43 76 l 464 629 l 72 629 q 49 654 49 629 l 49 689 q 53 708 49 703 q 72 714 58 714 l 558 714 q 578 708 572 714 q 583 689 583 703 l 583 654 q 574 625 583 638 l 161 85 l 565 85 z "},"Ž":{"ha":786,"x_min":46,"x_max":744,"o":"m 608 1251 q 626 1244 624 1251 q 621 1231 629 1238 l 451 1082 q 427 1062 435 1065 q 404 1058 419 1058 l 393 1058 q 367 1062 375 1058 q 344 1082 360 1065 l 174 1231 q 168 1244 165 1238 q 186 1251 171 1251 l 222 1251 q 261 1238 247 1251 l 397 1122 l 529 1238 q 571 1251 543 1251 l 608 1251 m 703 986 q 724 980 718 986 q 731 958 731 974 l 731 921 q 721 890 731 904 l 171 94 l 717 94 q 744 68 744 94 l 744 28 q 738 6 744 13 q 717 0 732 0 l 72 0 q 46 28 46 0 l 46 65 q 56 97 46 86 l 604 892 l 79 892 q 58 898 64 892 q 51 919 51 904 l 51 958 q 58 980 51 974 q 79 986 64 986 l 703 986 z "},"ž":{"ha":632,"x_min":43,"x_max":590,"o":"m 506 971 q 517 951 533 971 l 364 817 q 321 796 343 796 l 311 796 q 267 817 288 796 l 113 951 q 122 971 96 971 l 157 971 q 192 957 179 971 l 314 853 l 433 957 q 471 971 447 971 l 506 971 m 565 85 q 590 60 590 85 l 590 25 q 565 0 590 0 l 68 0 q 48 6 53 0 q 43 25 43 11 l 43 60 q 51 88 43 76 l 464 629 l 72 629 q 49 654 49 629 l 49 689 q 53 708 49 703 q 72 714 58 714 l 558 714 q 578 708 572 714 q 583 689 583 703 l 583 654 q 574 625 583 638 l 161 85 l 565 85 z "},"ſ":{"ha":361,"x_min":14,"x_max":464,"o":"m 147 750 q 215 963 147 899 q 439 1028 283 1028 q 458 1022 453 1028 q 464 1003 464 1017 l 464 967 q 439 940 464 940 q 283 897 326 940 q 240 743 240 854 l 240 25 q 235 6 240 11 q 215 0 231 0 l 172 0 q 147 25 147 0 l 147 628 l 39 628 q 14 653 14 628 l 14 689 q 19 708 14 703 q 39 714 25 714 l 147 714 l 147 750 z "},"ƒ":{"ha":618,"x_min":-35,"x_max":603,"o":"m 278 744 q 362 955 292 882 q 578 1028 432 1028 q 597 1022 592 1028 q 603 1003 603 1017 l 603 967 q 578 940 603 940 q 429 890 476 940 q 372 740 382 839 l 350 540 l 540 540 q 560 535 556 540 q 565 515 565 531 l 565 478 q 540 453 565 453 l 342 453 l 290 -19 q -10 -306 263 -306 q -30 -300 -25 -306 q -35 -281 -35 -294 l -35 -244 q -10 -218 -35 -218 q 139 -167 92 -218 q 197 -17 186 -115 l 247 453 l 68 453 q 43 478 43 453 l 43 515 q 48 535 43 531 q 68 540 53 540 l 257 540 l 278 744 z "},"Ǻ":{"ha":889,"x_min":15,"x_max":872,"o":"m 526 1329 q 572 1328 557 1342 l 590 1307 q 586 1286 606 1292 l 354 1194 q 324 1197 332 1189 l 313 1208 q 322 1233 300 1224 l 526 1329 m 303 1046 q 343 1143 303 1106 q 446 1181 383 1181 q 546 1143 507 1181 q 585 1046 585 1106 q 564 981 585 1008 q 507 942 543 953 l 872 26 q 854 0 883 0 l 813 0 q 763 25 771 0 l 657 296 l 228 296 l 121 25 q 71 0 113 0 l 35 0 q 15 26 4 0 l 382 942 q 303 1046 303 967 m 531 1049 q 506 1108 531 1085 q 446 1131 482 1131 q 382 1108 407 1131 q 357 1049 357 1085 q 382 994 357 1015 q 446 972 407 972 q 506 994 482 972 q 531 1049 531 1015 m 501 707 q 468 814 486 747 q 446 892 450 881 l 439 892 q 419 817 436 883 q 385 708 401 750 l 257 381 l 626 381 l 501 707 z "},"ǻ":{"ha":711,"x_min":51,"x_max":632,"o":"m 428 1236 q 472 1235 457 1249 l 492 1217 q 488 1194 507 1201 l 258 1099 q 228 1100 236 1092 l 215 1113 q 217 1133 201 1124 l 428 1236 m 254 833 q 235 852 254 833 q 215 932 215 871 q 254 1031 215 993 q 357 1069 293 1069 q 457 1031 419 1069 q 494 932 494 993 q 457 833 494 871 q 357 796 419 796 q 254 833 293 796 m 421 868 q 433 880 421 868 q 444 932 444 892 q 421 996 444 972 q 357 1019 397 1019 q 290 996 315 1019 q 265 932 265 972 q 290 868 265 892 q 357 844 315 844 q 421 868 397 844 m 75 589 q 354 735 153 735 q 570 660 508 735 q 632 460 632 586 l 632 96 q 622 44 632 60 q 582 17 611 29 q 351 -19 499 -19 q 115 33 179 -19 q 51 196 51 85 q 122 363 51 314 q 357 411 192 411 q 539 397 414 411 l 539 461 q 498 601 539 551 q 351 651 457 651 q 157 550 214 651 q 122 539 142 529 l 89 553 q 75 589 63 563 m 539 321 q 347 333 414 333 q 192 301 238 333 q 147 197 147 269 q 188 92 147 126 q 344 58 229 58 q 513 81 450 58 q 534 94 529 88 q 539 121 539 101 l 539 321 z "},"Ǽ":{"ha":1154,"x_min":-3,"x_max":1101,"o":"m 913 1247 q 960 1244 944 1263 l 979 1219 q 976 1190 996 1199 l 731 1061 q 699 1064 707 1053 l 685 1079 q 688 1107 669 1099 l 913 1247 m 1075 94 q 1101 67 1101 94 l 1101 28 q 1075 0 1101 0 l 614 0 q 592 6 599 0 q 586 28 586 13 l 586 243 l 240 243 l 108 25 q 91 5 100 10 q 58 0 82 0 l 15 0 q -3 26 -14 0 l 572 963 q 588 982 582 978 q 608 986 594 986 l 1057 986 q 1078 980 1072 986 q 1085 958 1085 974 l 1085 919 q 1078 898 1085 904 q 1057 892 1072 892 l 685 892 l 685 546 l 994 546 q 1015 540 1010 546 q 1021 518 1021 533 l 1021 479 q 1015 458 1021 464 q 994 451 1010 451 l 685 451 l 685 94 l 1075 94 m 586 818 l 290 326 l 586 326 l 586 818 z "},"ǽ":{"ha":1094,"x_min":53,"x_max":1038,"o":"m 622 1007 q 669 1006 654 1024 l 690 981 q 686 951 707 960 l 442 822 q 408 824 419 813 l 396 840 q 397 868 382 858 l 622 1007 m 76 589 q 329 735 154 735 q 539 614 489 735 q 763 735 599 735 q 970 658 903 735 q 1038 449 1038 581 l 1038 371 q 996 332 1038 332 l 581 332 l 581 250 q 758 61 581 61 q 869 89 831 61 q 942 175 908 117 q 983 185 958 197 l 1011 168 q 1021 129 1039 156 q 922 18 981 56 q 758 -19 863 -19 q 558 64 619 -19 q 328 -19 486 -19 q 112 31 171 -19 q 53 193 53 82 q 117 360 53 313 q 333 408 181 408 q 486 396 411 408 l 486 472 q 453 605 486 558 q 326 651 421 651 q 158 551 215 651 q 124 539 144 531 l 90 553 q 76 589 64 565 m 944 454 q 763 654 944 654 q 581 454 581 654 l 581 404 l 944 404 l 944 454 m 486 318 q 322 332 393 332 q 185 300 224 332 q 147 194 147 268 q 183 91 147 124 q 319 58 219 58 q 403 67 368 58 q 458 90 439 76 q 484 115 476 104 q 496 135 492 125 q 486 226 486 174 l 486 318 z "},"Ǿ":{"ha":921,"x_min":79,"x_max":853,"o":"m 547 1261 q 594 1258 579 1276 l 615 1233 q 624 1220 622 1225 q 623 1211 626 1215 q 611 1204 619 1207 l 367 1075 q 333 1078 343 1067 l 321 1093 q 324 1121 306 1113 l 547 1261 m 847 1043 q 853 1033 858 1043 l 763 893 q 842 657 842 806 l 842 329 q 743 74 842 165 q 461 -19 644 -18 q 219 42 315 -21 l 161 -49 q 140 -58 156 -58 l 88 -58 q 82 -49 75 -58 l 165 85 q 79 329 79 174 l 79 657 q 178 913 79 821 q 461 1006 276 1006 q 711 936 618 1006 l 772 1033 q 792 1043 781 1043 l 847 1043 m 657 853 q 461 913 586 913 q 252 846 325 913 q 179 657 179 779 l 179 329 q 229 182 179 239 l 657 853 m 274 126 q 461 74 343 74 q 669 140 597 74 q 742 329 742 207 l 742 657 q 700 793 742 743 l 274 126 z "},"ǿ":{"ha":749,"x_min":69,"x_max":681,"o":"m 454 1000 q 501 997 486 1015 l 522 972 q 518 943 539 951 l 274 814 q 240 817 249 806 l 228 832 q 229 860 211 850 l 454 1000 m 656 767 q 660 757 667 767 l 601 664 q 681 479 681 596 l 681 235 q 599 48 681 115 q 374 -19 517 -19 q 193 21 267 -19 l 156 -40 q 136 -49 149 -49 l 97 -49 q 91 -45 92 -49 q 93 -39 90 -42 l 149 50 q 69 235 69 118 l 69 479 q 151 667 69 599 q 374 735 232 735 q 556 693 481 735 l 597 758 q 615 767 604 767 l 656 767 m 508 618 q 374 650 451 650 q 219 604 276 650 q 163 479 163 558 l 163 235 q 204 138 163 175 l 508 618 m 242 97 q 374 65 294 65 q 529 110 472 65 q 586 235 586 156 l 586 479 q 546 576 586 539 l 242 97 z "},"Ș":{"ha":869,"x_min":57,"x_max":811,"o":"m 72 721 q 167 928 72 851 q 431 1006 261 1006 q 657 954 572 1006 q 796 792 742 903 q 781 756 808 768 l 738 736 q 717 733 724 731 q 701 749 710 735 q 597 871 660 832 q 431 910 533 910 q 241 863 307 910 q 175 726 175 815 q 192 654 175 685 q 233 606 208 624 q 299 574 257 588 q 375 556 342 561 q 463 544 408 550 q 564 530 524 538 q 656 503 604 522 q 738 458 707 485 q 790 383 768 431 q 811 272 811 336 q 714 58 811 135 q 433 -19 617 -19 q 195 39 285 -19 q 57 219 106 97 q 74 257 49 246 l 117 272 q 153 256 140 281 q 433 75 229 75 q 710 269 710 75 q 694 341 710 311 q 656 389 678 371 q 594 419 633 407 q 522 437 554 432 q 439 447 490 442 q 333 461 374 454 q 238 487 293 468 q 150 533 182 506 q 95 608 118 560 q 72 721 72 656 m 443 -329 q 414 -353 436 -353 l 383 -353 q 369 -349 372 -353 q 367 -335 365 -346 l 413 -133 q 421 -112 414 -118 q 443 -107 428 -107 l 485 -107 q 508 -135 519 -107 l 443 -329 z "},"ș":{"ha":689,"x_min":53,"x_max":638,"o":"m 64 526 q 134 679 64 624 q 338 735 204 735 q 621 583 554 735 q 608 547 635 558 l 574 532 q 539 544 551 522 q 470 624 515 597 q 339 650 425 650 q 157 529 157 650 q 168 474 157 497 q 194 439 179 451 q 241 418 210 426 q 297 406 272 410 q 367 399 321 403 q 474 383 431 393 q 557 351 517 372 q 617 290 597 329 q 638 193 638 251 q 565 37 638 93 q 353 -19 493 -19 q 53 153 119 -19 q 68 186 42 178 l 104 199 q 138 183 126 206 q 350 63 183 63 q 546 189 546 63 q 498 281 546 257 q 344 317 450 306 q 260 327 292 322 q 187 346 229 332 q 121 381 144 360 q 81 438 97 401 q 64 526 64 475 m 356 -283 q 324 -307 349 -307 l 300 -307 q 282 -287 278 -307 l 322 -97 q 331 -75 324 -81 q 354 -69 338 -69 l 390 -69 q 411 -97 422 -69 l 356 -283 z "},"Ț":{"ha":754,"x_min":18,"x_max":736,"o":"m 708 986 q 730 980 724 986 q 736 958 736 974 l 736 919 q 730 898 736 904 q 708 892 724 892 l 428 892 l 428 28 q 422 6 428 13 q 400 0 415 0 l 354 0 q 333 6 339 0 q 326 28 326 13 l 326 892 l 46 892 q 24 898 31 892 q 18 919 18 904 l 18 958 q 24 980 18 974 q 46 986 31 986 l 708 986 m 368 -322 q 339 -346 361 -346 l 310 -346 q 294 -342 297 -346 q 292 -328 290 -339 l 338 -126 q 347 -106 339 -111 q 369 -100 354 -100 l 410 -100 q 433 -128 444 -100 l 368 -322 z "},"ț":{"ha":499,"x_min":7,"x_max":483,"o":"m 232 881 q 252 875 247 881 q 257 856 257 869 l 257 714 l 458 714 q 483 689 483 714 l 483 653 q 458 628 483 628 l 257 628 l 257 267 q 298 108 257 146 q 456 69 339 69 q 481 43 481 69 l 481 6 q 475 -14 481 -8 q 456 -19 469 -19 q 228 38 293 -22 q 164 264 164 99 l 164 628 l 32 628 q 7 653 7 628 l 7 689 q 32 714 7 714 l 164 714 l 164 856 q 189 881 164 881 l 232 881 m 296 -322 q 265 -346 289 -346 l 236 -346 q 220 -342 224 -346 q 219 -328 217 -339 l 265 -126 q 296 -100 267 -100 l 338 -100 q 361 -128 369 -100 l 296 -322 z "},"ȷ":{"ha":279,"x_min":-128,"x_max":186,"o":"m 161 714 q 181 708 175 714 q 186 689 186 703 l 186 -12 q 118 -242 186 -164 q -103 -319 50 -319 q -122 -314 -117 -319 q -128 -294 -128 -308 l -128 -258 q -103 -232 -128 -232 q 49 -177 6 -232 q 93 -11 93 -122 l 93 689 q 98 708 93 703 q 118 714 103 714 l 161 714 z "},"ˆ":{"ha":525,"x_min":36,"x_max":485,"o":"m 267 1006 q 291 1002 283 1006 q 314 983 299 999 l 485 835 q 472 814 503 814 l 433 814 q 393 828 406 814 l 260 943 l 125 828 q 85 814 110 814 l 49 814 q 36 835 18 814 l 207 983 q 230 1003 222 1000 q 257 1006 238 1006 l 267 1006 z "},"ˇ":{"ha":461,"x_min":-1,"x_max":453,"o":"m 442 1006 q 453 983 472 1006 l 283 835 q 260 816 268 819 q 236 813 253 813 l 225 813 q 199 816 207 813 q 176 835 192 819 l 6 985 q -1 999 -3 992 q 17 1006 1 1006 l 54 1006 q 93 990 79 1006 l 229 876 l 361 990 q 403 1006 376 1006 l 442 1006 z "},"˘":{"ha":399,"x_min":-18,"x_max":403,"o":"m 403 969 q 192 818 357 818 q -18 969 25 818 q -7 993 -24 986 l 26 1006 q 53 996 44 1011 q 192 888 82 888 q 332 996 301 888 q 354 1006 338 1011 l 392 993 q 403 969 408 986 z "},"˙":{"ha":300,"x_min":100,"x_max":200,"o":"m 153 957 q 190 947 181 957 q 200 910 200 936 l 200 901 q 190 865 200 875 q 153 854 181 854 l 147 854 q 110 865 119 854 q 100 901 100 875 l 100 910 q 110 947 100 936 q 147 957 119 957 l 153 957 z "},"˚":{"ha":333,"x_min":28,"x_max":307,"o":"m 67 800 q 47 819 67 800 q 28 899 28 838 q 67 997 28 960 q 169 1035 106 1035 q 269 997 232 1035 q 307 899 307 960 q 269 800 307 838 q 169 763 232 763 q 67 800 106 763 m 233 835 q 245 847 233 835 q 257 899 257 858 q 233 963 257 939 q 169 986 210 986 q 102 963 126 986 q 78 899 78 939 q 102 835 78 858 q 169 811 126 811 q 233 835 210 811 z "},"˛":{"ha":350,"x_min":60,"x_max":294,"o":"m 264 0 q 161 -130 193 -65 q 142 -232 129 -194 q 196 -271 154 -271 q 267 -240 236 -271 q 283 -244 278 -232 l 294 -274 q 292 -293 300 -285 q 168 -343 239 -343 q 60 -271 79 -343 q 80 -140 43 -214 q 197 0 117 -67 l 264 0 z "},"˜":{"ha":424,"x_min":-3,"x_max":426,"o":"m 410 988 q 426 971 426 988 q 318 833 426 833 q 208 880 268 833 q 114 926 149 926 q 58 850 58 926 q 42 833 58 833 l 14 833 q -3 850 -3 833 q 106 988 -3 988 q 183 965 147 988 q 250 918 219 942 q 311 894 281 894 q 367 971 367 894 q 382 988 367 988 l 410 988 z "},"˝":{"ha":549,"x_min":79,"x_max":529,"o":"m 204 990 q 247 1007 221 1014 l 276 997 q 285 969 304 989 l 133 822 q 103 811 117 806 l 86 817 q 79 842 64 822 l 204 990 m 446 989 q 489 1006 465 1013 l 521 996 q 529 968 551 988 l 368 821 q 336 810 351 804 l 321 815 q 313 840 299 821 l 446 989 z "},"̦":{"ha":0,"x_min":92,"x_max":233,"o":"m 168 -322 q 139 -346 161 -346 l 108 -346 q 92 -328 88 -346 l 138 -126 q 146 -106 139 -111 q 168 -100 153 -100 l 210 -100 q 233 -128 244 -100 l 168 -322 z "},"π":{"ha":857,"x_min":13,"x_max":829,"o":"m 804 714 q 829 689 829 714 l 829 654 q 804 628 829 628 l 725 628 l 725 203 q 760 53 725 114 q 747 15 772 26 l 711 0 q 675 13 688 -11 q 632 207 632 92 l 632 628 l 288 628 l 288 25 q 283 6 288 11 q 263 0 278 0 l 219 0 q 200 6 206 0 q 194 25 194 11 l 194 628 q 63 590 125 626 q 28 600 38 579 l 13 635 q 25 668 3 657 q 229 714 110 714 l 804 714 z "},"Ё":{"ha":796,"x_min":108,"x_max":743,"o":"m 289 1188 q 325 1178 315 1188 q 335 1143 335 1168 l 335 1132 q 325 1097 335 1107 q 289 1088 315 1088 l 281 1088 q 244 1097 254 1088 q 235 1132 235 1107 l 235 1143 q 244 1178 235 1168 q 281 1188 254 1188 l 289 1188 m 558 1188 q 594 1178 585 1188 q 604 1143 604 1168 l 604 1132 q 594 1097 604 1107 q 558 1088 585 1088 l 550 1088 q 514 1097 524 1088 q 504 1132 504 1107 l 504 1143 q 514 1178 504 1168 q 550 1188 524 1188 l 558 1188 m 699 986 q 725 958 725 986 l 725 919 q 699 892 725 892 l 208 892 l 208 547 l 636 547 q 663 519 663 547 l 663 481 q 636 453 663 453 l 208 453 l 208 94 l 717 94 q 743 67 743 94 l 743 28 q 717 0 743 0 l 136 0 q 115 6 121 0 q 108 28 108 13 l 108 958 q 115 980 108 974 q 136 986 121 986 l 699 986 z "},"А":{"ha":890,"x_min":17,"x_max":874,"o":"m 874 26 q 854 0 885 0 l 814 0 q 764 25 771 0 l 660 289 l 225 289 l 121 25 q 107 5 117 10 q 72 0 97 0 l 35 0 q 17 26 6 0 l 389 967 q 424 990 397 990 l 465 990 q 501 968 493 990 l 874 26 m 465 799 q 446 894 446 854 l 439 894 q 422 799 439 850 l 254 372 l 632 372 l 465 799 z "},"Б":{"ha":872,"x_min":108,"x_max":826,"o":"m 728 986 q 749 980 743 986 q 756 958 756 974 l 756 919 q 749 898 756 904 q 728 892 743 892 l 208 892 l 208 569 l 536 569 q 749 494 671 569 q 826 285 826 419 q 749 76 826 151 q 536 0 671 0 l 135 0 q 114 6 119 0 q 108 26 108 11 l 108 958 q 115 980 108 974 q 136 986 121 986 l 728 986 m 669 144 q 695 169 669 144 q 721 285 721 194 q 669 426 721 375 q 526 476 618 476 l 208 476 l 208 94 l 526 94 q 669 144 618 94 z "},"В":{"ha":893,"x_min":108,"x_max":831,"o":"m 528 986 q 726 921 656 986 q 796 733 796 856 q 665 511 796 568 l 665 508 q 831 265 831 465 q 753 69 831 139 q 543 0 675 0 l 136 0 q 115 6 121 0 q 108 28 108 13 l 108 958 q 115 980 108 974 q 136 986 121 986 l 528 986 m 693 721 q 515 892 693 892 l 208 892 l 208 547 l 515 547 q 647 591 601 547 q 693 721 693 635 m 677 140 q 701 163 677 140 q 725 275 725 186 q 677 410 725 364 q 539 457 629 457 l 208 457 l 208 94 l 539 94 q 677 140 629 94 z "},"Г":{"ha":711,"x_min":108,"x_max":689,"o":"m 661 986 q 683 980 676 986 q 689 958 689 974 l 689 919 q 683 898 689 904 q 661 892 676 892 l 208 892 l 208 28 q 203 6 208 13 q 182 0 197 0 l 136 0 q 115 6 121 0 q 108 28 108 13 l 108 958 q 115 980 108 974 q 136 986 121 986 l 661 986 z "},"Д":{"ha":989,"x_min":21,"x_max":961,"o":"m 818 986 q 840 980 833 986 q 846 958 846 974 l 846 94 l 933 94 q 955 88 949 94 q 961 67 961 82 l 961 -185 q 955 -206 961 -200 q 933 -212 949 -212 l 889 -212 q 868 -206 874 -212 q 863 -185 863 -200 l 863 0 l 119 0 l 119 -185 q 93 -212 119 -212 l 49 -212 q 27 -206 33 -212 q 21 -185 21 -200 l 21 67 q 27 88 21 82 q 49 94 33 94 l 97 94 q 147 142 126 114 q 192 230 168 169 q 229 403 217 290 q 242 676 242 515 l 242 958 q 248 980 242 974 q 269 986 254 986 l 818 986 m 339 892 l 339 676 q 306 283 339 410 q 219 94 274 156 l 744 94 l 744 892 l 339 892 z "},"Е":{"ha":796,"x_min":108,"x_max":743,"o":"m 699 986 q 725 958 725 986 l 725 919 q 699 892 725 892 l 208 892 l 208 547 l 636 547 q 663 519 663 547 l 663 481 q 636 453 663 453 l 208 453 l 208 94 l 717 94 q 743 67 743 94 l 743 28 q 717 0 743 0 l 136 0 q 115 6 121 0 q 108 28 108 13 l 108 958 q 115 980 108 974 q 136 986 121 986 l 699 986 z "},"Ж":{"ha":1274,"x_min":29,"x_max":1244,"o":"m 1217 986 q 1234 978 1231 986 q 1229 960 1238 969 l 931 514 q 1069 371 1014 481 l 1244 28 q 1231 0 1263 0 l 1185 0 q 1131 25 1142 0 l 976 333 q 901 427 943 400 q 778 454 858 454 l 688 454 l 688 28 q 681 6 688 13 q 660 0 675 0 l 614 0 q 592 6 599 0 q 586 28 586 13 l 586 454 l 497 454 q 374 427 417 454 q 297 333 332 400 l 143 25 q 89 0 132 0 l 43 0 q 29 28 11 0 l 204 371 q 343 514 260 481 l 44 960 q 58 986 26 986 l 108 986 q 144 982 133 986 q 164 963 154 978 l 440 543 q 497 546 458 546 l 586 546 l 586 958 q 592 980 586 974 q 614 986 599 986 l 660 986 q 681 980 675 986 q 688 958 688 974 l 688 546 l 778 546 q 833 543 817 546 l 1110 963 q 1130 982 1119 978 q 1165 986 1140 986 l 1217 986 z "},"З":{"ha":861,"x_min":51,"x_max":799,"o":"m 768 729 q 642 511 768 564 q 799 269 799 457 q 710 56 799 132 q 446 -19 622 -19 q 185 42 279 -19 q 54 222 92 103 q 52 245 49 238 q 71 258 56 253 l 114 274 q 136 275 128 279 q 150 256 144 271 q 247 118 179 163 q 446 74 314 74 q 632 126 571 74 q 693 274 693 178 q 647 408 693 358 q 513 458 600 458 l 272 458 q 246 485 246 458 l 246 522 q 272 550 246 550 l 501 550 q 625 598 583 550 q 667 721 667 646 q 609 863 667 814 q 440 913 551 913 q 251 870 315 913 q 158 735 188 828 q 122 718 149 711 l 79 733 q 63 768 53 743 q 191 947 100 888 q 446 1006 282 1006 q 686 933 604 1006 q 768 729 768 861 z "},"И":{"ha":964,"x_min":108,"x_max":856,"o":"m 828 986 q 849 980 843 986 q 856 958 856 974 l 856 28 q 849 6 856 13 q 828 0 843 0 l 782 0 q 760 6 767 0 q 754 28 754 13 l 754 574 q 772 857 754 708 l 769 857 q 621 611 719 761 l 211 15 q 182 0 201 0 l 136 0 q 115 6 121 0 q 108 28 108 13 l 108 958 q 115 980 108 974 q 136 986 121 986 l 182 986 q 203 980 197 986 q 208 958 208 974 l 208 428 q 192 129 208 274 l 196 129 q 353 390 256 246 l 753 972 q 782 986 763 986 l 828 986 z "},"Й":{"ha":964,"x_min":108,"x_max":856,"o":"m 714 1215 q 486 1065 664 1065 q 260 1215 310 1065 q 272 1239 254 1233 l 308 1251 q 336 1242 329 1257 q 486 1135 369 1135 q 638 1242 603 1135 q 661 1253 643 1257 l 701 1239 q 714 1215 718 1231 m 828 986 q 849 980 843 986 q 856 958 856 974 l 856 28 q 849 6 856 13 q 828 0 843 0 l 782 0 q 760 6 767 0 q 754 28 754 13 l 754 574 q 772 857 754 708 l 769 857 q 621 611 719 761 l 211 15 q 182 0 201 0 l 136 0 q 115 6 121 0 q 108 28 108 13 l 108 958 q 115 980 108 974 q 136 986 121 986 l 182 986 q 203 980 197 986 q 208 958 208 974 l 208 428 q 192 129 208 274 l 196 129 q 353 390 256 246 l 753 972 q 782 986 763 986 l 828 986 z "},"К":{"ha":846,"x_min":108,"x_max":818,"o":"m 818 28 q 803 0 833 0 l 758 0 q 722 5 732 0 q 703 25 711 10 l 549 333 q 473 427 515 400 q 350 454 431 454 l 208 454 l 208 28 q 203 6 208 13 q 182 0 197 0 l 136 0 q 115 6 121 0 q 108 28 108 13 l 108 958 q 115 980 108 974 q 136 986 121 986 l 182 986 q 203 980 197 986 q 208 958 208 974 l 208 546 l 342 546 l 372 546 l 683 963 q 739 986 701 986 l 789 986 q 808 978 804 986 q 803 960 811 969 l 474 526 q 642 371 578 497 l 818 28 z "},"Л":{"ha":911,"x_min":8,"x_max":803,"o":"m 775 986 q 797 980 790 986 q 803 958 803 974 l 803 28 q 797 6 803 13 q 775 0 790 0 l 729 0 q 708 6 714 0 q 703 28 703 13 l 703 892 l 303 892 l 303 646 q 290 378 303 490 q 258 201 276 265 q 203 90 239 136 q 141 26 168 44 q 65 -15 114 8 q 29 -3 40 -28 l 8 38 q 22 75 -4 61 q 79 108 60 94 q 127 160 99 121 q 169 253 156 199 q 194 408 183 308 q 204 644 204 507 l 204 958 q 231 986 204 986 l 775 986 z "},"М":{"ha":1111,"x_min":108,"x_max":1004,"o":"m 976 986 q 998 980 992 986 q 1004 958 1004 974 l 1004 28 q 998 6 1004 13 q 976 0 992 0 l 935 0 q 913 6 919 0 q 907 28 907 13 l 908 594 q 925 840 908 722 l 919 840 q 813 624 875 735 l 601 251 q 569 231 592 231 l 542 231 q 508 251 519 231 l 294 628 q 193 842 243 715 l 188 842 q 203 593 203 715 l 203 28 q 197 6 203 13 q 175 0 190 0 l 136 0 q 115 6 121 0 q 108 28 108 13 l 108 958 q 115 980 108 974 q 136 986 121 986 l 172 986 q 211 964 199 986 l 556 354 l 897 963 q 913 982 906 978 q 936 986 919 986 l 976 986 z "},"Н":{"ha":946,"x_min":108,"x_max":838,"o":"m 811 986 q 838 958 838 986 l 838 28 q 811 0 838 0 l 765 0 q 744 6 750 0 q 738 28 738 13 l 738 453 l 208 453 l 208 28 q 203 6 208 13 q 182 0 197 0 l 136 0 q 115 6 121 0 q 108 28 108 13 l 108 958 q 115 980 108 974 q 136 986 121 986 l 182 986 q 203 980 197 986 q 208 958 208 974 l 208 547 l 738 547 l 738 958 q 744 980 738 974 q 765 986 750 986 l 811 986 z "},"О":{"ha":921,"x_min":79,"x_max":842,"o":"m 79 657 q 178 913 79 821 q 461 1006 276 1006 q 743 913 644 1006 q 842 657 842 821 l 842 329 q 743 73 842 165 q 461 -19 644 -19 q 178 73 276 -19 q 79 329 79 165 l 79 657 m 742 657 q 669 846 742 779 q 461 913 597 913 q 252 846 325 913 q 179 657 179 779 l 179 329 q 252 140 179 207 q 461 74 325 74 q 669 140 597 74 q 742 329 742 207 l 742 657 z "},"П":{"ha":938,"x_min":108,"x_max":829,"o":"m 803 986 q 829 958 829 986 l 829 28 q 803 0 829 0 l 756 0 q 729 28 729 0 l 729 892 l 208 892 l 208 28 q 203 6 208 13 q 182 0 197 0 l 136 0 q 115 6 121 0 q 108 28 108 13 l 108 958 q 115 980 108 974 q 136 986 121 986 l 803 986 z "},"Р":{"ha":864,"x_min":108,"x_max":821,"o":"m 507 986 q 737 904 653 986 q 821 678 821 822 q 737 452 821 533 q 507 371 653 371 l 208 371 l 208 28 q 203 6 208 13 q 182 0 197 0 l 136 0 q 115 6 121 0 q 108 28 108 13 l 108 958 q 115 980 108 974 q 136 986 121 986 l 507 986 m 499 464 q 658 521 600 464 q 717 678 717 578 q 658 835 717 778 q 499 892 600 892 l 208 892 l 208 464 l 499 464 z "},"С":{"ha":883,"x_min":79,"x_max":832,"o":"m 79 657 q 177 913 79 821 q 460 1006 275 1006 q 703 947 615 1006 q 829 768 792 888 q 831 745 835 753 q 813 732 828 738 l 769 717 q 733 733 743 710 q 641 869 704 826 q 460 913 578 913 q 252 846 324 913 q 181 658 181 779 l 181 328 q 253 141 181 208 q 460 74 325 74 q 643 118 579 74 q 736 257 707 163 q 772 275 747 282 l 815 258 q 832 224 840 249 q 706 42 794 103 q 460 -19 617 -19 q 178 73 278 -19 q 79 329 79 165 l 79 657 z "},"Т":{"ha":754,"x_min":18,"x_max":736,"o":"m 708 986 q 730 980 724 986 q 736 958 736 974 l 736 919 q 730 898 736 904 q 708 892 724 892 l 428 892 l 428 28 q 422 6 428 13 q 400 0 415 0 l 354 0 q 333 6 339 0 q 326 28 326 13 l 326 892 l 46 892 q 24 898 31 892 q 18 919 18 904 l 18 958 q 24 980 18 974 q 46 986 31 986 l 708 986 z "},"У":{"ha":824,"x_min":10,"x_max":808,"o":"m 793 986 q 808 958 821 986 l 350 25 q 334 5 343 10 q 304 0 325 0 l 251 0 q 236 28 222 0 l 367 282 l 10 958 q 25 986 -3 986 l 72 986 q 107 982 97 986 q 125 961 117 978 l 419 393 l 699 961 q 715 982 707 978 q 747 986 722 986 l 793 986 z "},"Ф":{"ha":1150,"x_min":61,"x_max":1088,"o":"m 597 1021 q 619 1015 613 1021 q 625 993 625 1008 l 625 903 l 713 903 q 991 810 894 903 q 1088 550 1088 717 l 1088 443 q 991 183 1088 276 q 713 90 894 90 l 625 90 l 625 0 q 619 -22 625 -15 q 597 -28 613 -28 l 551 -28 q 531 -22 536 -28 q 525 0 525 -15 l 525 90 l 436 90 q 158 183 254 90 q 61 443 61 276 l 61 550 q 158 810 61 717 q 436 903 254 903 l 525 903 l 525 993 q 531 1015 525 1008 q 551 1021 536 1021 l 597 1021 m 436 813 q 233 745 303 813 q 163 554 163 678 l 163 439 q 233 248 163 315 q 436 181 303 181 l 525 181 l 525 813 l 436 813 m 986 554 q 916 745 986 678 q 713 813 846 813 l 625 813 l 625 181 l 713 181 q 916 248 846 181 q 986 439 986 315 l 986 554 z "},"Х":{"ha":857,"x_min":19,"x_max":839,"o":"m 833 29 q 839 9 842 18 q 819 0 836 0 l 764 0 q 729 4 739 0 q 711 25 719 8 l 425 424 l 143 25 q 124 4 133 8 q 90 0 114 0 l 38 0 q 19 9 22 0 q 25 29 17 18 l 364 501 l 35 960 q 31 978 28 969 q 49 986 35 986 l 104 986 q 136 982 126 986 q 157 963 146 978 l 429 581 l 703 963 q 722 982 713 978 q 753 986 731 986 l 808 986 q 826 978 822 986 q 822 960 829 969 l 492 501 l 833 29 z "},"Ц":{"ha":967,"x_min":108,"x_max":938,"o":"m 910 94 q 931 88 925 94 q 938 67 938 82 l 938 -185 q 931 -206 938 -200 q 910 -212 925 -212 l 868 -212 q 847 -206 853 -212 q 840 -185 840 -200 l 840 0 l 136 0 q 115 6 121 0 q 108 28 108 13 l 108 958 q 115 980 108 974 q 136 986 121 986 l 182 986 q 203 980 197 986 q 208 958 208 974 l 208 94 l 724 94 l 724 958 q 730 980 724 974 q 751 986 736 986 l 797 986 q 824 958 824 986 l 824 94 l 910 94 z "},"Ч":{"ha":874,"x_min":56,"x_max":765,"o":"m 738 986 q 759 980 753 986 q 765 958 765 974 l 765 28 q 759 6 765 13 q 738 0 753 0 l 692 0 q 671 6 676 0 q 665 28 665 13 l 665 399 q 407 371 547 371 q 138 456 221 371 q 56 711 56 542 l 56 958 q 62 980 56 974 q 83 986 68 986 l 129 986 q 151 980 144 986 q 157 958 157 974 l 157 711 q 216 526 157 588 q 411 465 275 465 q 665 494 572 465 l 665 958 q 671 980 665 974 q 692 986 676 986 l 738 986 z "},"Ш":{"ha":1267,"x_min":108,"x_max":1158,"o":"m 1131 986 q 1152 980 1146 986 q 1158 958 1158 974 l 1158 28 q 1152 6 1158 13 q 1131 0 1146 0 l 136 0 q 115 6 121 0 q 108 28 108 13 l 108 958 q 115 980 108 974 q 136 986 121 986 l 182 986 q 203 980 197 986 q 208 958 208 974 l 208 94 l 582 94 l 582 958 q 588 980 582 974 q 610 986 594 986 l 656 986 q 677 980 671 986 q 683 958 683 974 l 683 94 l 1057 94 l 1057 958 q 1063 980 1057 974 q 1085 986 1069 986 l 1131 986 z "},"Щ":{"ha":1301,"x_min":108,"x_max":1272,"o":"m 1246 94 q 1267 88 1261 94 q 1272 67 1272 82 l 1272 -185 q 1267 -206 1272 -200 q 1246 -212 1261 -212 l 1203 -212 q 1182 -206 1188 -212 q 1176 -185 1176 -200 l 1176 0 l 136 0 q 115 6 121 0 q 108 28 108 13 l 108 958 q 115 980 108 974 q 136 986 121 986 l 182 986 q 203 980 197 986 q 208 958 208 974 l 208 94 l 582 94 l 582 958 q 588 980 582 974 q 610 986 594 986 l 656 986 q 677 980 671 986 q 683 958 683 974 l 683 94 l 1057 94 l 1057 958 q 1063 980 1057 974 q 1085 986 1069 986 l 1131 986 q 1152 980 1146 986 q 1158 958 1158 974 l 1158 94 l 1246 94 z "},"Ъ":{"ha":1013,"x_min":18,"x_max":969,"o":"m 656 615 q 885 534 801 615 q 969 308 969 453 q 885 82 969 164 q 656 0 801 0 l 283 0 q 263 6 268 0 q 257 28 257 13 l 257 892 l 46 892 q 24 898 31 892 q 18 919 18 904 l 18 958 q 24 980 18 974 q 46 986 31 986 l 329 986 q 351 980 344 986 q 357 958 357 974 l 357 615 l 656 615 m 646 94 q 806 151 749 94 q 864 308 864 207 q 806 466 864 410 q 646 522 749 522 l 357 522 l 357 94 l 646 94 z "},"Ы":{"ha":1199,"x_min":108,"x_max":1090,"o":"m 136 0 q 115 6 121 0 q 108 28 108 13 l 108 958 q 115 980 108 974 q 136 986 121 986 l 182 986 q 203 980 197 986 q 208 958 208 974 l 208 615 l 507 615 q 737 534 653 615 q 821 308 821 453 q 737 82 821 164 q 507 0 653 0 l 136 0 m 989 958 q 995 980 989 974 q 1017 986 1001 986 l 1063 986 q 1084 980 1078 986 q 1090 958 1090 974 l 1090 28 q 1084 6 1090 13 q 1063 0 1078 0 l 1017 0 q 995 6 1001 0 q 989 28 989 13 l 989 958 m 208 522 l 208 94 l 499 94 q 658 151 600 94 q 717 308 717 208 q 658 465 717 408 q 499 522 600 522 l 208 522 z "},"Ь":{"ha":864,"x_min":108,"x_max":821,"o":"m 136 0 q 115 6 121 0 q 108 28 108 13 l 108 958 q 115 980 108 974 q 136 986 121 986 l 182 986 q 203 980 197 986 q 208 958 208 974 l 208 615 l 507 615 q 737 534 653 615 q 821 308 821 453 q 737 82 821 164 q 507 0 653 0 l 136 0 m 208 522 l 208 94 l 499 94 q 658 151 600 94 q 717 308 717 208 q 658 465 717 408 q 499 522 600 522 l 208 522 z "},"Э":{"ha":889,"x_min":57,"x_max":811,"o":"m 60 768 q 185 947 97 888 q 429 1006 274 1006 q 713 914 614 1006 q 811 658 811 822 l 811 329 q 712 73 811 165 q 429 -19 613 -19 q 183 42 272 -19 q 57 222 94 103 q 75 258 49 249 l 118 274 q 153 256 143 283 q 247 118 183 163 q 429 74 311 74 q 636 141 564 74 q 708 328 708 208 l 708 451 l 293 451 q 272 458 278 451 q 265 479 265 464 l 265 518 q 272 540 265 533 q 293 546 278 546 l 708 546 l 708 660 q 638 847 708 781 q 429 913 567 913 q 248 870 311 913 q 156 735 185 828 q 119 718 147 711 l 76 733 q 60 768 51 743 z "},"Ю":{"ha":1279,"x_min":108,"x_max":1200,"o":"m 450 658 q 547 914 450 822 q 826 1006 644 1006 q 1103 914 1007 1006 q 1200 658 1200 822 l 1200 328 q 1103 72 1200 164 q 826 -19 1007 -19 q 547 72 644 -19 q 450 328 450 164 l 450 453 l 208 453 l 208 28 q 203 6 208 13 q 182 0 197 0 l 136 0 q 115 6 121 0 q 108 28 108 13 l 108 958 q 115 980 108 974 q 136 986 121 986 l 182 986 q 203 980 197 986 q 208 958 208 974 l 208 547 l 450 547 l 450 658 m 1100 658 q 1029 847 1100 781 q 826 913 958 913 q 622 847 693 913 q 551 658 551 781 l 551 328 q 622 140 551 206 q 826 74 693 74 q 1029 140 958 74 q 1100 328 1100 206 l 1100 658 z "},"Я":{"ha":892,"x_min":56,"x_max":785,"o":"m 71 699 q 149 910 71 835 q 363 986 226 986 l 757 986 q 778 980 772 986 q 785 958 785 974 l 785 28 q 778 6 785 13 q 757 0 772 0 l 711 0 q 690 6 696 0 q 683 28 683 13 l 683 414 l 492 414 q 368 387 411 414 q 294 293 325 360 l 169 25 q 151 5 163 10 q 114 0 140 0 l 69 0 q 56 28 40 0 l 201 331 q 285 426 233 401 q 126 515 182 446 q 71 699 71 585 m 372 892 q 227 842 278 892 q 176 699 176 792 q 228 558 176 607 q 372 508 279 508 l 683 508 l 683 892 l 372 892 z "},"а":{"ha":711,"x_min":51,"x_max":632,"o":"m 75 589 q 354 735 153 735 q 570 660 508 735 q 632 460 632 586 l 632 96 q 622 44 632 60 q 582 17 611 29 q 351 -19 499 -19 q 115 33 179 -19 q 51 196 51 85 q 122 363 51 314 q 357 411 192 411 q 539 397 414 411 l 539 461 q 498 601 539 551 q 351 651 457 651 q 157 550 214 651 q 122 539 142 529 l 89 553 q 75 589 63 563 m 539 321 q 347 333 414 333 q 192 301 238 333 q 147 197 147 269 q 188 92 147 126 q 344 58 229 58 q 513 81 450 58 q 534 94 529 88 q 539 121 539 101 l 539 321 z "},"б":{"ha":768,"x_min":86,"x_max":701,"o":"m 511 1017 q 619 1035 586 1017 q 656 1018 644 1047 l 667 986 q 668 965 671 971 q 651 951 665 960 q 514 929 608 929 l 464 929 q 235 862 296 929 q 174 619 174 794 l 174 590 q 411 700 246 700 q 626 628 550 700 q 701 429 701 556 l 701 251 q 623 52 701 124 q 393 -19 544 -19 q 165 52 244 -19 q 86 251 86 124 l 86 596 q 169 920 86 824 q 463 1017 251 1017 l 511 1017 m 607 429 q 553 567 607 518 q 393 615 499 615 q 244 570 299 615 q 181 478 189 525 l 181 251 q 235 114 181 163 q 393 65 289 65 q 553 114 499 65 q 607 251 607 163 l 607 429 z "},"в":{"ha":740,"x_min":92,"x_max":682,"o":"m 657 528 q 572 374 657 417 q 682 197 682 326 q 627 53 682 106 q 476 0 572 0 l 118 0 q 92 26 92 0 l 92 689 q 118 714 92 714 l 458 714 q 605 665 553 714 q 657 528 657 615 m 449 407 q 531 438 500 407 q 563 521 563 468 q 443 635 563 635 l 186 635 l 186 407 l 449 407 m 460 81 q 552 113 519 81 q 585 206 585 146 q 551 297 585 264 q 457 329 518 329 l 186 329 l 186 81 l 460 81 z "},"г":{"ha":590,"x_min":92,"x_max":569,"o":"m 544 714 q 564 708 558 714 q 569 689 569 703 l 569 653 q 544 628 569 628 l 186 628 l 186 25 q 161 0 186 0 l 117 0 q 92 25 92 0 l 92 689 q 117 714 92 714 l 544 714 z "},"д":{"ha":825,"x_min":22,"x_max":799,"o":"m 774 86 q 794 81 789 86 q 799 61 799 75 l 799 -168 q 794 -188 799 -183 q 774 -193 789 -193 l 733 -193 q 708 -168 708 -193 l 708 0 l 114 0 l 114 -168 q 88 -193 114 -193 l 47 -193 q 22 -168 22 -193 l 22 61 q 47 86 22 86 l 89 86 q 162 205 136 125 q 188 474 188 285 l 188 689 q 192 708 188 703 q 213 714 197 714 l 672 714 q 697 689 697 714 l 697 86 l 774 86 m 278 468 q 199 86 278 185 l 603 86 l 603 628 l 278 628 l 278 468 z "},"е":{"ha":736,"x_min":65,"x_max":681,"o":"m 65 442 q 144 658 65 581 q 372 735 222 735 q 602 656 524 735 q 681 447 681 578 l 681 371 q 639 332 681 332 l 158 332 l 158 251 q 212 111 158 161 q 367 61 265 61 q 585 176 521 61 q 625 186 601 199 l 654 171 q 664 131 681 157 q 367 -19 581 -19 q 140 56 215 -19 q 65 261 65 131 l 65 442 m 588 453 q 533 601 588 547 q 372 654 478 654 q 213 601 268 654 q 158 453 158 547 l 158 404 l 588 404 l 588 453 z "},"ж":{"ha":1035,"x_min":31,"x_max":1004,"o":"m 538 714 q 558 709 553 714 q 564 689 564 704 l 564 410 l 660 410 q 686 408 678 410 l 883 694 q 901 710 892 707 q 933 714 910 714 l 972 714 q 988 685 1008 714 l 774 383 q 874 279 832 361 l 999 29 q 1004 7 1007 14 q 983 0 1001 0 l 942 0 q 913 4 921 0 q 900 22 906 8 l 794 239 q 742 303 774 283 q 658 324 711 324 l 564 324 l 564 26 q 558 6 564 11 q 538 0 553 0 l 497 0 q 476 6 482 0 q 471 26 471 11 l 471 324 l 376 324 q 292 303 324 324 q 240 239 261 283 l 135 22 q 122 4 129 8 q 93 0 114 0 l 51 0 q 31 7 33 0 q 36 29 28 14 l 161 279 q 261 383 203 361 l 47 685 q 63 714 28 714 l 101 714 q 134 710 125 714 q 151 694 143 707 l 349 408 q 375 410 357 410 l 471 410 l 471 689 q 476 709 471 704 q 497 714 482 714 l 538 714 z "},"з":{"ha":713,"x_min":46,"x_max":653,"o":"m 57 553 q 74 589 63 569 q 109 635 85 608 q 165 683 133 663 q 248 719 197 704 q 358 735 299 735 q 570 678 501 735 q 639 528 639 621 q 539 372 639 408 l 539 367 q 653 192 653 331 q 583 38 653 94 q 364 -19 513 -19 q 225 2 286 -19 q 128 58 164 24 q 74 119 92 93 q 46 171 57 144 q 64 206 36 197 l 100 218 q 136 200 126 225 q 364 63 194 63 q 510 99 463 63 q 557 200 557 136 q 417 325 557 325 l 265 325 q 240 351 240 325 l 240 378 q 265 404 240 404 l 410 404 q 508 435 474 404 q 543 519 543 465 q 499 615 543 579 q 360 651 454 651 q 261 635 304 651 q 194 594 218 619 q 161 553 171 568 q 146 522 151 538 q 110 504 136 496 l 74 517 q 57 553 47 525 z "}}}
